<?xml version="1.0" encoding="utf-8"?>
<!-- Generator: Adobe Illustrator 17.0.0, SVG Export Plug-In . SVG Version: 6.00 Build 0)  -->
<!DOCTYPE svg PUBLIC "-//W3C//DTD SVG 1.1//EN" "http://www.w3.org/Graphics/SVG/1.1/DTD/svg11.dtd">
<svg version="1.1" id="Layer_1" xmlns="http://www.w3.org/2000/svg" xmlns:xlink="http://www.w3.org/1999/xlink" x="0px" y="0px"
	 width="200px" height="400px" viewBox="0 0 200 400" enable-background="new 0 0 200 400" xml:space="preserve">
<path fill="#31AA88" d="M152.898,22.896c-14.748-1.722-51.776-1.699-51.776-1.699H98.53c0,0-37.063-0.023-51.789,1.699
	C20.999,25.947,1.319,25.589,1.319,68.931c0,14.668,0,234.484,0,256.176c0,21.707,20.976,35.967,48.608,35.967s48.608,0,48.608,0
	h2.592c0,0,20.976,0,48.608,0c27.615,0,48.573-14.26,48.573-35.967c0-21.692,0-241.508,0-256.176
	C198.303,25.592,178.675,25.947,152.898,22.896z M80.181,32.035h37.123c1.313,0,2.397,0.929,2.397,2.107
	c0,1.129-1.083,2.085-2.397,2.085H80.181c-1.33,0-2.414-0.955-2.414-2.085C77.771,32.964,78.855,32.035,80.181,32.035z
	 M121.881,346.629c0,1.76-1.656,3.229-3.688,3.229H81.49c-2.067,0-3.723-1.473-3.723-3.229v-4.6c0-1.76,1.66-3.218,3.723-3.218
	h36.703c2.033,0,3.688,1.458,3.688,3.218C121.881,342.029,121.881,346.629,121.881,346.629z M183.039,315.779H14.879V59.271h168.16
	V315.779z"/>
<g>
	<g>
		<path fill="#31AA88" d="M124.126,196.569l-2.209,25.898l7.983,11.172l14.113-10.086l-19.971-27.942
			C124.069,195.931,124.126,196.241,124.126,196.569z"/>
		<path fill="#31AA88" d="M114.555,188.097l-28.043-5.971l28.627,3.288c0.745,0.165,1.45,0.417,2.131,0.712l-1.044-1.46
			c-0.908-1.268-2.147-2.218-3.548-2.838c1.84-0.033,3.615-0.787,4.911-2.154l24.245-28.595l-1.549-1.474
			c0.699-0.765,1.355-1.59,1.915-2.513c4.72-7.72,2.272-17.82-5.449-22.534c-7.758-4.72-17.846-2.271-22.562,5.465
			c-4.709,7.737-2.277,17.814,5.479,22.54c0.776,0.471,1.576,0.853,2.392,1.178l11.13-7.91l-17.853,16.052l-6.726-19.081
			l-0.063,0.022c-0.329-0.802-0.744-1.583-1.24-2.336c-4.22-6.391-12.835-8.155-19.224-3.933
			c-1.083,0.718-10.828,7.29-19.664,17.891c-9.526,11.423-12.639,22.861-12.961,24.129c-1.897,7.422,2.585,14.981,10.008,16.877
			c0.646,0.164,1.289,0.273,1.934,0.34l36.639,7.769l0.017,39.714l17.343-0.005l-0.016-46.703
			C121.385,192.49,118.539,188.963,114.555,188.097z M89.734,172.214c3.44-4.128,7.191-7.471,9.893-9.665l-2.749-11.276
			l9.128,25.927c0.579,1.645,1.755,2.971,3.25,3.783l-23.535-2.973C86.774,176.187,88.073,174.204,89.734,172.214z"/>
	</g>
</g>
</svg>
