<?xml version="1.0" encoding="utf-8"?>
<!-- Generator: Adobe Illustrator 17.0.0, SVG Export Plug-In . SVG Version: 6.00 Build 0)  -->
<!DOCTYPE svg PUBLIC "-//W3C//DTD SVG 1.1//EN" "http://www.w3.org/Graphics/SVG/1.1/DTD/svg11.dtd">
<svg version="1.1" id="Layer_1" xmlns="http://www.w3.org/2000/svg" xmlns:xlink="http://www.w3.org/1999/xlink" x="0px" y="0px"
	 width="40px" height="25px" viewBox="0 0 40 25" enable-background="new 0 0 40 25" xml:space="preserve">
<g>
	<g>
		<path fill="#DD99AA" d="M39.997,0H-0.096v24.92h5.521l0,0h1.194h33.377v-0.098h0.099l-0.099-0.098V0z M7.813,23.943l8.456-8.307
			l3.482,3.42l6.516-6.401l11.441,11.238L7.813,23.943z M39.002,23.747L26.268,11.238l-6.516,6.401l-3.482-3.42L6.42,23.943H0.899
			V0.977h38.153v22.77H39.002z"/>
		<path fill="#DD99AA" d="M7.714,10.017c1.443,0,2.636-1.173,2.636-2.59s-1.194-2.59-2.636-2.59S5.077,6.01,5.077,7.427
			S6.221,10.017,7.714,10.017z M7.714,5.326c1.194,0,2.139,0.928,2.139,2.101S8.907,9.528,7.714,9.528S5.575,8.6,5.575,7.427
			S6.52,5.326,7.714,5.326z"/>
	</g>
</g>
</svg>
