<?xml version="1.0" encoding="utf-8"?>
<!-- Generator: Adobe Illustrator 17.0.0, SVG Export Plug-In . SVG Version: 6.00 Build 0)  -->
<!DOCTYPE svg PUBLIC "-//W3C//DTD SVG 1.1//EN" "http://www.w3.org/Graphics/SVG/1.1/DTD/svg11.dtd">
<svg version="1.1" id="Layer_1" xmlns="http://www.w3.org/2000/svg" xmlns:xlink="http://www.w3.org/1999/xlink" x="0px" y="0px"
	 width="40px" height="25px" viewBox="0 0 40 25" enable-background="new 0 0 40 25" xml:space="preserve">
<g transform="translate(0,-952.36216)">
	<path fill="#999999" d="M0,952.362c0,8.746,0,17.464,0,25c13.961,0,28.008,0,40,0c0-8.688,0-17.557,0-25
		C26.085,952.362,11.916,952.362,0,952.362z M0.706,953.145h38.588v23.433H0.706V953.145z"/>
	<path fill="#999999" d="M2.176,954.777c0,1.251,0,2.502,0,3.753c1.155-1.284,2.393-2.64,3.397-3.753
		C4.441,954.777,3.309,954.777,2.176,954.777z M2.882,955.561h0.985l-0.985,1.077V955.561z"/>
	<path fill="#999999" d="M5.809,974.147v0.783H8v-0.783H5.809z"/>
	<path fill="#999999" d="M10.176,974.147v0.783h2.176v-0.783H10.176z"/>
	<path fill="#999999" d="M14.544,974.147v0.783h2.176v-0.783H14.544z"/>
	<path fill="#999999" d="M18.912,974.147v0.783h2.176v-0.783H18.912z"/>
	<path fill="#999999" d="M23.279,974.147v0.783h2.176v-0.783H23.279z"/>
	<path fill="#999999" d="M27.647,974.147v0.783h2.176v-0.783H27.647z"/>
	<path fill="#999999" d="M32,974.147v0.783h2.191v-0.783H32z"/>
	<path fill="#999999" d="M5.456,964.471c0,2.863,0,5.537,0,8.045c0.966,0,1.931,0,2.897,0c0-2.783,0-5.655,0-8.045
		C7.387,964.471,6.422,964.471,5.456,964.471z M6.162,965.254h1.485v6.478H6.162V965.254z"/>
	<path fill="#999999" d="M9.824,959.624c0,4.47,0,9.058,0,12.892c0.961,0,1.922,0,2.882,0c0-4.541,0-8.951,0-12.892
		C11.745,959.624,10.784,959.624,9.824,959.624z M10.529,960.407H12v11.325h-1.471V960.407z"/>
	<path fill="#999999" d="M14.191,966.886v0.392v4.847v0.392h0.353h2.176h0.353v-0.392v-4.847v-0.392h-0.353h-2.176H14.191z
		 M14.897,967.669h1.471v4.063h-1.471V967.669z"/>
	<path fill="#999999" d="M18.559,957.192c0,5.385,0,10.661,0,15.323c0.961,0,1.922,0,2.882,0c0-5.318,0-10.764,0-15.323
		C20.48,957.192,19.52,957.192,18.559,957.192z M19.265,957.976h1.471v13.756h-1.471V957.976z"/>
	<path fill="#999999" d="M27.294,964.471v0.392c0,2.551,0,5.102,0,7.653c0.961,0,1.922,0,2.882,0c0-2.551,0-5.102,0-7.653v-0.392
		h-0.353h-2.176H27.294z M28,965.254h1.471v6.478H28V965.254z"/>
	<path fill="#999999" d="M22.926,962.039c0,3.629,0,7.362,0,10.477c0.961,0,1.922,0,2.882,0c0-3.705,0-7.25,0-10.477
		C24.848,962.039,23.887,962.039,22.926,962.039z M23.632,962.822h1.471v8.91h-1.471V962.822z"/>
	<path fill="#999999" d="M31.647,959.624c0,4.47,0,9.058,0,12.892c0.966,0,1.931,0,2.897,0c0-4.541,0-8.951,0-12.892
		C33.578,959.624,32.613,959.624,31.647,959.624z M32.353,960.407h1.485v11.325h-1.485V960.407z"/>
</g>
</svg>
