<?xml version="1.0" encoding="utf-8"?>
<!-- Generator: Adobe Illustrator 17.0.0, SVG Export Plug-In . SVG Version: 6.00 Build 0)  -->
<!DOCTYPE svg PUBLIC "-//W3C//DTD SVG 1.1//EN" "http://www.w3.org/Graphics/SVG/1.1/DTD/svg11.dtd">
<svg version="1.1" id="Layer_1" xmlns="http://www.w3.org/2000/svg" xmlns:xlink="http://www.w3.org/1999/xlink" x="0px" y="0px"
	 width="40px" height="40px" viewBox="0 0 40 40" enable-background="new 0 0 40 40" xml:space="preserve">
<path fill="#999999" d="M0,0c0,13.994,0,27.942,0,40c13.961,0,28.008,0,40,0c0-13.901,0-28.091,0-40C26.085,0,11.916,0,0,0z
	 M0.706,1h38.588v38H0.706V1z"/>
<path fill="#999999" d="M2.176,3c0,1.251,0,2.502,0,3.753C3.343,5.47,4.593,4.114,5.607,3C4.463,3,3.32,3,2.176,3z M2.889,3.783
	h0.995L2.889,4.86V3.783z"/>
<path fill="#999999" d="M3.159,32.895V34h2.6v-1.105H3.159z"/>
<path fill="#999999" d="M8.342,32.895V34h2.583v-1.105H8.342z"/>
<path fill="#999999" d="M13.526,32.895V34h2.583v-1.105H13.526z"/>
<path fill="#999999" d="M18.709,32.895V34h2.583v-1.105H18.709z"/>
<path fill="#999999" d="M23.892,32.895V34h2.583v-1.105H23.892z"/>
<path fill="#999999" d="M29.075,32.895V34h2.583v-1.105H29.075z"/>
<path fill="#999999" d="M34.24,32.895V34h2.6v-1.105H34.24z"/>
<path fill="#999999" d="M2.741,19.245c0,4.038,0,7.81,0,11.348c1.146,0,2.292,0,3.438,0c0-3.925,0-7.977,0-11.348
	C5.033,19.245,3.887,19.245,2.741,19.245z M3.578,20.35h1.763v9.138H3.578V20.35z"/>
<path fill="#999999" d="M7.924,12.409c0,6.306,0,12.776,0,18.184c1.14,0,2.28,0,3.42,0c0-6.406,0-12.625,0-18.184
	C10.204,12.409,9.064,12.409,7.924,12.409z M8.761,13.514h1.745v15.975H8.761V13.514z"/>
<path fill="#999999" d="M13.107,22.652v0.552v6.836v0.552h0.419h2.583h0.419v-0.552v-6.836v-0.552h-0.419h-2.583H13.107z
	 M13.944,23.757h1.745v5.732h-1.745V23.757z"/>
<path fill="#999999" d="M18.29,8.979c0,7.595,0,15.039,0,21.614c1.14,0,2.28,0,3.42,0c0-7.501,0-15.184,0-21.614
	C20.57,8.979,19.43,8.979,18.29,8.979z M19.127,10.084h1.745v19.404h-1.745V10.084z"/>
<path fill="#999999" d="M28.656,19.245v0.552c0,3.598,0,7.197,0,10.796c1.14,0,2.28,0,3.42,0c0-3.598,0-7.197,0-10.796v-0.552
	h-0.419h-2.583H28.656z M29.494,20.35h1.745v9.138h-1.745V20.35z"/>
<path fill="#999999" d="M23.473,15.816c0,5.119,0,10.385,0,14.778c1.14,0,2.28,0,3.42,0c0-5.225,0-10.227,0-14.778
	C25.753,15.816,24.613,15.816,23.473,15.816z M24.31,16.92h1.745v12.568H24.31V16.92z"/>
<path fill="#999999" d="M33.821,12.409c0,6.306,0,12.776,0,18.184c1.146,0,2.292,0,3.438,0c0-6.406,0-12.625,0-18.184
	C36.113,12.409,34.967,12.409,33.821,12.409z M34.659,13.514h1.763v15.975h-1.763V13.514z"/>
</svg>
