<?xml version="1.0" encoding="utf-8"?>
<!-- Generator: Adobe Illustrator 17.0.0, SVG Export Plug-In . SVG Version: 6.00 Build 0)  -->
<!DOCTYPE svg PUBLIC "-//W3C//DTD SVG 1.1//EN" "http://www.w3.org/Graphics/SVG/1.1/DTD/svg11.dtd">
<svg version="1.1" id="Layer_1" xmlns="http://www.w3.org/2000/svg" xmlns:xlink="http://www.w3.org/1999/xlink" x="0px" y="0px"
	 width="100px" height="100px" viewBox="0 0 100 100" enable-background="new 0 0 100 100" xml:space="preserve">
<path fill="#FFFFFF" d="M1.691,71.365c2.22,3.74,4.893,7.192,7.958,10.277c0.925,3.589,3.624,6.453,7.151,7.59
	c0.427,0.14,0.864,0.25,1.308,0.327h0.276l0.429,0.072h0.296h0.337c0.909,0.061,1.821,0.009,2.717-0.153
	c1.737-0.325,3.365-1.084,4.73-2.207l16.886-14.373l5.68,2.85l2.258,5.465L33.503,95.77c-2.578,1.959-5.575,3.294-8.755,3.902
	l-0.899,0.153c-1.736,0.247-3.497,0.278-5.241,0.092c-0.286,0-0.593-0.072-0.909-0.123l-0.358-0.051
	c-0.266,0-0.582-0.112-0.899-0.174l-0.337-0.072c-0.861-0.186-1.707-0.431-2.533-0.736C6.923,96.362,1.973,90.714,0.465,83.808
	c-0.729-3.359-0.599-6.848,0.378-10.144C1.077,72.88,1.36,72.112,1.691,71.365z M97.125,31.34c-1.39-1.508-3.343-2.37-5.394-2.38
	c-2.035-0.016-3.987,0.808-5.394,2.278l-8.714,9.051l-20.911-3.943c-1.936-0.362-3.929,0.214-5.373,1.553l-3.678,3.422
	c-0.684,0.64-0.72,1.713-0.08,2.397c0.124,0.132,0.268,0.244,0.427,0.331l17.06,9.255l-5.629,5.864l-7.968-1.144
	c-1.76-0.259-3.542,0.297-4.842,1.512l-1.706,1.583c-0.682,0.642-0.714,1.715-0.071,2.397c0.135,0.143,0.294,0.262,0.47,0.351
	l11.023,5.516l4.709,11.401c0.36,0.865,1.353,1.274,2.217,0.913c0.184-0.077,0.353-0.185,0.5-0.321l1.706-1.583
	c1.305-1.209,1.989-2.946,1.859-4.72l-0.572-8.172l6.129-5.108l7.989,17.693c0.356,0.773,1.23,1.162,2.043,0.909
	c0.228-0.078,0.437-0.203,0.613-0.368l3.708-3.494c1.439-1.342,2.159-3.285,1.941-5.241l-2.411-21.126l9.654-8.029
	c3.163-2.629,3.596-7.324,0.968-10.487C97.31,31.545,97.219,31.441,97.125,31.34z M57.928,23.413
	c-0.93,1.532-0.153,2.85,0.593,3.994c0.316,0.718,1.154,1.044,1.872,0.728c0.201-0.088,0.378-0.222,0.519-0.391
	c0.725-0.684,2.288-1.44,2.901-1.114c2.268,1.236,4.474,1.022,6.793,0.562c0.102,0,2.043,0.97,2.155,0.94
	c1.471-0.358,4.485,0.868,5.322-0.848l1.982-2.043c1.621-1.669,3.582-2.969,5.751-3.81C73.039,0.398,45.63-6.294,24.597,6.483
	S-3.128,46.67,9.649,67.703c0.952,1.566,1.999,3.073,3.136,4.51l0.725,0.879l0.633,0.736c0.531,0.603,1.083,1.205,1.655,1.778
	l0.143,0.174c1.749,1.768,3.642,3.388,5.659,4.842l7.529-6.538c-2.635-1.651-5.039-3.643-7.151-5.925h0.051
	c3.065-0.868,6.232-1.747,9.347-2.585c0.306-0.082,0.684,0.133,1.022,0.082c1.277-0.174,2.564-0.245,3.3-1.655
	c0.387-0.582,0.948-1.025,1.604-1.267c1.144-0.521,3.065-2.911,2.83-4.086c-0.153-0.889-0.511-2.135-1.165-2.472
	c-1.05-0.588-1.795-1.601-2.043-2.779c-0.541-1.583-1.093-3.157-1.696-4.709c-0.174-0.439-0.47-1.022-0.838-1.144
	c-0.976-0.344-1.667-1.218-1.778-2.247c-0.501-2.697-2.125-4.209-4.648-5.169s-4.086-0.674-5.169,1.931
	c-0.384,1.161-1.343,2.039-2.533,2.319c-0.407,0.141-0.763,0.401-1.022,0.746c-2.043,2.523-0.388,5.496-0.97,8.172
	c0,0.174,0.123,0.378,0.194,0.572c0.266,0.766,0.49,1.553,0.827,2.278c0.394,0.823,0.352,1.789-0.112,2.574
	c-0.541,1.093-1.022,2.207-1.594,3.31c-4.097-7.01-5.618-15.229-4.301-23.241c0.159,0.611,0.519,1.151,1.022,1.532
	c0.684,0.409,1.226,0.48,1.583-0.439c0.358-0.919,0.909-1.818,1.267-2.768c0.258-0.899,1.009-1.57,1.931-1.726
	c1.103-0.184,2.207-0.398,3.33-0.49c0.721-0.111,1.458-0.059,2.155,0.153c1.951,0.797,3.187,0.449,4.331-1.338
	c0.281-0.372,0.654-0.665,1.083-0.848c1.604-0.776,3.259-1.461,4.863-2.247c2.827-1.378,5.879-2.237,9.01-2.533
	c2.83-0.266,5.108-1.686,7.56-2.196c-0.85-0.691-1.593-1.503-2.207-2.411c-0.355-0.943-1.1-1.688-2.043-2.043
	c-0.817-0.306-1.543-0.848-2.37-1.022c-0.787-0.158-1.588-0.226-2.39-0.204c-0.82,0.036-1.642-0.012-2.452-0.143
	c-0.827-0.215-1.553-0.807-2.37-1.022c-1.614-0.501-2.043-1.737-2.247-3.279l7.978-2.82c2.533-0.899,4.015-0.225,4.873,2.319
	c0.158,0.67,0.247,1.355,0.266,2.043l0.593-0.286l1.931-0.123c0.586-1.015,0.586-2.265,0-3.279
	c-0.189-0.307-0.435-0.574-0.725-0.787c-0.663-0.496-1.193-1.149-1.543-1.9c-0.193-0.494-0.506-0.933-0.909-1.277
	c1.903,0.004,3.803,0.164,5.68,0.48c1.9,0.776,3.3,1.89,3.637,4.086c0,0.215,0.398,0.409,0.644,0.572
	c2.339,1.461,2.84,3.136,1.665,5.659C58.981,21.463,58.48,22.452,57.928,23.413z"/>
</svg>
