<?xml version="1.0" encoding="utf-8"?>
<!-- Generator: Adobe Illustrator 17.0.0, SVG Export Plug-In . SVG Version: 6.00 Build 0)  -->
<!DOCTYPE svg PUBLIC "-//W3C//DTD SVG 1.1//EN" "http://www.w3.org/Graphics/SVG/1.1/DTD/svg11.dtd">
<svg version="1.1" xmlns="http://www.w3.org/2000/svg" xmlns:xlink="http://www.w3.org/1999/xlink" x="0px" y="0px" width="100px"
	 height="100px" viewBox="0 0 100 100" enable-background="new 0 0 100 100" xml:space="preserve">
<g id="Layer_1" display="none">
	<rect display="inline" width="100" height="100"/>
</g>
<g id="Layer_2">
	<g>
		<path fill="#FFFFFF" d="M60.96,21.406c-1.532,0-2.733-0.468-3.572-1.389c-1.215-1.336-1.191-3.118-1.125-3.823
			c0.117-1.242,0.287-2.493,0.451-3.702c0.521-3.836,1.012-7.46,0.029-11.083c-0.161-0.596,0.19-1.209,0.786-1.371
			c0.598-0.159,1.209,0.191,1.371,0.786c1.101,4.06,0.556,8.08,0.028,11.968c-0.161,1.188-0.327,2.416-0.441,3.613
			c-0.062,0.658,0.05,1.556,0.552,2.108c0.397,0.436,1.043,0.658,1.919,0.658c1.428,0,2.938-1.441,2.938-2.804
			c0-0.617,0.501-1.117,1.117-1.117c0.617,0,1.117,0.501,1.117,1.117C66.133,18.957,63.619,21.406,60.96,21.406z"/>
		<path fill="#FFFFFF" d="M42.221,6.005H37.38c-0.922,0-1.676,0.433-1.676,1.047s0.754,1.102,1.675,1.126l4.742,0.174
			C42.188,7.542,42.226,6.564,42.221,6.005z"/>
		<path fill="#FFFFFF" d="M61.217,6.005c0.004,0.559-0.044,1.863-0.125,2.816l18.185,0.397V6.005H61.217z"/>
		<path fill="#FFFFFF" d="M60.743,1.383c0.211,0.968,0.341,1.829,0.41,2.946h18.124V0.838L60.743,1.383z"/>
		<path fill="#FFFFFF" d="M41.72,1.918c-0.004-0.016-0.004-0.066-0.008-0.082L37.379,1.93c-0.921,0.023-1.675,0.607-1.675,1.221
			s0.754,1.178,1.676,1.178h4.758C42.061,3.212,41.929,2.689,41.72,1.918z"/>
		<path fill="#FFFFFF" d="M42.884,22.206h2.259c-0.478-3.071-0.061-6.166,0.379-9.414c0.527-3.888,1.072-7.908-0.029-11.968
			c-0.161-0.595-0.773-0.945-1.371-0.786c-0.596,0.162-0.947,0.775-0.786,1.371c0.983,3.623,0.491,7.247-0.029,11.083
			C42.879,15.658,42.438,18.913,42.884,22.206z"/>
		<path fill="#FFFFFF" d="M47.354,22.206h2.259c-0.478-3.071-0.061-6.166,0.379-9.414c0.527-3.888,1.072-7.908-0.029-11.968
			c-0.161-0.595-0.774-0.945-1.371-0.786c-0.596,0.162-0.947,0.775-0.786,1.371c0.983,3.623,0.491,7.247-0.029,11.083
			C47.348,15.658,46.907,18.913,47.354,22.206z"/>
		<path fill="#FFFFFF" d="M51.823,22.206h2.259c-0.478-3.071-0.061-6.166,0.379-9.414c0.527-3.888,1.072-7.908-0.029-11.968
			c-0.161-0.595-0.773-0.945-1.371-0.786c-0.596,0.162-0.947,0.775-0.786,1.371c0.983,3.623,0.491,7.247-0.029,11.083
			C51.817,15.658,51.376,18.913,51.823,22.206z"/>
		<path fill="#FFFFFF" d="M79.277,23.881H29c0,9.871,7.572,18.228,17.318,19.35v3.554c0,1.234,1.001,2.235,2.235,2.235h11.173
			c1.234,0,2.235-1.001,2.235-2.235v-3.52C71.705,42.139,79.277,33.753,79.277,23.881z"/>
	</g>
	<g>
		<rect x="84.359" y="23.929" fill="#FFFFFF" width="8.148" height="5.185"/>
		<path fill="#FFFFFF" d="M98.433,94.296c0,1.481-1.481,3.704-3.703,3.704c-2.964,0-9.63,0-12.594,0
			c-2.221,0-3.703-2.222-3.703-3.704c0-8.889,0-31.11,0-42.221c0-5.184,5.926-5.925,5.926-8.147c0-2.962,0-11.851,0-11.851h8.148
			c0,0,0,8.889,0,11.851c0,2.222,5.926,2.963,5.926,8.147C98.433,61.705,98.433,84.667,98.433,94.296z"/>
	</g>
	<g>
		<g transform="translate(0.000000, -1.000000)">
			<path fill="#FFFFFF" d="M19.928,52.39c-2.98,0.542-5.929,1.584-8.694,3.251c-4.212,2.538-7.658,6.325-10.05,11.514
				c-0.464,1.007-0.02,2.2,0.989,2.658l22.005,10.002c0.526,0.239,1.13,0.239,1.656,0l22.005-10.002
				c1.009-0.459,1.453-1.651,0.989-2.658c-2.391-5.189-5.837-8.976-10.05-11.514c-2.765-1.666-5.714-2.709-8.694-3.251
				c-1.973-0.359-3.677-0.455-4.972-0.403C23.605,51.936,21.901,52.031,19.928,52.39z M25.006,75.797L5.728,67.035
				c1.964-3.526,4.53-6.135,7.57-7.967c2.323-1.4,4.818-2.282,7.345-2.741c1.664-0.303,3.08-0.382,4.099-0.342
				c0.067,0.003,0.413,0.005,0.413,0.005c1.132-0.046,2.548,0.034,4.212,0.336c2.528,0.46,5.022,1.341,7.345,2.741
				c3.04,1.832,5.607,4.441,7.57,7.967L25.006,75.797z"/>
			<path fill="#FFFFFF" d="M23.005,77.995v6.001c0,1.105,0.896,2,2,2c1.105,0,2-0.896,2-2v-6.001c0-1.105-0.896-2-2-2
				C23.901,75.995,23.005,76.89,23.005,77.995z"/>
			<path fill="#FFFFFF" d="M21.005,93.999h8.002c1.105,0,2-0.896,2-2v-8.002c0-1.105-0.896-2-2-2h-8.002c-1.105,0-2,0.896-2,2v8.002
				C19.004,93.103,19.9,93.999,21.005,93.999z M23.005,89.998v-4.001h4.001v4.001H23.005z"/>
			<path fill="#FFFFFF" d="M23.005,91.998V98c0,1.105,0.896,2,2,2c1.105,0,2-0.896,2-2v-6.001c0-1.105-0.896-2-2-2
				C23.901,89.998,23.005,90.893,23.005,91.998z"/>
			<path fill="#FFFFFF" d="M27.006,77.995V53.996c0-1.105-0.896-2-2-2c-1.105,0-2,0.896-2,2v23.999c0,1.105,0.896,2,2,2
				C26.111,79.996,27.006,79.1,27.006,77.995z"/>
			<path fill="#FFFFFF" d="M11.288,59.02L23.29,79.024c0.568,0.947,1.797,1.255,2.745,0.686c0.947-0.568,1.255-1.797,0.686-2.745
				L14.718,56.962c-0.568-0.947-1.797-1.255-2.745-0.686C11.027,56.844,10.719,58.073,11.288,59.02z"/>
			<path fill="#FFFFFF" d="M35.293,56.962L23.29,76.966c-0.568,0.947-0.261,2.176,0.686,2.745c0.947,0.568,2.176,0.261,2.745-0.686
				L38.724,59.02c0.568-0.947,0.261-2.176-0.686-2.745S35.861,56.014,35.293,56.962z"/>
		</g>
	</g>
</g>
</svg>
