<?xml version="1.0" encoding="utf-8"?>
<!-- Generator: Adobe Illustrator 17.0.0, SVG Export Plug-In . SVG Version: 6.00 Build 0)  -->
<!DOCTYPE svg PUBLIC "-//W3C//DTD SVG 1.1//EN" "http://www.w3.org/Graphics/SVG/1.1/DTD/svg11.dtd">
<svg version="1.1" id="Layer_1" xmlns="http://www.w3.org/2000/svg" xmlns:xlink="http://www.w3.org/1999/xlink" x="0px" y="0px"
	 width="250px" height="250px" viewBox="0 0 250 250" enable-background="new 0 0 250 250" xml:space="preserve">
<g>
	<g>
		<defs>
			<path id="SVGID_1_" d="M117.358,17.957h17.038c1.078,0.288,2.13,0.723,3.229,0.839c17.255,1.806,33.224,7.342,47.515,17.294
				c24.424,17.023,39.004,40.037,40.35,70.509c1.039,23.56-6.815,44.506-19.939,63.541c-19.479,28.244-45.781,48.626-75.073,65.442
				c-1.308,0.748-2.488,1.72-3.731,2.581h-0.852v-36.777c-1.776-0.099-2.901-0.185-4.025-0.224
				c-19.905-0.667-38.246-6.417-54.858-17.483C32.875,160.922,17.814,120.503,30.409,83.42C41.688,50.213,65.903,30.859,98.68,21.63
				C104.771,19.914,111.126,19.157,117.358,17.957z"/>
		</defs>
		<clipPath id="SVGID_2_">
			<use xlink:href="#SVGID_1_"  overflow="visible"/>
		</clipPath>
		<path clip-path="url(#SVGID_2_)" fill="none" stroke="#FFFFFF" stroke-width="20" stroke-miterlimit="10" d="M117.358,17.957
			h17.038c1.078,0.288,2.13,0.723,3.229,0.839c17.255,1.806,33.224,7.342,47.515,17.294c24.424,17.023,39.004,40.037,40.35,70.509
			c1.039,23.56-6.815,44.506-19.939,63.541c-19.479,28.244-45.781,48.626-75.073,65.442c-1.308,0.748-2.488,1.72-3.731,2.581h-0.852
			v-36.777c-1.776-0.099-2.901-0.185-4.025-0.224c-19.905-0.667-38.246-6.417-54.858-17.483
			C32.875,160.922,17.814,120.503,30.409,83.42C41.688,50.213,65.903,30.859,98.68,21.63
			C104.771,19.914,111.126,19.157,117.358,17.957z"/>
		<use xlink:href="#SVGID_1_"  overflow="visible" fill="none" stroke="#FFFFFF" stroke-miterlimit="10"/>
	</g>
</g>
<g>
	<g>
		<defs>
			<path id="SVGID_3_" d="M201.466,144.748c-1.398-10.222-3.543-20.201-6.366-29.888c4.997-7.798,9.634-15.967,13.805-24.556
				c1.009,5.275,1.574,10.699,1.574,16.259C210.479,120.298,207.183,133.236,201.466,144.748z M190.363,161.777
				c-4.545-3.664-9.267-7.199-14.074-10.664c0.875-1.853,1.405-3.906,1.405-6.095c0-1.96-0.402-3.842-1.115-5.546
				c4.672-5.368,9.197-10.906,13.361-16.851c2.717,10.485,4.581,21.299,5.583,32.369
				C193.921,157.336,192.191,159.596,190.363,161.777z M147.556,189.128c-4.122-4.619-8.046-9.374-11.526-14.377
				c7.785-4.926,15.161-10.471,22.134-16.566c1.666,0.699,3.494,1.083,5.42,1.083c3.063,0,5.879-1.012,8.187-2.687
				c4.736,3.414,9.373,6.879,13.841,10.471C175.231,177.523,162.145,185.193,147.556,189.128z M125.783,192.1
				c-6.719,0-13.227-0.877-19.494-2.381c8.23-3.172,16.149-6.914,23.694-11.262c2.957,4.277,6.155,8.411,9.549,12.41
				C135.057,191.615,130.476,192.1,125.783,192.1z M94.988,186.162c-7.721-3.058-14.885-7.221-21.315-12.317
				c1.75-14.983,2.703-30.516,2.703-46.468c0-3.307-0.148-6.544-0.233-9.808c3.204-0.891,5.964-2.851,7.82-5.531
				c3.981,1.312,7.947,2.716,11.921,4.213c-0.318,1.169-0.529,2.395-0.529,3.671c0,7.763,6.14,14.042,13.777,14.221
				c0.318,1.141,0.586,2.295,0.939,3.436c3.804,12.36,9.352,23.943,16.163,34.835c-9.02,5.175-18.52,9.559-28.543,12.952
				C96.802,185.67,95.885,185.877,94.988,186.162z M67.229,168.221c-9.853-9.552-17.419-21.441-21.809-34.814
				c5.922-6.08,12.457-11.904,19.346-17.564c1.306,0.863,2.774,1.49,4.348,1.868c0.092,3.215,0.198,6.415,0.198,9.666
				C69.318,141.355,68.584,155.005,67.229,168.221z M41.086,106.562c0-1.811,0.155-3.578,0.268-5.36
				c5.646,0.977,11.321,2.174,17.017,3.5c0.127,2.167,0.72,4.177,1.694,5.981c-5.893,4.861-11.568,9.83-16.77,14.998
				C41.898,119.521,41.086,113.142,41.086,106.562z M61.766,50.735c2.59,12.695,4.383,26.103,5.653,39.861
				c-3.388,1.304-6.133,3.871-7.693,7.142c-5.9-1.376-11.787-2.63-17.631-3.635C44.481,77.665,51.469,62.753,61.766,50.735z
				 M119.416,21.353c-6.74,15.254-11.307,30.608-13.763,45.884c-6.952,0.884-12.359,6.815-12.359,14.085
				c0,1.832,0.374,3.564,0.995,5.175c-4.023,2.431-7.926,4.926-11.752,7.499c-2.096-2.181-4.877-3.657-7.99-4.127
				c-1.468-15.717-3.776-30.9-6.959-45.278C81.324,31.41,99.393,22.864,119.416,21.353z M127.088,21.581
				c9.472,8.19,18.118,17.293,25.917,27.13c-2.717,2.595-4.425,6.251-4.425,10.321c0,0.414,0.085,0.791,0.12,1.19
				c-10.305,3.935-20.228,8.233-29.749,12.93c-1.553-2.238-3.713-3.999-6.253-5.032C115.238,52.645,119.995,37.049,127.088,21.581z
				 M187.103,47.727c-4.256,1.112-8.364,2.424-12.514,3.671c-2.506-3.97-6.882-6.622-11.886-6.622c-1.165,0-2.28,0.185-3.367,0.449
				c-6.458-8.247-13.516-16.003-21.125-23.174C157.332,24.91,174.37,34.197,187.103,47.727z M172.147,133.763
				c-2.386-1.86-5.329-3.008-8.568-3.008c-4.298,0-8.096,1.975-10.686,5.04c-7.058-4.227-14.25-8.319-21.739-12.082
				c-2.513-1.262-5.054-2.452-7.594-3.635c0-0.057,0.021-0.107,0.021-0.164c0-7.256-5.385-13.18-12.323-14.078
				c-0.311-3.557-0.501-7.121-0.551-10.706c6.197-1.511,10.813-7.107,10.813-13.829c0-0.584-0.113-1.148-0.169-1.711
				c9.437-4.655,19.275-8.96,29.51-12.852c2.505,3.928,6.867,6.537,11.843,6.537c2.209,0,4.27-0.556,6.133-1.476
				c7.7,13.116,14.024,27.137,18.612,41.949C182.727,120.861,177.546,127.448,172.147,133.763z M121.597,127.091
				c2.139,1.012,4.291,1.939,6.416,3.015c7.503,3.757,14.688,7.877,21.725,12.118c-0.176,0.905-0.275,1.839-0.275,2.794
				c0,3.229,1.101,6.18,2.894,8.568c-6.387,5.496-13.015,10.671-20.094,15.147c-6.522-10.407-11.836-21.47-15.457-33.274
				c-0.303-0.991-0.487-1.996-0.762-2.994C118.358,131.219,120.277,129.365,121.597,127.091z M99.407,109.934
				c-4.327-1.654-8.674-3.215-13.022-4.676c0.042-0.456,0.141-0.898,0.141-1.362c0-1.34-0.24-2.602-0.579-3.828
				c4.03-2.702,8.173-5.318,12.436-7.877c1.51,1.283,3.275,2.238,5.223,2.794c0.056,3.928,0.247,7.841,0.607,11.733
				C102.385,107.453,100.755,108.544,99.407,109.934z M206.103,79.611c-4.129,9.259-8.688,18.141-13.77,26.524
				c-4.665-13.707-10.785-26.716-18.068-38.962c1.602-2.302,2.548-5.104,2.548-8.14c0-0.292-0.071-0.563-0.092-0.848
				c5.145-1.532,10.269-3.094,15.556-4.412C198.268,61.441,202.983,70.152,206.103,79.611z M217.664,70.002
				c-1.214-3.108-2.562-6.123-4.065-9.06c-1.877-3.678-3.924-7.242-6.218-10.635c-1.461-2.16-3.035-4.248-4.651-6.28
				c-16.438-20.6-40.781-34.429-68.392-36.824c-2.576-0.221-5.166-0.378-7.799-0.392c-0.261-0.007-0.501-0.043-0.755-0.043
				c-1.821,0-3.593,0.178-5.385,0.278c-3.578,0.193-7.107,0.57-10.58,1.141c-17.278,2.837-33.074,10.122-46.11,20.779
				c-1.997,1.632-3.903,3.386-5.766,5.168C42.209,49.174,31.41,69.361,28.128,92.049c-0.339,2.338-0.614,4.69-0.783,7.085
				c-0.184,2.466-0.374,4.918-0.374,7.427c0,10.913,1.793,21.399,5.004,31.228c0.826,2.53,1.694,5.054,2.717,7.492
				c6.606,15.824,17.179,29.496,30.392,39.918c2.075,1.632,4.171,3.215,6.366,4.676c0.805,0.542,1.659,1.019,2.491,1.533
				c3.098,1.932,6.31,3.692,9.62,5.275c12.817,6.137,27.096,9.673,42.221,9.673c8.71,0,17.116-1.255,25.162-3.393
				c2.668-0.713,5.279-1.518,7.849-2.445c14.292-5.125,27.103-13.408,37.506-24.122c0.071-0.071,0.127-0.15,0.191-0.214
				c1.645-1.704,3.226-3.457,4.743-5.275c0.72-0.848,1.39-1.732,2.082-2.616c13.283-16.986,21.273-38.399,21.273-61.73
				C224.595,93.646,222.089,81.336,217.664,70.002z"/>
		</defs>
		<use xlink:href="#SVGID_3_"  overflow="visible" fill="#FFFFFF"/>
		<clipPath id="SVGID_4_">
			<use xlink:href="#SVGID_3_"  overflow="visible"/>
		</clipPath>
		<rect x="21.154" y="0.952" clip-path="url(#SVGID_4_)" fill="#FFFFFF" width="209.249" height="211.22"/>
	</g>
</g>
<g>
	<g>
		<defs>
			<path id="SVGID_5_" d="M129.011,205.799v27.014c0,0,41.788-20.086,51.282-38.746c4.419-8.684-12.326,2.593-25.138,7.149
				C140.438,206.45,129.011,205.799,129.011,205.799z"/>
		</defs>
		<use xlink:href="#SVGID_5_"  overflow="visible" fill="#FFFFFF"/>
		<clipPath id="SVGID_6_">
			<use xlink:href="#SVGID_5_"  overflow="visible"/>
		</clipPath>
		<rect x="123.195" y="185.056" clip-path="url(#SVGID_6_)" fill="#FFFFFF" width="63.638" height="53.573"/>
	</g>
</g>
</svg>
