<?xml version="1.0" encoding="utf-8"?>
<!-- Generator: Adobe Illustrator 17.0.0, SVG Export Plug-In . SVG Version: 6.00 Build 0)  -->
<!DOCTYPE svg PUBLIC "-//W3C//DTD SVG 1.1//EN" "http://www.w3.org/Graphics/SVG/1.1/DTD/svg11.dtd">
<svg version="1.1" id="Layer_1" xmlns="http://www.w3.org/2000/svg" xmlns:xlink="http://www.w3.org/1999/xlink" x="0px" y="0px"
	 width="360px" height="664px" viewBox="0 0 360 664" enable-background="new 0 0 360 664" xml:space="preserve">
<g>
	<g>
		<defs>
			<path id="SVGID_1_" d="M23.245,64.405v501.603H337.37V64.405C337.37,64.405,23.245,64.405,23.245,64.405z M0.309,41.473
				c0-22.033,17.864-39.894,39.888-39.894h279.224c22.03,0,39.888,17.862,39.888,39.894v558.435
				c0,22.033-17.864,39.894-39.888,39.894H40.197c-22.03,0-39.888-17.862-39.888-39.894C0.309,599.908,0.309,41.473,0.309,41.473z"
				/>
		</defs>
		<use xlink:href="#SVGID_1_"  overflow="visible" fill="#FFFFFF"/>
		<clipPath id="SVGID_2_">
			<use xlink:href="#SVGID_1_"  overflow="visible"/>
		</clipPath>
		<g clip-path="url(#SVGID_2_)">
			<g>
				<defs>
					<rect id="SVGID_3_" x="-538.191" y="-5976.768" width="1436" height="7043.381"/>
				</defs>
				<use xlink:href="#SVGID_3_"  overflow="visible" fill="#FFFFFF"/>
				<clipPath id="SVGID_4_">
					<use xlink:href="#SVGID_3_"  overflow="visible"/>
				</clipPath>
				
					<rect x="-4.677" y="-3.406" clip-path="url(#SVGID_4_)" fill="#FFFFFF" stroke="#444444" stroke-width="0.5" stroke-miterlimit="10" width="368.972" height="648.194"/>
				<use xlink:href="#SVGID_3_"  overflow="visible" fill="none" stroke="#444444" stroke-width="0.5" stroke-miterlimit="10"/>
			</g>
		</g>
		<use xlink:href="#SVGID_1_"  overflow="visible" fill="none" stroke="#444444" stroke-width="0.5" stroke-miterlimit="10"/>
	</g>
</g>
<g>
	<defs>
		<path id="SVGID_5_" d="M37.426,400.885c0-6.564,5.316-11.885,11.878-11.885h261.392c6.56,0,11.878,5.313,11.878,11.885v23.754
			c0,6.564-5.316,11.885-11.878,11.885H49.304c-6.56,0-11.878-5.313-11.878-11.885V400.885z"/>
	</defs>
	<clipPath id="SVGID_6_">
		<use xlink:href="#SVGID_5_"  overflow="visible"/>
	</clipPath>
	<rect x="33.465" y="385.04" clip-path="url(#SVGID_6_)" fill="#FFFFFF" width="293.069" height="55.446"/>
</g>
<g>
	<defs>
		<circle id="SVGID_7_" cx="66.733" cy="412.762" r="15.842"/>
	</defs>
	<clipPath id="SVGID_8_">
		<use xlink:href="#SVGID_7_"  overflow="visible"/>
	</clipPath>
	<rect x="46.931" y="392.96" clip-path="url(#SVGID_8_)" fill="#DDDDDD" width="39.604" height="39.604"/>
</g>
<circle fill="none" stroke="#979797" stroke-width="0.5" stroke-miterlimit="10" cx="66.733" cy="412.762" r="15.842"/>
<g>
	<defs>
		<circle id="SVGID_9_" cx="286.931" cy="412.762" r="15.842"/>
	</defs>
	<clipPath id="SVGID_10_">
		<use xlink:href="#SVGID_9_"  overflow="visible"/>
	</clipPath>
	<rect x="267.129" y="392.96" clip-path="url(#SVGID_10_)" fill="#DDDDDD" width="39.604" height="39.604"/>
</g>
<circle fill="none" stroke="#979797" stroke-width="0.5" stroke-miterlimit="10" cx="286.931" cy="412.762" r="15.842"/>
<path fill="#444444" d="M93.592,399.775h1.172v2.541h0.024l1.94-2.541h1.29l-1.789,2.304l2.106,3.554h-1.29l-1.512-2.628
	l-0.768,0.982v1.647h-1.172V399.775z M98.82,399.855c0-0.38,0.293-0.633,0.697-0.633c0.396,0,0.689,0.253,0.689,0.633
	c0,0.364-0.293,0.633-0.689,0.633C99.112,400.488,98.82,400.219,98.82,399.855z M98.93,401.2h1.156v4.433H98.93V401.2z
	 M101.117,404.43c0-0.95,0.768-1.449,2.549-1.639c-0.016-0.435-0.206-0.768-0.752-0.768c-0.412,0-0.807,0.182-1.219,0.42
	l-0.42-0.768c0.522-0.325,1.156-0.586,1.852-0.586c1.124,0,1.702,0.673,1.702,1.955v2.589h-0.95l-0.087-0.475h-0.024
	c-0.388,0.332-0.831,0.586-1.338,0.586C101.639,405.745,101.117,405.182,101.117,404.43z M103.666,404.399v-0.895
	c-1.077,0.142-1.441,0.435-1.441,0.831c0,0.348,0.245,0.499,0.586,0.499C103.143,404.834,103.389,404.676,103.666,404.399z"/>
<path fill="#888888" d="M95.126,419.333l-2.265-4.613h1.019l0.968,2.132c0.247,0.556,0.474,1.081,0.741,1.648h0.041
	c0.268-0.566,0.525-1.092,0.752-1.648l0.978-2.132h0.989l-2.265,4.613v2.935h-0.958V419.333z M98.864,419.477
	c0-1.864,1.225-2.945,2.595-2.945c1.37,0,2.595,1.081,2.595,2.945c0,1.854-1.225,2.924-2.595,2.924
	C100.09,422.401,98.864,421.33,98.864,419.477z M103.086,419.477c0-1.287-0.659-2.162-1.627-2.162s-1.617,0.875-1.617,2.162
	c0,1.287,0.649,2.142,1.617,2.142S103.086,420.764,103.086,419.477z M105.454,420.218v-3.542h0.937v3.429
	c0,1.04,0.309,1.483,1.05,1.483c0.577,0,0.978-0.278,1.514-0.947v-3.964h0.937v5.591h-0.783l-0.072-0.875h-0.031
	c-0.525,0.608-1.081,1.009-1.854,1.009C105.98,422.401,105.454,421.639,105.454,420.218z M113.455,421.629l0.463-0.618
	c0.484,0.391,0.989,0.659,1.658,0.659c0.741,0,1.102-0.391,1.102-0.875c0-0.566-0.659-0.824-1.277-1.061
	c-0.783-0.288-1.668-0.669-1.668-1.617c0-0.886,0.711-1.586,1.926-1.586c0.69,0,1.297,0.288,1.74,0.628l-0.453,0.608
	c-0.391-0.288-0.783-0.494-1.287-0.494c-0.7,0-1.019,0.371-1.019,0.803c0,0.535,0.608,0.731,1.236,0.968
	c0.813,0.309,1.709,0.638,1.709,1.699c0,0.906-0.721,1.658-2.039,1.658C114.753,422.401,113.991,422.072,113.455,421.629z
	 M118.902,414.071h0.937v2.245l-0.031,1.153c0.515-0.515,1.092-0.937,1.854-0.937c1.174,0,1.709,0.762,1.709,2.193v3.542h-0.937
	v-3.419c0-1.05-0.319-1.493-1.061-1.493c-0.577,0-0.968,0.288-1.534,0.855v4.057h-0.937V414.071z M124.73,419.477
	c0-1.864,1.225-2.945,2.595-2.945s2.595,1.081,2.595,2.945c0,1.854-1.225,2.924-2.595,2.924S124.73,421.33,124.73,419.477z
	 M128.952,419.477c0-1.287-0.659-2.162-1.627-2.162s-1.617,0.875-1.617,2.162c0,1.287,0.649,2.142,1.617,2.142
	S128.952,420.764,128.952,419.477z M131.32,420.218v-3.542h0.937v3.429c0,1.04,0.309,1.483,1.05,1.483
	c0.577,0,0.978-0.278,1.514-0.947v-3.964h0.937v5.591h-0.783l-0.072-0.875h-0.031c-0.525,0.608-1.081,1.009-1.854,1.009
	C131.846,422.401,131.32,421.639,131.32,420.218z M137.643,421.155v-7.085h0.937v7.146c0,0.288,0.124,0.402,0.268,0.402
	c0.051,0,0.093,0,0.196-0.021l0.134,0.721c-0.134,0.051-0.299,0.082-0.546,0.082C137.931,422.401,137.643,421.948,137.643,421.155z
	 M140.176,419.477c0-1.812,1.143-2.945,2.42-2.945c0.659,0,1.081,0.247,1.576,0.659l-0.051-0.968v-2.152h0.937v8.197h-0.762
	l-0.093-0.659h-0.021c-0.443,0.432-1.03,0.793-1.699,0.793C141.082,422.401,140.176,421.341,140.176,419.477z M144.12,420.846
	v-2.935c-0.474-0.422-0.896-0.587-1.359-0.587c-0.906,0-1.617,0.865-1.617,2.142c0,1.349,0.556,2.152,1.545,2.152
	C143.203,421.619,143.656,421.361,144.12,420.846z M148.836,423.338c0-0.474,0.309-0.927,0.834-1.267v-0.041
	c-0.299-0.175-0.515-0.474-0.515-0.916c0-0.463,0.34-0.834,0.628-1.04v-0.041c-0.371-0.299-0.731-0.834-0.731-1.503
	c0-1.225,0.968-1.998,2.101-1.998c0.309,0,0.587,0.072,0.783,0.144h1.946v0.721h-1.143c0.268,0.257,0.453,0.669,0.453,1.153
	c0,1.194-0.906,1.946-2.039,1.946c-0.278,0-0.587-0.072-0.834-0.196c-0.206,0.175-0.36,0.36-0.36,0.669
	c0,0.36,0.227,0.608,0.978,0.608h1.092c1.297,0,1.946,0.412,1.946,1.328c0,1.04-1.092,1.936-2.821,1.936
	C149.783,424.842,148.836,424.306,148.836,423.338z M153.068,423.05c0-0.515-0.402-0.69-1.143-0.69h-0.968
	c-0.206,0-0.474-0.031-0.721-0.093c-0.402,0.288-0.577,0.618-0.577,0.947c0,0.597,0.608,0.989,1.627,0.989
	C152.357,424.203,153.068,423.637,153.068,423.05z M152.337,418.529c0-0.813-0.525-1.308-1.184-1.308
	c-0.659,0-1.195,0.484-1.195,1.308c0,0.814,0.546,1.328,1.195,1.328C151.791,419.858,152.337,419.343,152.337,418.529z
	 M154.643,419.477c0-1.864,1.225-2.945,2.595-2.945s2.595,1.081,2.595,2.945c0,1.854-1.225,2.924-2.595,2.924
	S154.643,421.33,154.643,419.477z M158.865,419.477c0-1.287-0.659-2.162-1.627-2.162s-1.617,0.875-1.617,2.162
	c0,1.287,0.649,2.142,1.617,2.142S158.865,420.764,158.865,419.477z M163.179,423.338c0-0.474,0.309-0.927,0.834-1.267v-0.041
	c-0.299-0.175-0.515-0.474-0.515-0.916c0-0.463,0.34-0.834,0.628-1.04v-0.041c-0.371-0.299-0.731-0.834-0.731-1.503
	c0-1.225,0.968-1.998,2.101-1.998c0.309,0,0.587,0.072,0.783,0.144h1.946v0.721h-1.143c0.268,0.257,0.453,0.669,0.453,1.153
	c0,1.194-0.906,1.946-2.039,1.946c-0.278,0-0.587-0.072-0.834-0.196c-0.206,0.175-0.36,0.36-0.36,0.669
	c0,0.36,0.227,0.608,0.978,0.608h1.092c1.297,0,1.946,0.412,1.946,1.328c0,1.04-1.092,1.936-2.822,1.936
	C164.127,424.842,163.179,424.306,163.179,423.338z M167.412,423.05c0-0.515-0.402-0.69-1.143-0.69h-0.968
	c-0.206,0-0.474-0.031-0.721-0.093c-0.402,0.288-0.577,0.618-0.577,0.947c0,0.597,0.608,0.989,1.627,0.989
	C166.701,424.203,167.412,423.637,167.412,423.05z M166.681,418.529c0-0.813-0.525-1.308-1.184-1.308
	c-0.659,0-1.194,0.484-1.194,1.308c0,0.814,0.546,1.328,1.194,1.328C166.135,419.858,166.681,419.343,166.681,418.529z
	 M169.409,416.676h0.772l0.082,1.019h0.031c0.391-0.711,0.958-1.164,1.586-1.164c0.247,0,0.422,0.031,0.597,0.124l-0.175,0.824
	c-0.185-0.072-0.319-0.093-0.546-0.093c-0.463,0-1.04,0.33-1.411,1.287v3.594h-0.937V416.676z M173.054,420.815
	c0-1.215,1.061-1.823,3.439-2.09c0-0.721-0.237-1.411-1.153-1.411c-0.649,0-1.236,0.299-1.678,0.597l-0.371-0.649
	c0.515-0.33,1.308-0.731,2.204-0.731c1.359,0,1.936,0.916,1.936,2.296v3.439h-0.772l-0.082-0.669h-0.031
	c-0.535,0.443-1.164,0.803-1.854,0.803C173.755,422.401,173.054,421.825,173.054,420.815z M176.494,420.908v-1.565
	c-1.884,0.227-2.523,0.69-2.523,1.411c0,0.638,0.432,0.896,0.989,0.896C175.505,421.649,175.948,421.392,176.494,420.908z
	 M179.212,416.676h0.772l0.082,0.803h0.031c0.535-0.525,1.112-0.947,1.874-0.947c1.174,0,1.709,0.762,1.709,2.193v3.542h-0.937
	v-3.419c0-1.05-0.319-1.493-1.061-1.493c-0.577,0-0.968,0.288-1.534,0.855v4.057h-0.937V416.676z M185.102,419.477
	c0-1.812,1.143-2.945,2.42-2.945c0.659,0,1.081,0.247,1.576,0.659l-0.051-0.968v-2.152h0.937v8.197h-0.762l-0.093-0.659h-0.021
	c-0.443,0.432-1.03,0.793-1.699,0.793C186.008,422.401,185.102,421.341,185.102,419.477z M189.046,420.846v-2.935
	c-0.474-0.422-0.896-0.587-1.359-0.587c-0.906,0-1.617,0.865-1.617,2.142c0,1.349,0.556,2.152,1.545,2.152
	C188.129,421.619,188.582,421.361,189.046,420.846z M194.194,416.676h0.772l0.082,0.638h0.031c0.505-0.412,1.133-0.783,1.781-0.783
	c1.442,0,2.224,1.133,2.224,2.852c0,1.915-1.143,3.017-2.43,3.017c-0.505,0-1.04-0.237-1.545-0.649l0.021,0.978v1.895h-0.937
	V416.676z M198.107,419.394c0-1.236-0.412-2.07-1.473-2.07c-0.474,0-0.958,0.268-1.503,0.772v2.935
	c0.505,0.432,0.999,0.587,1.37,0.587C197.427,421.619,198.107,420.784,198.107,419.394z M200.228,420.815
	c0-1.215,1.061-1.823,3.439-2.09c0-0.721-0.237-1.411-1.153-1.411c-0.649,0-1.236,0.299-1.678,0.597l-0.371-0.649
	c0.515-0.33,1.308-0.731,2.204-0.731c1.359,0,1.936,0.916,1.936,2.296v3.439h-0.772l-0.082-0.669h-0.031
	c-0.535,0.443-1.164,0.803-1.854,0.803C200.928,422.401,200.228,421.825,200.228,420.815z M203.667,420.908v-1.565
	c-1.884,0.227-2.523,0.69-2.523,1.411c0,0.638,0.432,0.896,0.989,0.896C202.679,421.649,203.122,421.392,203.667,420.908z
	 M206.386,421.155v-7.085h0.937v7.146c0,0.288,0.124,0.402,0.268,0.402c0.051,0,0.093,0,0.196-0.021l0.134,0.721
	c-0.134,0.051-0.299,0.082-0.546,0.082C206.674,422.401,206.386,421.948,206.386,421.155z M208.97,420.815
	c0-1.215,1.061-1.823,3.439-2.09c0-0.721-0.237-1.411-1.153-1.411c-0.649,0-1.236,0.299-1.678,0.597l-0.371-0.649
	c0.515-0.33,1.308-0.731,2.204-0.731c1.359,0,1.936,0.916,1.936,2.296v3.439h-0.772l-0.082-0.669h-0.031
	c-0.535,0.443-1.164,0.803-1.854,0.803C209.67,422.401,208.97,421.825,208.97,420.815z M212.409,420.908v-1.565
	c-1.884,0.227-2.523,0.69-2.523,1.411c0,0.638,0.432,0.896,0.989,0.896C211.421,421.649,211.864,421.392,212.409,420.908z
	 M214.706,419.477c0-1.864,1.267-2.945,2.698-2.945c0.731,0,1.236,0.309,1.637,0.659l-0.484,0.628
	c-0.33-0.299-0.669-0.505-1.122-0.505c-1.009,0-1.751,0.875-1.751,2.162c0,1.287,0.7,2.142,1.73,2.142
	c0.515,0,0.968-0.237,1.318-0.556l0.402,0.628c-0.494,0.453-1.133,0.711-1.802,0.711
	C215.849,422.401,214.706,421.33,214.706,419.477z M219.947,419.477c0-1.812,1.225-2.945,2.523-2.945
	c1.421,0,2.224,1.03,2.224,2.626c0,0.206-0.021,0.402-0.041,0.535h-3.769c0.062,1.195,0.793,1.957,1.854,1.957
	c0.546,0,0.989-0.165,1.4-0.443l0.34,0.618c-0.494,0.319-1.092,0.577-1.854,0.577C221.141,422.401,219.947,421.32,219.947,419.477z
	 M223.87,419.024c0-1.133-0.515-1.74-1.39-1.74c-0.793,0-1.493,0.638-1.606,1.74H223.87z M228.184,417.541
	c0-0.432,0.309-0.731,0.68-0.731s0.68,0.299,0.68,0.731c0,0.412-0.309,0.711-0.68,0.711S228.184,417.953,228.184,417.541z
	 M228.184,421.691c0-0.422,0.309-0.731,0.68-0.731s0.68,0.309,0.68,0.731c0,0.422-0.309,0.711-0.68,0.711
	S228.184,422.113,228.184,421.691z M230.738,424.018c0.886-1.462,1.318-3.202,1.318-4.953c0-1.751-0.432-3.481-1.318-4.953
	l0.577-0.268c0.958,1.534,1.524,3.202,1.524,5.221c0,2.029-0.566,3.686-1.524,5.231L230.738,424.018z"/>
<path fill="#444444" d="M228.521,399.355h-2.992v-0.261h3.38v0.166c-1.37,1.829-1.686,3.333-1.773,5.581h-0.325
	C226.906,402.475,227.365,400.97,228.521,399.355z M229.568,404.375l0.182-0.23c0.348,0.301,0.736,0.538,1.354,0.538
	c0.697,0,1.053-0.404,1.053-0.879c0-0.546-0.554-0.792-1.045-0.966c-0.633-0.23-1.346-0.467-1.346-1.187
	c0-0.578,0.451-1.085,1.314-1.085c0.412,0,0.855,0.174,1.156,0.427l-0.166,0.214c-0.277-0.206-0.578-0.38-1.013-0.38
	c-0.689,0-0.997,0.396-0.997,0.807c0,0.499,0.507,0.689,1.005,0.879c0.665,0.253,1.385,0.459,1.385,1.275
	c0,0.617-0.483,1.156-1.362,1.156C230.463,404.944,229.94,404.683,229.568,404.375z M235.033,403.812
	c0-0.926,0.847-1.362,2.723-1.575c0.024-0.673-0.15-1.409-1.013-1.409c-0.594,0-1.092,0.293-1.362,0.507l-0.143-0.23
	c0.261-0.19,0.839-0.538,1.52-0.538c0.982,0,1.282,0.728,1.282,1.575v2.699h-0.237l-0.04-0.554h-0.024
	c-0.427,0.348-0.95,0.657-1.504,0.657C235.587,404.944,235.033,404.604,235.033,403.812z M237.757,403.979v-1.496
	c-1.813,0.198-2.43,0.617-2.43,1.322c0,0.641,0.427,0.879,0.934,0.879C236.759,404.683,237.21,404.446,237.757,403.979z
	 M239.223,405.712c0-0.364,0.245-0.752,0.633-1.029v-0.032c-0.214-0.127-0.372-0.348-0.372-0.665c0-0.38,0.277-0.641,0.459-0.768
	v-0.032c-0.261-0.23-0.53-0.641-0.53-1.148c0-0.847,0.633-1.472,1.433-1.472c0.238,0,0.427,0.055,0.546,0.103h1.393v0.261h-0.997
	c0.293,0.245,0.491,0.633,0.491,1.108c0,0.831-0.625,1.48-1.433,1.48c-0.237,0-0.515-0.071-0.705-0.19
	c-0.19,0.15-0.364,0.348-0.364,0.633c0,0.317,0.174,0.578,0.815,0.578h0.926c0.918,0,1.338,0.293,1.338,0.934
	c0,0.705-0.752,1.401-1.924,1.401C239.873,406.876,239.223,406.409,239.223,405.712z M242.564,405.507
	c0-0.491-0.348-0.681-1.005-0.681h-0.95c-0.055,0-0.277-0.016-0.507-0.071c-0.412,0.277-0.578,0.625-0.578,0.934
	c0,0.554,0.515,0.934,1.425,0.934C241.947,406.623,242.564,406.053,242.564,405.507z M241.986,402.039
	c0-0.744-0.515-1.211-1.14-1.211c-0.617,0-1.132,0.459-1.132,1.211c0,0.72,0.53,1.219,1.132,1.219
	C241.456,403.258,241.986,402.76,241.986,402.039z M243.421,402.767c0-1.401,0.855-2.201,1.852-2.201c0.997,0,1.852,0.8,1.852,2.201
	c0,1.377-0.855,2.177-1.852,2.177C244.276,404.944,243.421,404.145,243.421,402.767z M246.833,402.767c0-1.148-0.673-1.94-1.56-1.94
	c-0.887,0-1.552,0.792-1.552,1.94c0,1.14,0.665,1.916,1.552,1.916C246.161,404.683,246.833,403.907,246.833,402.767z"/>
<g>
	<defs>
		<path id="SVGID_11_" d="M37.426,457.123c0-6.564,5.316-11.885,11.878-11.885h261.392c6.56,0,11.878,5.313,11.878,11.885v23.754
			c0,6.564-5.316,11.885-11.878,11.885H49.304c-6.56,0-11.878-5.313-11.878-11.885V457.123z"/>
	</defs>
	<clipPath id="SVGID_12_">
		<use xlink:href="#SVGID_11_"  overflow="visible"/>
	</clipPath>
	<rect x="33.465" y="441.277" clip-path="url(#SVGID_12_)" fill="#FFFFFF" width="293.069" height="55.446"/>
</g>
<g>
	<defs>
		<circle id="SVGID_13_" cx="66.733" cy="469" r="15.842"/>
	</defs>
	<clipPath id="SVGID_14_">
		<use xlink:href="#SVGID_13_"  overflow="visible"/>
	</clipPath>
	<rect x="46.931" y="449.198" clip-path="url(#SVGID_14_)" fill="#DDDDDD" width="39.604" height="39.604"/>
</g>
<circle fill="none" stroke="#979797" stroke-width="0.5" stroke-miterlimit="10" cx="66.733" cy="469" r="15.842"/>
<g>
	<defs>
		<circle id="SVGID_15_" cx="286.931" cy="469" r="15.842"/>
	</defs>
	<clipPath id="SVGID_16_">
		<use xlink:href="#SVGID_15_"  overflow="visible"/>
	</clipPath>
	<rect x="267.129" y="449.198" clip-path="url(#SVGID_16_)" fill="#DDDDDD" width="39.604" height="39.604"/>
</g>
<circle fill="none" stroke="#979797" stroke-width="0.5" stroke-miterlimit="10" cx="286.931" cy="469" r="15.842"/>
<path fill="#444444" d="M93.592,456.013h1.924c1.298,0,2.296,0.451,2.296,1.837c0,1.338-1.005,1.94-2.264,1.94h-0.784v2.082h-1.172
	V456.013z M95.468,458.863c0.807,0,1.195-0.34,1.195-1.013c0-0.681-0.427-0.91-1.235-0.91h-0.665v1.924H95.468z M98.503,459.663
	c0-1.441,1.005-2.335,2.066-2.335c1.219,0,1.852,0.895,1.852,2.122c0,0.214-0.024,0.427-0.055,0.53h-2.731
	c0.095,0.728,0.57,1.108,1.227,1.108c0.364,0,0.681-0.111,0.997-0.309l0.396,0.712c-0.435,0.301-0.997,0.491-1.552,0.491
	C99.469,461.982,98.503,461.119,98.503,459.663z M101.424,459.211c0-0.602-0.269-0.982-0.839-0.982
	c-0.467,0-0.879,0.332-0.966,0.982H101.424z M103.382,457.438h0.95l0.079,0.586h0.032c0.388-0.38,0.839-0.697,1.441-0.697
	c0.958,0,1.37,0.665,1.37,1.781v2.763h-1.164v-2.62c0-0.681-0.19-0.926-0.625-0.926c-0.364,0-0.594,0.174-0.926,0.499v3.048h-1.156
	V457.438z M108.166,462.655c0-0.372,0.23-0.689,0.633-0.918v-0.04c-0.23-0.15-0.404-0.38-0.404-0.744
	c0-0.332,0.23-0.641,0.491-0.831v-0.032c-0.301-0.222-0.586-0.641-0.586-1.156c0-1.045,0.847-1.607,1.789-1.607
	c0.245,0,0.483,0.048,0.665,0.111h1.599v0.855h-0.76c0.119,0.15,0.206,0.396,0.206,0.673c0,0.997-0.76,1.504-1.71,1.504
	c-0.174,0-0.38-0.04-0.57-0.103c-0.127,0.103-0.19,0.206-0.19,0.38c0,0.237,0.174,0.364,0.697,0.364h0.752
	c1.069,0,1.647,0.332,1.647,1.108c0,0.895-0.926,1.575-2.407,1.575C108.974,463.795,108.166,463.439,108.166,462.655z
	 M111.317,462.418c0-0.317-0.261-0.396-0.736-0.396h-0.538c-0.269,0-0.459-0.024-0.617-0.063c-0.198,0.158-0.293,0.332-0.293,0.515
	c0,0.372,0.412,0.586,1.061,0.586C110.858,463.059,111.317,462.766,111.317,462.418z M110.779,458.934
	c0-0.522-0.293-0.815-0.689-0.815c-0.396,0-0.697,0.293-0.697,0.815s0.309,0.815,0.697,0.815
	C110.478,459.75,110.779,459.457,110.779,458.934z"/>
<path fill="#888888" d="M93.355,477.516l0.566-0.649c0.546,0.566,1.308,0.937,2.09,0.937c0.989,0,1.586-0.494,1.586-1.236
	c0-0.772-0.546-1.019-1.256-1.339l-1.092-0.474c-0.7-0.299-1.534-0.834-1.534-1.936c0-1.164,1.009-2.008,2.379-2.008
	c0.896,0,1.689,0.381,2.224,0.937l-0.505,0.608c-0.463-0.432-1.019-0.711-1.72-0.711c-0.855,0-1.411,0.432-1.411,1.112
	c0,0.731,0.659,1.009,1.246,1.256l1.081,0.463c0.875,0.381,1.555,0.896,1.555,2.018c0,1.195-0.989,2.142-2.564,2.142
	C94.931,478.639,94.014,478.206,93.355,477.516z M99.894,476.456v-3.542h0.937v3.429c0,1.04,0.309,1.483,1.05,1.483
	c0.577,0,0.978-0.278,1.514-0.947v-3.965h0.937v5.591h-0.783l-0.072-0.875h-0.031c-0.525,0.608-1.081,1.009-1.854,1.009
	C100.419,478.639,99.894,477.877,99.894,476.456z M106.216,472.913h0.772l0.082,1.019h0.031c0.391-0.711,0.958-1.164,1.586-1.164
	c0.247,0,0.422,0.031,0.597,0.124l-0.175,0.824c-0.185-0.072-0.319-0.093-0.546-0.093c-0.463,0-1.04,0.33-1.411,1.287v3.594h-0.937
	V472.913z M109.789,475.714c0-1.812,1.225-2.945,2.523-2.945c1.421,0,2.224,1.03,2.224,2.626c0,0.206-0.021,0.402-0.041,0.535
	h-3.769c0.062,1.194,0.793,1.957,1.854,1.957c0.546,0,0.989-0.165,1.4-0.443l0.34,0.618c-0.494,0.319-1.092,0.577-1.854,0.577
	C110.984,478.639,109.789,477.558,109.789,475.714z M113.713,475.261c0-1.133-0.515-1.74-1.39-1.74c-0.793,0-1.493,0.638-1.606,1.74
	H113.713z M117.8,475.714c0-1.864,1.267-2.945,2.698-2.945c0.731,0,1.236,0.309,1.637,0.659l-0.484,0.628
	c-0.33-0.299-0.669-0.505-1.122-0.505c-1.009,0-1.751,0.875-1.751,2.162s0.7,2.142,1.73,2.142c0.515,0,0.968-0.237,1.318-0.556
	l0.402,0.628c-0.494,0.453-1.133,0.711-1.802,0.711C118.943,478.639,117.8,477.568,117.8,475.714z M123.042,475.714
	c0-1.864,1.225-2.945,2.595-2.945c1.37,0,2.595,1.081,2.595,2.945c0,1.854-1.225,2.924-2.595,2.924
	C124.267,478.639,123.042,477.568,123.042,475.714z M127.264,475.714c0-1.287-0.659-2.162-1.627-2.162s-1.617,0.875-1.617,2.162
	s0.649,2.142,1.617,2.142S127.264,477.002,127.264,475.714z M129.632,476.456v-3.542h0.937v3.429c0,1.04,0.309,1.483,1.05,1.483
	c0.577,0,0.978-0.278,1.514-0.947v-3.965h0.937v5.591h-0.783l-0.072-0.875h-0.031c-0.525,0.608-1.081,1.009-1.854,1.009
	C130.157,478.639,129.632,477.877,129.632,476.456z M135.954,477.393v-7.085h0.937v7.146c0,0.288,0.124,0.402,0.268,0.402
	c0.051,0,0.093,0,0.196-0.021l0.134,0.721c-0.134,0.051-0.299,0.082-0.546,0.082C136.242,478.639,135.954,478.186,135.954,477.393z
	 M138.487,475.714c0-1.812,1.143-2.945,2.42-2.945c0.659,0,1.081,0.247,1.576,0.659l-0.051-0.968v-2.152h0.937v8.197h-0.762
	l-0.093-0.659h-0.021c-0.443,0.432-1.03,0.793-1.699,0.793C139.393,478.639,138.487,477.578,138.487,475.714z M142.431,477.084
	v-2.935c-0.474-0.422-0.896-0.587-1.359-0.587c-0.906,0-1.617,0.865-1.617,2.142c0,1.349,0.556,2.152,1.545,2.152
	C141.515,477.856,141.968,477.599,142.431,477.084z M147.013,480.801l0.185-0.752c0.113,0.041,0.278,0.093,0.422,0.093
	c0.638,0,1.04-0.515,1.267-1.205l0.124-0.422l-2.245-5.602h0.978l1.143,3.11c0.165,0.484,0.36,1.061,0.535,1.565h0.051
	c0.154-0.505,0.319-1.071,0.474-1.565l0.999-3.11h0.916l-2.111,6.055c-0.391,1.102-0.968,1.946-2.08,1.946
	C147.404,480.915,147.188,480.873,147.013,480.801z M152.522,475.714c0-1.864,1.225-2.945,2.595-2.945s2.595,1.081,2.595,2.945
	c0,1.854-1.225,2.924-2.595,2.924S152.522,477.568,152.522,475.714z M156.744,475.714c0-1.287-0.659-2.162-1.627-2.162
	s-1.617,0.875-1.617,2.162s0.649,2.142,1.617,2.142S156.744,477.002,156.744,475.714z M159.112,476.456v-3.542h0.937v3.429
	c0,1.04,0.309,1.483,1.05,1.483c0.577,0,0.978-0.278,1.514-0.947v-3.965h0.937v5.591h-0.783l-0.072-0.875h-0.031
	c-0.525,0.608-1.081,1.009-1.854,1.009C159.637,478.639,159.112,477.877,159.112,476.456z M168.606,477.928h-0.031l-0.082,0.577
	h-0.752v-8.197h0.937v2.245l-0.031,1.009c0.505-0.443,1.133-0.793,1.751-0.793c1.452,0,2.235,1.133,2.235,2.842
	c0,1.926-1.143,3.027-2.43,3.027C169.687,478.639,169.1,478.381,168.606,477.928z M171.654,475.632c0-1.236-0.412-2.07-1.473-2.07
	c-0.474,0-0.968,0.268-1.503,0.772v2.935c0.494,0.432,0.999,0.587,1.37,0.587C170.974,477.856,171.654,477.022,171.654,475.632z
	 M174.104,472.913h0.772l0.082,1.019h0.031c0.391-0.711,0.958-1.164,1.586-1.164c0.247,0,0.422,0.031,0.597,0.124l-0.175,0.824
	c-0.185-0.072-0.319-0.093-0.546-0.093c-0.463,0-1.04,0.33-1.411,1.287v3.594h-0.937V472.913z M177.925,471.153
	c0-0.381,0.278-0.608,0.649-0.608c0.371,0,0.649,0.227,0.649,0.608c0,0.35-0.278,0.608-0.649,0.608
	C178.203,471.76,177.925,471.503,177.925,471.153z M178.1,472.913h0.937v5.591H178.1V472.913z M180.931,472.913h0.772l0.082,0.803
	h0.031c0.535-0.525,1.112-0.947,1.874-0.947c1.174,0,1.709,0.762,1.709,2.193v3.542h-0.937v-3.419c0-1.05-0.319-1.493-1.061-1.493
	c-0.577,0-0.968,0.288-1.534,0.855v4.057h-0.937V472.913z M186.79,479.576c0-0.474,0.309-0.927,0.834-1.267v-0.041
	c-0.299-0.175-0.515-0.474-0.515-0.916c0-0.463,0.34-0.834,0.628-1.04v-0.041c-0.371-0.299-0.731-0.834-0.731-1.503
	c0-1.225,0.968-1.998,2.101-1.998c0.309,0,0.587,0.072,0.783,0.144h1.946v0.721h-1.143c0.268,0.257,0.453,0.669,0.453,1.153
	c0,1.194-0.906,1.946-2.039,1.946c-0.278,0-0.587-0.072-0.834-0.196c-0.206,0.175-0.36,0.36-0.36,0.669
	c0,0.36,0.227,0.608,0.978,0.608h1.092c1.297,0,1.946,0.412,1.946,1.328c0,1.04-1.092,1.936-2.821,1.936
	C187.738,481.079,186.79,480.544,186.79,479.576z M191.022,479.288c0-0.515-0.402-0.69-1.143-0.69h-0.968
	c-0.206,0-0.474-0.031-0.721-0.093c-0.402,0.288-0.577,0.618-0.577,0.947c0,0.597,0.608,0.989,1.627,0.989
	C190.312,480.441,191.022,479.875,191.022,479.288z M190.291,474.767c0-0.814-0.525-1.308-1.184-1.308
	c-0.659,0-1.195,0.484-1.195,1.308c0,0.813,0.546,1.328,1.195,1.328C189.746,476.095,190.291,475.58,190.291,474.767z
	 M195.326,472.913h0.772l0.082,0.814h0.031c0.484-0.535,1.071-0.958,1.74-0.958c0.855,0,1.318,0.412,1.545,1.071
	c0.577-0.628,1.164-1.071,1.843-1.071c1.153,0,1.699,0.762,1.699,2.193v3.542h-0.937v-3.419c0-1.05-0.33-1.493-1.04-1.493
	c-0.432,0-0.886,0.278-1.411,0.855v4.057h-0.937v-3.419c0-1.05-0.33-1.493-1.04-1.493c-0.422,0-0.896,0.278-1.411,0.855v4.057
	h-0.937V472.913z M204.439,475.714c0-1.812,1.225-2.945,2.523-2.945c1.421,0,2.224,1.03,2.224,2.626
	c0,0.206-0.021,0.402-0.041,0.535h-3.769c0.062,1.194,0.793,1.957,1.854,1.957c0.546,0,0.989-0.165,1.4-0.443l0.34,0.618
	c-0.494,0.319-1.092,0.577-1.854,0.577C205.634,478.639,204.439,477.558,204.439,475.714z M208.363,475.261
	c0-1.133-0.515-1.74-1.39-1.74c-0.793,0-1.493,0.638-1.606,1.74H208.363z M213.037,476.775v-3.1h-0.834v-0.711l0.875-0.051
	l0.113-1.565h0.783v1.565h1.514v0.762h-1.514v3.12c0,0.69,0.216,1.081,0.865,1.081c0.196,0,0.453-0.072,0.638-0.144l0.185,0.7
	c-0.319,0.103-0.69,0.206-1.03,0.206C213.439,478.639,213.037,477.897,213.037,476.775z M216.755,470.308h0.937v2.245l-0.031,1.153
	c0.515-0.515,1.092-0.937,1.854-0.937c1.174,0,1.709,0.762,1.709,2.193v3.542h-0.937v-3.419c0-1.05-0.319-1.493-1.061-1.493
	c-0.577,0-0.968,0.288-1.534,0.855v4.057h-0.937V470.308z M222.583,475.714c0-1.812,1.225-2.945,2.523-2.945
	c1.421,0,2.224,1.03,2.224,2.626c0,0.206-0.021,0.402-0.041,0.535h-3.769c0.062,1.194,0.793,1.957,1.854,1.957
	c0.546,0,0.989-0.165,1.4-0.443l0.34,0.618c-0.494,0.319-1.092,0.577-1.854,0.577C223.777,478.639,222.583,477.558,222.583,475.714z
	 M226.506,475.261c0-1.133-0.515-1.74-1.39-1.74c-0.793,0-1.493,0.638-1.606,1.74H226.506z M228.709,472.913h0.772l0.082,1.019
	h0.031c0.391-0.711,0.958-1.164,1.586-1.164c0.247,0,0.422,0.031,0.597,0.124l-0.175,0.824c-0.185-0.072-0.319-0.093-0.546-0.093
	c-0.463,0-1.04,0.33-1.411,1.287v3.594h-0.937V472.913z M232.282,475.714c0-1.812,1.225-2.945,2.523-2.945
	c1.421,0,2.224,1.03,2.224,2.626c0,0.206-0.021,0.402-0.041,0.535h-3.769c0.062,1.194,0.793,1.957,1.854,1.957
	c0.546,0,0.989-0.165,1.4-0.443l0.34,0.618c-0.494,0.319-1.092,0.577-1.854,0.577C233.477,478.639,232.282,477.558,232.282,475.714z
	 M236.206,475.261c0-1.133-0.515-1.74-1.39-1.74c-0.793,0-1.493,0.638-1.606,1.74H236.206z M240.881,472.553
	c0-0.618-0.381-1.112-1.112-1.112c-0.515,0-0.968,0.247-1.328,0.659l-0.535-0.494c0.474-0.546,1.133-0.947,1.967-0.947
	c1.164,0,1.926,0.711,1.926,1.833c0,1.514-1.854,2.121-1.668,3.738h-0.834C239.058,474.437,240.881,473.778,240.881,472.553z
	 M239.058,477.928c0-0.422,0.309-0.731,0.68-0.731c0.381,0,0.69,0.309,0.69,0.731c0,0.422-0.309,0.711-0.69,0.711
	C239.367,478.639,239.058,478.35,239.058,477.928z"/>
<path fill="#444444" d="M225.901,460.818h1.322v-4.948h-1.005v-0.206c0.443-0.071,0.792-0.19,1.037-0.332h0.245v5.486h1.235v0.261
	h-2.834V460.818z M229.639,460.897c2.042-1.75,2.779-2.969,2.779-4.053c0-0.744-0.38-1.354-1.259-1.354
	c-0.515,0-0.99,0.301-1.338,0.736l-0.198-0.182c0.404-0.451,0.887-0.815,1.56-0.815c0.974,0,1.536,0.641,1.536,1.615
	c0,1.259-0.942,2.478-2.605,4.014c0.317-0.024,0.633-0.04,0.942-0.04h1.947v0.261h-3.364V460.897z M233.695,460.612l0.182-0.23
	c0.348,0.301,0.736,0.538,1.354,0.538c0.697,0,1.053-0.404,1.053-0.879c0-0.546-0.554-0.792-1.045-0.966
	c-0.633-0.23-1.346-0.467-1.346-1.187c0-0.578,0.451-1.085,1.314-1.085c0.412,0,0.855,0.174,1.156,0.427l-0.166,0.214
	c-0.277-0.206-0.578-0.38-1.013-0.38c-0.689,0-0.997,0.396-0.997,0.807c0,0.499,0.507,0.689,1.005,0.879
	c0.665,0.253,1.385,0.459,1.385,1.275c0,0.617-0.483,1.156-1.362,1.156C234.589,461.182,234.067,460.921,233.695,460.612z
	 M239.16,460.05c0-0.926,0.847-1.362,2.723-1.575c0.024-0.673-0.15-1.409-1.013-1.409c-0.594,0-1.092,0.293-1.362,0.507l-0.142-0.23
	c0.261-0.19,0.839-0.538,1.52-0.538c0.982,0,1.282,0.728,1.282,1.575v2.699h-0.237l-0.04-0.554h-0.024
	c-0.427,0.348-0.95,0.657-1.504,0.657C239.714,461.182,239.16,460.842,239.16,460.05z M241.883,460.216v-1.496
	c-1.813,0.198-2.43,0.617-2.43,1.322c0,0.641,0.427,0.879,0.934,0.879C240.886,460.921,241.337,460.683,241.883,460.216z
	 M243.35,461.95c0-0.364,0.245-0.752,0.633-1.029v-0.032c-0.214-0.127-0.372-0.348-0.372-0.665c0-0.38,0.277-0.641,0.459-0.768
	v-0.032c-0.261-0.23-0.53-0.641-0.53-1.148c0-0.847,0.633-1.472,1.433-1.472c0.237,0,0.427,0.055,0.546,0.103h1.393v0.261h-0.997
	c0.293,0.245,0.491,0.633,0.491,1.108c0,0.831-0.625,1.48-1.433,1.48c-0.237,0-0.515-0.071-0.705-0.19
	c-0.19,0.15-0.364,0.348-0.364,0.633c0,0.317,0.174,0.578,0.815,0.578h0.926c0.918,0,1.338,0.293,1.338,0.934
	c0,0.705-0.752,1.401-1.924,1.401C243.999,463.114,243.35,462.647,243.35,461.95z M246.691,461.744c0-0.491-0.348-0.681-1.005-0.681
	h-0.95c-0.055,0-0.277-0.016-0.507-0.071c-0.412,0.277-0.578,0.625-0.578,0.934c0,0.554,0.515,0.934,1.425,0.934
	C246.073,462.86,246.691,462.29,246.691,461.744z M246.113,458.277c0-0.744-0.515-1.211-1.14-1.211
	c-0.617,0-1.132,0.459-1.132,1.211c0,0.72,0.53,1.219,1.132,1.219C245.583,459.496,246.113,458.997,246.113,458.277z
	 M247.548,459.005c0-1.401,0.855-2.201,1.852-2.201c0.997,0,1.852,0.8,1.852,2.201c0,1.377-0.855,2.177-1.852,2.177
	C248.403,461.182,247.548,460.383,247.548,459.005z M250.96,459.005c0-1.148-0.673-1.94-1.56-1.94s-1.552,0.792-1.552,1.94
	c0,1.14,0.665,1.916,1.552,1.916S250.96,460.145,250.96,459.005z"/>
<g>
	<defs>
		<path id="SVGID_17_" d="M37.426,513.36c0-6.564,5.316-11.885,11.878-11.885h261.392c6.56,0,11.878,5.313,11.878,11.885v23.754
			c0,6.564-5.316,11.885-11.878,11.885H49.304c-6.56,0-11.878-5.313-11.878-11.885V513.36z"/>
	</defs>
	<clipPath id="SVGID_18_">
		<use xlink:href="#SVGID_17_"  overflow="visible"/>
	</clipPath>
	<rect x="33.465" y="497.515" clip-path="url(#SVGID_18_)" fill="#FFFFFF" width="293.069" height="55.446"/>
</g>
<g>
	<defs>
		<circle id="SVGID_19_" cx="66.733" cy="525.238" r="15.842"/>
	</defs>
	<clipPath id="SVGID_20_">
		<use xlink:href="#SVGID_19_"  overflow="visible"/>
	</clipPath>
	<rect x="46.931" y="505.436" clip-path="url(#SVGID_20_)" fill="#DDDDDD" width="39.604" height="39.604"/>
</g>
<circle fill="none" stroke="#979797" stroke-width="0.5" stroke-miterlimit="10" cx="66.733" cy="525.238" r="15.842"/>
<g>
	<defs>
		<circle id="SVGID_21_" cx="286.931" cy="525.238" r="15.842"/>
	</defs>
	<clipPath id="SVGID_22_">
		<use xlink:href="#SVGID_21_"  overflow="visible"/>
	</clipPath>
	<rect x="267.129" y="505.436" clip-path="url(#SVGID_22_)" fill="#DDDDDD" width="39.604" height="39.604"/>
</g>
<circle fill="none" stroke="#979797" stroke-width="0.5" stroke-miterlimit="10" cx="286.931" cy="525.238" r="15.842"/>
<path fill="#444444" d="M93.045,517.191l0.807-0.594c0.23,0.427,0.538,0.61,0.871,0.61c0.515,0,0.784-0.277,0.784-1.085v-3.871
	h1.172v3.966c0,1.1-0.554,2.003-1.813,2.003C94.011,518.22,93.441,517.871,93.045,517.191z M97.774,516.906
	c0-0.95,0.768-1.449,2.549-1.639c-0.016-0.435-0.206-0.768-0.752-0.768c-0.412,0-0.807,0.182-1.219,0.42l-0.42-0.768
	c0.522-0.325,1.156-0.586,1.852-0.586c1.124,0,1.702,0.673,1.702,1.955v2.589h-0.95l-0.087-0.475h-0.024
	c-0.388,0.333-0.831,0.586-1.338,0.586C98.296,518.22,97.774,517.658,97.774,516.906z M100.323,516.874v-0.895
	c-1.077,0.143-1.441,0.435-1.441,0.831c0,0.348,0.245,0.499,0.586,0.499C99.801,517.309,100.046,517.151,100.323,516.874z
	 M102.677,513.676h0.95l0.079,0.586h0.032c0.388-0.38,0.839-0.697,1.441-0.697c0.958,0,1.37,0.665,1.37,1.781v2.763h-1.164v-2.62
	c0-0.681-0.19-0.926-0.625-0.926c-0.364,0-0.594,0.174-0.926,0.499v3.048h-1.156V513.676z M107.477,515.9
	c0-1.441,1.005-2.335,2.066-2.335c1.219,0,1.852,0.895,1.852,2.122c0,0.214-0.024,0.427-0.055,0.53h-2.731
	c0.095,0.728,0.57,1.108,1.227,1.108c0.364,0,0.681-0.111,0.997-0.309l0.396,0.713c-0.435,0.301-0.997,0.491-1.552,0.491
	C108.443,518.22,107.477,517.357,107.477,515.9z M110.398,515.449c0-0.602-0.269-0.982-0.839-0.982
	c-0.467,0-0.879,0.333-0.966,0.982H110.398z"/>
<path fill="#888888" d="M93.901,527.195h0.958v7.548h-0.958V527.195z M98.473,529.151h0.958l0.834,3.233
	c0.113,0.535,0.227,1.04,0.33,1.565h0.051c0.124-0.525,0.237-1.04,0.381-1.565l0.865-3.233h0.916l0.875,3.233
	c0.134,0.535,0.257,1.04,0.391,1.565h0.041c0.124-0.525,0.227-1.03,0.35-1.565l0.824-3.233h0.886l-1.503,5.591h-1.133l-0.813-3.017
	c-0.144-0.525-0.247-1.04-0.381-1.606h-0.051c-0.124,0.566-0.237,1.092-0.381,1.627l-0.783,2.997h-1.102L98.473,529.151z
	 M107.05,533.291c0-1.215,1.061-1.823,3.439-2.09c0-0.721-0.237-1.411-1.153-1.411c-0.649,0-1.236,0.299-1.678,0.597l-0.371-0.649
	c0.515-0.33,1.308-0.731,2.204-0.731c1.359,0,1.936,0.917,1.936,2.296v3.439h-0.772l-0.082-0.669h-0.031
	c-0.535,0.443-1.164,0.803-1.854,0.803C107.751,534.876,107.05,534.3,107.05,533.291z M110.49,533.383v-1.565
	c-1.884,0.227-2.523,0.69-2.523,1.411c0,0.638,0.432,0.896,0.989,0.896C109.501,534.125,109.944,533.867,110.49,533.383z
	 M113.208,529.151h0.772l0.082,0.803h0.031c0.535-0.525,1.112-0.947,1.874-0.947c1.174,0,1.709,0.762,1.709,2.193v3.542h-0.937
	v-3.419c0-1.05-0.319-1.493-1.061-1.493c-0.577,0-0.968,0.288-1.534,0.855v4.057h-0.937V529.151z M119.499,529.151h0.772
	l0.082,0.803h0.031c0.535-0.525,1.112-0.947,1.874-0.947c1.174,0,1.709,0.762,1.709,2.193v3.542h-0.937v-3.419
	c0-1.05-0.319-1.493-1.061-1.493c-0.577,0-0.968,0.288-1.534,0.855v4.057h-0.937V529.151z M125.441,533.291
	c0-1.215,1.061-1.823,3.439-2.09c0-0.721-0.237-1.411-1.153-1.411c-0.649,0-1.236,0.299-1.678,0.597l-0.371-0.649
	c0.515-0.33,1.308-0.731,2.204-0.731c1.359,0,1.936,0.917,1.936,2.296v3.439h-0.772l-0.082-0.669h-0.031
	c-0.535,0.443-1.164,0.803-1.854,0.803C126.141,534.876,125.441,534.3,125.441,533.291z M128.88,533.383v-1.565
	c-1.884,0.227-2.523,0.69-2.523,1.411c0,0.638,0.432,0.896,0.989,0.896C127.891,534.125,128.334,533.867,128.88,533.383z
	 M132.504,537.101l0.185-0.721c0.144,0.051,0.33,0.103,0.525,0.103c0.566,0,0.7-0.422,0.7-1.102v-6.23h0.937v6.23
	c0,1.143-0.422,1.864-1.524,1.864C132.988,537.245,132.7,537.173,132.504,537.101z M133.74,527.39c0-0.381,0.278-0.608,0.649-0.608
	c0.36,0,0.649,0.227,0.649,0.608c0,0.35-0.288,0.608-0.649,0.608C134.018,527.998,133.74,527.74,133.74,527.39z M136.314,531.952
	c0-1.864,1.225-2.945,2.595-2.945s2.595,1.081,2.595,2.945c0,1.854-1.225,2.924-2.595,2.924S136.314,533.805,136.314,531.952z
	 M140.536,531.952c0-1.287-0.659-2.162-1.627-2.162s-1.617,0.875-1.617,2.162s0.649,2.142,1.617,2.142
	S140.536,533.239,140.536,531.952z M142.801,527.39c0-0.381,0.278-0.608,0.649-0.608s0.649,0.227,0.649,0.608
	c0,0.35-0.278,0.608-0.649,0.608S142.801,527.74,142.801,527.39z M142.976,529.151h0.937v5.591h-0.937V529.151z M145.808,529.151
	h0.772l0.082,0.803h0.031c0.535-0.525,1.112-0.947,1.874-0.947c1.174,0,1.709,0.762,1.709,2.193v3.542h-0.937v-3.419
	c0-1.05-0.319-1.493-1.061-1.493c-0.577,0-0.968,0.288-1.534,0.855v4.057h-0.937V529.151z M154.571,533.013v-3.1h-0.834v-0.711
	l0.875-0.052l0.113-1.565h0.783v1.565h1.514v0.762h-1.514v3.12c0,0.69,0.216,1.081,0.865,1.081c0.196,0,0.453-0.072,0.638-0.144
	l0.185,0.7c-0.319,0.103-0.69,0.206-1.03,0.206C154.972,534.876,154.571,534.135,154.571,533.013z M158.288,526.546h0.937v2.245
	l-0.031,1.153c0.515-0.515,1.092-0.937,1.854-0.937c1.174,0,1.709,0.762,1.709,2.193v3.542h-0.937v-3.419
	c0-1.05-0.319-1.493-1.061-1.493c-0.577,0-0.968,0.288-1.534,0.855v4.057h-0.937V526.546z M164.116,531.952
	c0-1.812,1.225-2.945,2.523-2.945c1.421,0,2.224,1.03,2.224,2.626c0,0.206-0.021,0.402-0.041,0.535h-3.769
	c0.062,1.195,0.793,1.957,1.854,1.957c0.546,0,0.989-0.165,1.4-0.443l0.34,0.618c-0.494,0.319-1.092,0.577-1.854,0.577
	C165.31,534.876,164.116,533.795,164.116,531.952z M168.039,531.499c0-1.133-0.515-1.74-1.39-1.74c-0.793,0-1.493,0.638-1.606,1.74
	H168.039z M172.714,533.013v-3.1h-0.834v-0.711l0.875-0.052l0.113-1.565h0.783v1.565h1.514v0.762h-1.514v3.12
	c0,0.69,0.216,1.081,0.865,1.081c0.196,0,0.453-0.072,0.638-0.144l0.185,0.7c-0.319,0.103-0.69,0.206-1.03,0.206
	C173.116,534.876,172.714,534.135,172.714,533.013z M176.009,531.952c0-1.812,1.225-2.945,2.523-2.945
	c1.421,0,2.224,1.03,2.224,2.626c0,0.206-0.021,0.402-0.041,0.535h-3.769c0.062,1.195,0.793,1.957,1.854,1.957
	c0.546,0,0.989-0.165,1.4-0.443l0.34,0.618c-0.494,0.319-1.092,0.577-1.854,0.577C177.204,534.876,176.009,533.795,176.009,531.952z
	 M179.932,531.499c0-1.133-0.515-1.74-1.39-1.74c-0.793,0-1.493,0.638-1.606,1.74H179.932z M181.786,533.291
	c0-1.215,1.061-1.823,3.439-2.09c0-0.721-0.237-1.411-1.153-1.411c-0.649,0-1.236,0.299-1.678,0.597l-0.371-0.649
	c0.515-0.33,1.308-0.731,2.204-0.731c1.359,0,1.936,0.917,1.936,2.296v3.439h-0.772l-0.082-0.669h-0.031
	c-0.535,0.443-1.164,0.803-1.854,0.803C182.486,534.876,181.786,534.3,181.786,533.291z M185.225,533.383v-1.565
	c-1.884,0.227-2.523,0.69-2.523,1.411c0,0.638,0.432,0.896,0.989,0.896C184.236,534.125,184.679,533.867,185.225,533.383z
	 M187.943,529.151h0.772l0.082,0.814h0.031c0.484-0.536,1.071-0.958,1.74-0.958c0.855,0,1.318,0.412,1.545,1.071
	c0.577-0.628,1.164-1.071,1.843-1.071c1.153,0,1.699,0.762,1.699,2.193v3.542h-0.937v-3.419c0-1.05-0.33-1.493-1.04-1.493
	c-0.432,0-0.886,0.278-1.411,0.855v4.057h-0.937v-3.419c0-1.05-0.33-1.493-1.04-1.493c-0.422,0-0.896,0.278-1.411,0.855v4.057
	h-0.937V529.151z M197.509,534.166c0-0.422,0.309-0.731,0.68-0.731c0.381,0,0.68,0.309,0.68,0.731c0,0.422-0.299,0.711-0.68,0.711
	C197.818,534.876,197.509,534.588,197.509,534.166z M197.746,528.101l-0.031-1.071h0.958l-0.031,1.071l-0.124,4.366h-0.649
	L197.746,528.101z M202.915,530.016c0-0.432,0.309-0.731,0.68-0.731c0.371,0,0.68,0.299,0.68,0.731c0,0.412-0.309,0.711-0.68,0.711
	C203.224,530.727,202.915,530.428,202.915,530.016z M202.915,534.166c0-0.422,0.309-0.731,0.68-0.731c0.371,0,0.68,0.309,0.68,0.731
	c0,0.422-0.309,0.711-0.68,0.711C203.224,534.876,202.915,534.588,202.915,534.166z M205.469,536.493
	c0.886-1.462,1.318-3.203,1.318-4.953c0-1.751-0.432-3.481-1.318-4.953l0.577-0.268c0.958,1.534,1.524,3.203,1.524,5.221
	c0,2.029-0.566,3.686-1.524,5.231L205.469,536.493z"/>
<path fill="#444444" d="M225.41,516.636l0.182-0.206c0.332,0.364,0.784,0.728,1.575,0.728c0.784,0,1.354-0.53,1.354-1.338
	c0-0.823-0.586-1.385-1.995-1.385v-0.277c1.322,0,1.781-0.594,1.781-1.33c0-0.657-0.459-1.1-1.172-1.116
	c-0.515,0.016-0.99,0.285-1.298,0.625l-0.182-0.206c0.364-0.356,0.831-0.665,1.48-0.673c0.823,0.008,1.48,0.499,1.48,1.354
	c0,0.784-0.475,1.259-1.085,1.457v0.032c0.697,0.143,1.29,0.681,1.29,1.504c0,0.99-0.72,1.615-1.67,1.615
	C226.265,517.42,225.758,517,225.41,516.636z M229.568,516.85l0.182-0.23c0.348,0.301,0.736,0.538,1.354,0.538
	c0.697,0,1.053-0.404,1.053-0.879c0-0.546-0.554-0.792-1.045-0.966c-0.633-0.23-1.346-0.467-1.346-1.187
	c0-0.578,0.451-1.085,1.314-1.085c0.412,0,0.855,0.174,1.156,0.427l-0.166,0.214c-0.277-0.206-0.578-0.38-1.013-0.38
	c-0.689,0-0.997,0.396-0.997,0.807c0,0.499,0.507,0.689,1.005,0.879c0.665,0.253,1.385,0.459,1.385,1.275
	c0,0.617-0.483,1.156-1.362,1.156C230.463,517.42,229.94,517.159,229.568,516.85z M235.033,516.288c0-0.926,0.847-1.362,2.723-1.575
	c0.024-0.673-0.15-1.409-1.013-1.409c-0.594,0-1.092,0.293-1.362,0.507l-0.143-0.23c0.261-0.19,0.839-0.538,1.52-0.538
	c0.982,0,1.282,0.728,1.282,1.575v2.7h-0.237l-0.04-0.554h-0.024c-0.427,0.348-0.95,0.657-1.504,0.657
	C235.587,517.42,235.033,517.079,235.033,516.288z M237.757,516.454v-1.496c-1.813,0.198-2.43,0.617-2.43,1.322
	c0,0.641,0.427,0.879,0.934,0.879C236.759,517.159,237.21,516.921,237.757,516.454z M239.223,518.188
	c0-0.364,0.245-0.752,0.633-1.029v-0.032c-0.214-0.127-0.372-0.348-0.372-0.665c0-0.38,0.277-0.641,0.459-0.768v-0.032
	c-0.261-0.23-0.53-0.641-0.53-1.148c0-0.847,0.633-1.472,1.433-1.472c0.238,0,0.427,0.055,0.546,0.103h1.393v0.261h-0.997
	c0.293,0.245,0.491,0.633,0.491,1.108c0,0.831-0.625,1.48-1.433,1.48c-0.237,0-0.515-0.071-0.705-0.19
	c-0.19,0.15-0.364,0.348-0.364,0.633c0,0.317,0.174,0.578,0.815,0.578h0.926c0.918,0,1.338,0.293,1.338,0.934
	c0,0.705-0.752,1.401-1.924,1.401C239.873,519.351,239.223,518.884,239.223,518.188z M242.564,517.982
	c0-0.491-0.348-0.681-1.005-0.681h-0.95c-0.055,0-0.277-0.016-0.507-0.071c-0.412,0.277-0.578,0.625-0.578,0.934
	c0,0.554,0.515,0.934,1.425,0.934C241.947,519.098,242.564,518.528,242.564,517.982z M241.986,514.514
	c0-0.744-0.515-1.211-1.14-1.211c-0.617,0-1.132,0.459-1.132,1.211c0,0.72,0.53,1.219,1.132,1.219
	C241.456,515.734,241.986,515.235,241.986,514.514z M243.421,515.243c0-1.401,0.855-2.201,1.852-2.201
	c0.997,0,1.852,0.8,1.852,2.201c0,1.377-0.855,2.177-1.852,2.177C244.276,517.42,243.421,516.62,243.421,515.243z M246.833,515.243
	c0-1.148-0.673-1.94-1.56-1.94c-0.887,0-1.552,0.792-1.552,1.94c0,1.14,0.665,1.916,1.552,1.916
	C246.161,517.159,246.833,516.383,246.833,515.243z"/>
<g>
	<g>
		<path fill="#33BBDD" d="M102.2,122.4c-3.4-4.467-8.6-7-14.2-7s-10.8,2.533-14.2,7c-4.867,6.4-4.867,15.267,0,21.667L88,162.6
			l14.2-18.533C107.067,137.667,107.067,128.8,102.2,122.4z M88,123.467c5.133,0,9.333,4.2,9.333,9.333
			c0,5.133-4.2,9.333-9.333,9.333s-9.333-4.2-9.333-9.333C78.667,127.667,82.867,123.467,88,123.467z"/>
	</g>
</g>
<g>
	<g>
		<path fill="#33BBDD" d="M275.2,86.4c-3.4-4.467-8.6-7-14.2-7s-10.8,2.533-14.2,7c-4.867,6.4-4.867,15.267,0,21.667L261,126.6
			l14.2-18.533C280.067,101.667,280.067,92.8,275.2,86.4z M261,87.467c5.133,0,9.333,4.2,9.333,9.333c0,5.133-4.2,9.333-9.333,9.333
			s-9.333-4.2-9.333-9.333C251.667,91.667,255.867,87.467,261,87.467z"/>
	</g>
</g>
<g>
	<g>
		<path fill="#33BBDD" d="M163.2,261.4c-3.4-4.467-8.6-7-14.2-7s-10.8,2.533-14.2,7c-4.867,6.4-4.867,15.267,0,21.667L149,301.6
			l14.2-18.533C168.067,276.667,168.067,267.8,163.2,261.4z M149,262.467c5.133,0,9.333,4.2,9.333,9.333
			c0,5.133-4.2,9.333-9.333,9.333s-9.333-4.2-9.333-9.333C139.667,266.667,143.867,262.467,149,262.467z"/>
	</g>
</g>
<g>
	<g>
		<path fill="#33BBDD" d="M244.2,202.4c-3.4-4.467-8.6-7-14.2-7s-10.8,2.533-14.2,7c-4.867,6.4-4.867,15.267,0,21.667L230,242.6
			l14.2-18.533C249.067,217.667,249.067,208.8,244.2,202.4z M230,203.467c5.133,0,9.333,4.2,9.333,9.333s-4.2,9.333-9.333,9.333
			s-9.333-4.2-9.333-9.333S224.867,203.467,230,203.467z"/>
	</g>
</g>
</svg>
