<?xml version="1.0" encoding="utf-8"?>
<!-- Generator: Adobe Illustrator 17.0.0, SVG Export Plug-In . SVG Version: 6.00 Build 0)  -->
<!DOCTYPE svg PUBLIC "-//W3C//DTD SVG 1.1//EN" "http://www.w3.org/Graphics/SVG/1.1/DTD/svg11.dtd">
<svg version="1.1" xmlns="http://www.w3.org/2000/svg" xmlns:xlink="http://www.w3.org/1999/xlink" x="0px" y="0px" width="400px"
	 height="700px" viewBox="0 0 400 700" enable-background="new 0 0 400 700" xml:space="preserve">
<g id="Layer_2">
	<path fill="#FFFFFF" d="M400,88V0l0,0l0,0h-43l0,0H43l0,0H0l0,0v88v504v109l0,0h43l0,0h314l0,0h43l0,0l0,0V592l0,0V88L400,88z
		 M357,592H43V87h314V592z"/>
</g>
<g id="Layer_1">
	<g>
		<defs>
			<path id="SVGID_1_" d="M43,87v503h315V87H43z M20,64.005C20,41.911,37.914,24,59.999,24h280.002
				C362.092,24,380,41.912,380,64.005v559.991C380,646.089,362.086,664,340.001,664H59.999C37.908,664,20,646.088,20,623.995V64.005
				z"/>
		</defs>
		<clipPath id="SVGID_2_">
			<use xlink:href="#SVGID_1_"  overflow="visible"/>
		</clipPath>
		<g clip-path="url(#SVGID_2_)">
			<defs>
				<rect id="SVGID_3_" x="-520" y="-5971" width="1440" height="7063"/>
			</defs>
			<clipPath id="SVGID_4_">
				<use xlink:href="#SVGID_3_"  overflow="visible"/>
			</clipPath>
			<rect x="15" y="19" clip-path="url(#SVGID_4_)" fill="#444444" width="370" height="650"/>
		</g>
	</g>
</g>
</svg>
