<?xml version="1.0" encoding="utf-8"?>
<!-- Generator: Adobe Illustrator 17.0.0, SVG Export Plug-In . SVG Version: 6.00 Build 0)  -->
<!DOCTYPE svg PUBLIC "-//W3C//DTD SVG 1.1//EN" "http://www.w3.org/Graphics/SVG/1.1/DTD/svg11.dtd">
<svg version="1.1" id="Layer_1" xmlns="http://www.w3.org/2000/svg" xmlns:xlink="http://www.w3.org/1999/xlink" x="0px" y="0px"
	 width="100px" height="100px" viewBox="0 0 100 100" enable-background="new 0 0 100 100" xml:space="preserve">
<g transform="translate(0,-952.36218)">
	<path fill="#FFFFFF" d="M61.965,952.362c-6.566,0-11.958,5.392-11.958,11.958c0,3.847,1.868,7.285,4.722,9.478l-4.824,16.069
		c-1.361-0.345-2.782-0.544-4.247-0.544c-3.694,0-7.129,1.177-9.954,3.159l-15.423-12.977c0.925-1.596,1.461-3.439,1.461-5.402
		c0-5.965-4.906-10.871-10.871-10.871C4.906,963.233,0,968.139,0,974.104c0,5.965,4.906,10.871,10.871,10.871
		c1.624,0,3.163-0.369,4.552-1.019l15.695,13.249c-1.797,2.736-2.854,6.012-2.854,9.512c0,3.605,1.127,6.965,3.024,9.75l-9.75,9.75
		c-2.158-1.34-4.696-2.106-7.406-2.106c-7.766,0-14.132,6.366-14.132,14.132c0,7.766,6.366,14.132,14.132,14.132
		s14.132-6.366,14.132-14.132c0-2.717-0.795-5.245-2.14-7.406l9.75-9.75c2.79,1.906,6.169,3.024,9.784,3.024
		c6.121,0,11.506-3.204,14.608-8.017l13.725,4.586c-0.04,0.415-0.068,0.832-0.068,1.257c0,7.166,5.879,13.045,13.045,13.045
		c7.166,0,13.045-5.879,13.045-13.045c0-7.166-5.879-13.045-13.045-13.045c-4.435,0-8.375,2.258-10.735,5.673l-13.487-4.484
		c0.215-1.088,0.306-2.215,0.306-3.363c0-1.416-0.186-2.79-0.51-4.111l14.71-9.818c1.96,1.894,4.627,3.057,7.542,3.057
		c5.965,0,10.871-4.906,10.871-10.871c0-5.965-4.906-10.871-10.871-10.871c-5.965,0-10.871,4.906-10.871,10.871
		c0,0.722,0.101,1.422,0.238,2.106l-14.37,9.546c-1.086-1.515-2.403-2.84-3.907-3.941l4.926-16.476
		c0.379,0.037,0.767,0.068,1.155,0.068c6.566,0,11.958-5.392,11.958-11.958C73.923,957.755,68.531,952.362,61.965,952.362z
		 M61.965,958.885c3.041,0,5.436,2.395,5.436,5.435c0,3.041-2.395,5.436-5.436,5.436c-3.041,0-5.436-2.395-5.436-5.436
		C56.529,961.28,58.924,958.885,61.965,958.885z M10.871,969.756c2.44,0,4.348,1.908,4.348,4.348c0,2.44-1.908,4.348-4.348,4.348
		c-2.44,0-4.348-1.908-4.348-4.348C6.523,971.664,8.431,969.756,10.871,969.756z M84.794,980.627c2.44,0,4.348,1.908,4.348,4.348
		c0,2.44-1.908,4.348-4.348,4.348c-2.44,0-4.348-1.908-4.348-4.348C80.446,982.535,82.354,980.627,84.794,980.627z M45.658,995.846
		c6.043,0,10.871,4.829,10.871,10.871c0,6.043-4.828,10.871-10.871,10.871c-6.043,0-10.871-4.828-10.871-10.871
		C34.787,1000.675,39.616,995.846,45.658,995.846z M86.968,1015.414c3.641,0,6.523,2.882,6.523,6.523
		c0,3.641-2.882,6.523-6.523,6.523s-6.523-2.882-6.523-6.523C80.446,1018.296,83.327,1015.414,86.968,1015.414L86.968,1015.414z
		 M14.132,1030.634c4.241,0,7.61,3.368,7.61,7.61s-3.368,7.61-7.61,7.61s-7.61-3.368-7.61-7.61S9.891,1030.634,14.132,1030.634z"/>
</g>
</svg>
