<?xml version="1.0" encoding="utf-8"?>
<!-- Generator: Adobe Illustrator 17.0.0, SVG Export Plug-In . SVG Version: 6.00 Build 0)  -->
<!DOCTYPE svg PUBLIC "-//W3C//DTD SVG 1.1//EN" "http://www.w3.org/Graphics/SVG/1.1/DTD/svg11.dtd">
<svg version="1.1" id="Layer_1" xmlns="http://www.w3.org/2000/svg" xmlns:xlink="http://www.w3.org/1999/xlink" x="0px" y="0px"
	 width="35px" height="24px" viewBox="0 0 35 24" enable-background="new 0 0 35 24" xml:space="preserve">
<path fill="#FFFFFF" d="M32.945,0.537c-6.7,7.813-16.546,6.018-16.546,6.018V1.062c0.002-0.585-0.47-1.06-1.055-1.062
	c-0.232-0.001-0.457,0.074-0.642,0.214L0.784,10.641c-0.748,0.561-0.899,1.623-0.338,2.37c0.096,0.128,0.21,0.242,0.338,0.338
	l13.9,10.423c0.459,0.362,1.124,0.284,1.487-0.174c0.151-0.192,0.232-0.43,0.228-0.674v-5.493c15.147,0,18.022-10.514,18.49-16.137
	c0.05-0.599-0.394-1.125-0.993-1.175C33.529,0.088,33.171,0.246,32.945,0.537z"/>
</svg>
