<?xml version="1.0" encoding="utf-8"?>
<!-- Generator: Adobe Illustrator 17.0.0, SVG Export Plug-In . SVG Version: 6.00 Build 0)  -->
<!DOCTYPE svg PUBLIC "-//W3C//DTD SVG 1.1//EN" "http://www.w3.org/Graphics/SVG/1.1/DTD/svg11.dtd">
<svg version="1.1" id="Layer_1" xmlns="http://www.w3.org/2000/svg" xmlns:xlink="http://www.w3.org/1999/xlink" x="0px" y="0px"
	 width="50px" height="50px" viewBox="0 0 50 50" enable-background="new 0 0 50 50" xml:space="preserve">
<g>
	<path fill="#FFFFFF" d="M30.074,36.565c-0.562,0.307-1.227,0.614-1.892,0.818c-1.278,0.46-2.659,0.716-4.04,0.716
		c-1.381,0-2.71-0.205-3.989-0.665c-2.659-0.92-4.704-2.557-6.239-4.449c-2.097,1.176-5.932,3.324-9.869,6.239
		c4.551,6.239,11.863,10.329,20.199,10.329c2.608,0,5.165-0.409,7.517-1.176C30.074,46.485,29,43.98,29,41.269
		C29,39.582,29.409,37.997,30.074,36.565z"/>
	<path fill="#FFFFFF" d="M39.688,32.934c-4.602,0-8.335,3.733-8.335,8.335s3.733,8.335,8.335,8.335s8.335-3.733,8.335-8.335
		S44.29,32.934,39.688,32.934z M40.045,46.025l-1.534-1.534l2.097-2.097H34.83v-2.199h5.778l-2.097-2.097l1.534-1.534l4.756,4.756
		L40.045,46.025z"/>
	<path fill="#FFFFFF" d="M32.631,4.605c-0.051,0-0.051-0.051-0.102-0.051c-0.614-2.506-4.193-5.114-7.568-4.449
		c-3.375,0.716-10.329-0.102-10.329-0.102c-0.102,1.483,1.176,2.506,1.176,2.506C9.927,6.088,11,13.758,11.563,16.52
		c-0.051,0.051-0.102,0.102-0.153,0.205c-1.227,1.636-0.767,3.989-0.307,5.574c0.307,1.023,0.818,2.966,2.045,4.091
		c0.92,3.375,3.579,7.312,7.875,8.846c1.023,0.358,2.097,0.562,3.222,0.562c1.074,0,2.148-0.205,3.17-0.562
		c4.295-1.534,6.954-5.42,7.875-8.846c1.227-1.125,1.739-3.068,2.045-4.091c0.46-1.636,0.92-3.937-0.307-5.574
		c-0.051-0.051-0.102-0.102-0.153-0.205c0.102-0.562,0.153-1.125,0.205-1.636C38.563,5.219,33.244,4.656,32.631,4.605z
		 M35.034,21.582c-0.716,2.506-1.381,3.222-1.892,3.222c-0.46,2.966-2.761,6.75-6.545,8.079c-0.767,0.256-1.585,0.409-2.403,0.409
		s-1.636-0.153-2.403-0.409c-3.733-1.33-6.085-5.114-6.545-8.079c-0.511-0.051-1.176-0.767-1.892-3.222
		c-0.92-3.222-0.051-3.835,0.767-3.835c0.051,0,0.102,0,0.153,0v-0.051c-0.153-0.511-0.869-3.426,1.687-5.216
		c2.045,0.46,5.165,0.562,9.358-1.227c8.028-3.426,8.744,6.494,8.744,6.494l0,0c0.051,0,0.102,0,0.153,0
		C35.085,17.747,35.955,18.412,35.034,21.582z"/>
</g>
</svg>
