<?xml version="1.0" encoding="utf-8"?>
<!-- Generator: Adobe Illustrator 17.0.0, SVG Export Plug-In . SVG Version: 6.00 Build 0)  -->
<!DOCTYPE svg PUBLIC "-//W3C//DTD SVG 1.1//EN" "http://www.w3.org/Graphics/SVG/1.1/DTD/svg11.dtd">
<svg version="1.1" id="Layer_1" xmlns="http://www.w3.org/2000/svg" xmlns:xlink="http://www.w3.org/1999/xlink" x="0px" y="0px"
	 width="120px" height="120px" viewBox="0 0 120 120" enable-background="new 0 0 120 120" xml:space="preserve">
<g>
	<path fill="#FFFFFF" d="M103.632,99.809c9.947-10.901,15.427-25.004,15.427-39.793c0-32.575-26.502-59.075-59.075-59.075
		c-32.575,0-59.076,26.502-59.076,59.075c0,16.116,6.372,31.175,17.942,42.402c0.014,0.014,0.033,0.018,0.047,0.031
		c0.163,0.149,0.345,0.267,0.541,0.35c0.034,0.015,0.07,0.153,0.106,0.165c0.205,0.074,0.417,0.252,0.634,0.252h0.001l0,0l0,0h0.001
		c0.186,0,0.369-0.165,0.547-0.22c0.033-0.01,0.066-0.081,0.099-0.094c0.173-0.062,0.338-0.184,0.491-0.298
		c0.011-0.009,0.027-0.027,0.037-0.036c6.76-5.294,7.672-11.775,7.672-17.407c0-0.015-0.004-0.033-0.004-0.047
		c-0.001-0.073-0.011-0.142-0.022-0.214c-0.008-0.056-0.013-0.113-0.025-0.168c-0.014-0.061-0.036-0.121-0.055-0.181
		c-0.02-0.059-0.036-0.118-0.061-0.173c-0.025-0.056-0.057-0.107-0.087-0.16c-0.029-0.053-0.057-0.108-0.092-0.158
		c-0.037-0.052-0.08-0.099-0.122-0.148c-0.037-0.043-0.073-0.089-0.113-0.13c-0.045-0.043-0.097-0.08-0.146-0.121
		c-0.048-0.038-0.094-0.079-0.145-0.111c-0.047-0.031-0.098-0.055-0.148-0.08c-0.064-0.033-0.126-0.067-0.192-0.093
		c-0.013-0.005-0.024-0.014-0.038-0.019c-4.291-1.574-7.175-5.78-7.175-10.471V44.747c0-1.575,1.084-2.593,2.76-2.593h1.056V57.42
		c0,1.055,0.854,1.908,1.908,1.908c1.055,0,1.908-0.854,1.908-1.908V38.749c0-1.556,1.436-2.87,3.136-2.87
		c0.232,0,0.486,0.046,0.739,0.109c-0.019,0.215-0.059,0.421-0.059,0.642V57.42c0,1.055,0.854,1.908,1.908,1.908
		s1.908-0.854,1.908-1.908V36.631c0-1.462,0.901-2.942,2.623-2.942c0.617,0,1.352,0.154,2.122,1.295
		c0.234,0.347,0.343,0.871,0.343,1.65v2.977c0,0.165,0.027,0.323,0.067,0.476c-0.835,1.137-1.34,2.566-1.34,4.178V57.42
		c0,1.055,0.854,1.908,1.908,1.908c1.055,0,1.908-0.854,1.908-1.908V44.264c0-1.462,0.901-2.942,2.623-2.942
		c0.617,0,1.352,0.154,2.122,1.295c0.234,0.347,0.343,0.871,0.343,1.65v8.902c-2.258,1.109-3.816,3.399-3.816,6.045v7.111
		c0,1.053,0.854,1.908,1.908,1.908c1.055,0,1.908-0.855,1.908-1.908v-7.111c0-1.595,1.399-2.942,3.056-2.942
		c1.656,0,3.057,1.348,3.057,2.942l-0.014,15.153c0,3.82-2.57,6.593-4.725,8.244c-0.583,0.448-1.7,0.677-2.781,0.899l-0.151,0.031
		c-0.164,0.033-0.315,0.094-0.459,0.165c-1.002,0.059-1.799,0.882-1.799,1.898v1.238c0,0.817,0.229,1.563,0.223,2.5
		c-0.047,7.061-0.7,15.303-6.872,22.899c-0.385,0.476-0.52,1.107-0.363,1.698c0.159,0.59,0.59,1.07,1.163,1.289
		c6.715,2.565,13.802,3.865,21.062,3.865c8.667,0,17.017-1.833,24.819-5.45c0.504-0.235,0.88-0.677,1.033-1.211
		c0.151-0.536,0.062-1.109-0.244-1.572c-4.816-7.285-5.805-15.199-5.805-24.843c0-1.053-0.859-1.908-1.912-1.908
		c-0.108,0-0.211,0.015-0.314,0.031c-0.079-0.01-0.158-0.024-0.239-0.024c-6.022,0-10.922-4.956-10.922-11.051v-4.861
		c-0.003-3.514,2.227-5.695,5.816-5.695h15.171c1.053,0,1.908-0.855,1.908-1.908V44.57c0-1.417,0.796-2.942,2.544-2.942
		c1.748,0,2.544,1.527,2.544,2.944v8.883c-2.231,1.177-3.816,3.45-3.816,5.934v6.936c0,1.053,0.855,1.908,1.908,1.908
		s1.908-0.855,1.908-1.908V59.39c0-1.521,1.626-2.96,3.347-2.96c1.72,0,3.346,1.422,3.346,2.923l-0.033,15.121
		c0,5.255-4.356,9.531-9.71,9.531c-5.322,0-9.818-4.463-9.818-9.743c0-1.053-0.855-1.908-1.908-1.908
		c-1.053,0-1.908,0.855-1.908,1.908c0,7.35,6.243,13.559,13.634,13.559c1.514,0,2.967-0.258,4.326-0.714
		c0.039,4.118,0.472,8.56,4.442,12.627c0.101,0.226,0.248,0.438,0.441,0.616c0.313,0.293,0.705,0.427,1.1,0.469
		c0.07,0.01,0.122,0.042,0.198,0.042c0.014,0,0.028-0.004,0.042-0.004c0.025-0.001,0.05-0.006,0.076-0.008
		c0.485-0.028,1.02-0.224,1.366-0.599C103.452,100.116,103.548,99.965,103.632,99.809z M66.397,60.423V44.924
		c0-1.632,1.773-2.769,3.365-2.769h0.452v16.537c0,0.059,0.013,0.114,0.018,0.172C68.782,59.117,67.492,59.657,66.397,60.423z
		 M74.029,58.692V38.925c0-1.599,1.394-2.949,3.043-2.949c0.28,0,0.564,0.043,0.838,0.116c-0.023,0.238-0.065,0.469-0.065,0.716
		v21.884H74.029z M85.478,58.692h-3.816V36.808c0-1.417,0.796-2.942,2.544-2.942c1.748,0,2.544,1.527,2.544,2.944v3.648
		c-0.794,1.127-1.272,2.531-1.272,4.113V58.692z M99.471,85.158v-0.048c3.264-2.439,5.386-6.291,5.386-10.631l0.033-15.12
		c0-3.506-3.02-6.483-6.693-6.721v-8.066c0-3.854-2.734-6.76-6.361-6.76c-0.439,0-0.862,0.047-1.272,0.128v-1.13
		c0-3.854-2.734-6.76-6.361-6.76c-2.057,0-3.804,0.955-4.952,2.468c-0.703-0.226-1.444-0.359-2.183-0.359
		c-3.58,0-6.494,2.73-6.799,6.185c-0.018-0.001-0.037-0.006-0.057-0.006h-0.452c-3.893,0-7.181,3.016-7.181,6.586v28.14
		c0,7.739,5.895,14.109,13.391,14.798c0.107,7.718,0.981,15.742,5.228,23.184c-6.726,2.809-13.89,4.23-21.273,4.23
		c-5.933,0-11.797-0.927-17.357-2.76c5.507-7.972,6.195-16.475,6.24-23.148c0.005-0.842-0.167-1.534-0.207-2.258
		c1.258-0.272,2.593-0.632,3.68-1.467c4.011-3.076,6.219-7.079,6.219-11.272l0.014-15.153c0-3.474-2.679-6.343-6.112-6.717v-8.234
		c0-0.991-0.103-2.462-0.996-3.785c-1.333-1.976-3.112-2.977-5.286-2.977c-0.467,0-0.917,0.05-1.351,0.139v-1.01
		c0-0.991-0.103-2.462-0.996-3.785c-1.333-1.976-3.112-2.977-5.286-2.977c-2.109,0-3.899,0.98-5.059,2.528
		c-0.683-0.212-1.383-0.338-2.062-0.338c-3.689,0-6.709,2.782-6.93,6.279c-0.006-0.001-0.013-0.003-0.02-0.003h-1.056
		c-3.811,0-6.577,2.696-6.577,6.409v28.141c0,5.81,3.328,11.069,8.404,13.508c-0.127,4.139-1.011,8.364-4.905,12.037
		C10.244,88.073,4.724,74.506,4.724,60.016c0-30.471,24.789-55.259,55.26-55.259c30.469,0,55.259,24.789,55.259,55.259
		c0,13.285-4.727,25.98-13.342,35.999C99.337,92.71,99.471,89.17,99.471,85.158z"/>
	<path fill="#FFFFFF" d="M71.35,20.842l-6.652,6.059c-0.779,0.71-0.836,1.916-0.127,2.696c0.378,0.413,0.893,0.623,1.411,0.623
		c0.459,0,0.92-0.164,1.285-0.497l6.652-6.059c0.779-0.71,0.836-1.916,0.127-2.696C73.332,20.186,72.126,20.133,71.35,20.842z"/>
	<path fill="#FFFFFF" d="M59.546,14.168c-0.003,0-0.005,0-0.008,0c-1.051,0-1.904,0.915-1.908,1.965l-0.038,9.064
		c-0.005,1.053,0.846,1.692,1.899,1.692c0.003,0,0.005,0,0.008,0c1.051,0,1.904-0.714,1.908-1.764l0.038-8.861
		C61.451,15.209,60.6,14.168,59.546,14.168z"/>
	<path fill="#FFFFFF" d="M47.689,20.74c-0.773-0.717-1.982-0.67-2.697,0.103c-0.716,0.772-0.67,1.981,0.103,2.697l6.6,6.116
		c0.368,0.341,0.832,0.509,1.296,0.509c0.513,0,1.024-0.206,1.401-0.611c0.716-0.772,0.67-1.981-0.103-2.697L47.689,20.74z"/>
</g>
</svg>
