<?xml version="1.0" encoding="utf-8"?>
<!-- Generator: Adobe Illustrator 17.0.0, SVG Export Plug-In . SVG Version: 6.00 Build 0)  -->
<!DOCTYPE svg PUBLIC "-//W3C//DTD SVG 1.1//EN" "http://www.w3.org/Graphics/SVG/1.1/DTD/svg11.dtd">
<svg version="1.1" id="Layer_1" xmlns="http://www.w3.org/2000/svg" xmlns:xlink="http://www.w3.org/1999/xlink" x="0px" y="0px"
	 width="24px" height="24px" viewBox="0 0 24 24" enable-background="new 0 0 24 24" xml:space="preserve">
<g transform="translate(0,-952.36218)">
	<g transform="translate(8.9950798,961.32626)">
		<path fill="#FFFFFF" d="M0.956-8.999c-5.484,0-9.97,4.476-9.97,9.96s4.487,9.97,9.97,9.97c2.108,0,4.061-0.675,5.671-1.797
			l5.39,5.38c0.685,0.696,1.807,0.696,2.493,0c0.685-0.685,0.685-1.797,0-2.482l-5.39-5.39c1.132-1.62,1.797-3.573,1.797-5.681
			C10.916-4.523,6.43-8.999,0.956-8.999z M0.956-5.489c3.573,0,6.439,2.866,6.439,6.449S4.529,7.41,0.956,7.41
			c-3.583,0-6.449-2.866-6.449-6.449S-2.627-5.489,0.956-5.489z"/>
	</g>
</g>
</svg>
