<?xml version="1.0" encoding="utf-8"?>
<!-- Generator: Adobe Illustrator 17.0.0, SVG Export Plug-In . SVG Version: 6.00 Build 0)  -->
<!DOCTYPE svg PUBLIC "-//W3C//DTD SVG 1.1//EN" "http://www.w3.org/Graphics/SVG/1.1/DTD/svg11.dtd">
<svg version="1.1" id="Layer_1" xmlns="http://www.w3.org/2000/svg" xmlns:xlink="http://www.w3.org/1999/xlink" x="0px" y="0px"
	 width="100px" height="100px" viewBox="0 0 100 100" enable-background="new 0 0 100 100" xml:space="preserve">
<circle fill="#FFFFFF" stroke="#222222" stroke-miterlimit="10" cx="49" cy="50" r="49"/>
<g transform="translate(0,-952.36218)">
	<path fill="#222222" d="M50.125,956.362c-8.015,0-14.528,6.404-14.528,14.286v4.762h-9.685c-0.972,0.009-1.839,0.922-1.937,1.726
		l-4.843,57.143c-0.101,1.055,0.859,2.088,1.937,2.083h58.111c1.078,0,2.038-1.028,1.937-2.083l-4.843-57.143
		c-0.09-0.936-0.981-1.73-1.937-1.726h-9.685v-4.762C64.653,962.767,58.14,956.362,50.125,956.362L50.125,956.362z M50.125,960.172
		c5.936,0,10.654,4.639,10.654,10.476v4.762H39.471v-4.762C39.471,964.811,44.189,960.172,50.125,960.172z M27.698,979.219h7.9
		v4.137c-2.247,0.792-3.874,2.92-3.874,5.387c0,3.133,2.625,5.714,5.811,5.714s5.811-2.581,5.811-5.714
		c0-2.467-1.627-4.595-3.874-5.387v-4.137h21.307v4.137c-2.247,0.792-3.874,2.92-3.874,5.387c0,3.133,2.625,5.714,5.811,5.714
		c3.186,0,5.811-2.581,5.811-5.714c0-2.467-1.627-4.595-3.874-5.387v-4.137h7.9l4.51,53.333H23.188L27.698,979.219z M37.534,986.838
		c1.093,0,1.937,0.83,1.937,1.905s-0.844,1.905-1.937,1.905s-1.937-0.83-1.937-1.905S36.441,986.838,37.534,986.838z
		 M62.716,986.838c1.093,0,1.937,0.83,1.937,1.905s-0.844,1.905-1.937,1.905s-1.937-0.83-1.937-1.905S61.623,986.838,62.716,986.838
		z"/>
</g>
</svg>
