<?xml version="1.0" encoding="utf-8"?>
<!-- Generator: Adobe Illustrator 17.0.0, SVG Export Plug-In . SVG Version: 6.00 Build 0)  -->
<!DOCTYPE svg PUBLIC "-//W3C//DTD SVG 1.1//EN" "http://www.w3.org/Graphics/SVG/1.1/DTD/svg11.dtd">
<svg version="1.1" id="Layer_1" xmlns="http://www.w3.org/2000/svg" xmlns:xlink="http://www.w3.org/1999/xlink" x="0px" y="0px"
	 width="100px" height="100px" viewBox="0 0 100 100" enable-background="new 0 0 100 100" xml:space="preserve">
<g transform="translate(0,-952.36218)">
	<path fill="#222222" d="M50.125,952.362c-11.893,0-21.558,7.85-21.558,17.512v5.837H14.196c-1.442,0.011-2.729,1.13-2.874,2.116
		l-7.186,70.046c-0.15,1.293,1.275,2.559,2.874,2.553h86.229c1.6,0,3.024-1.26,2.874-2.553l-7.186-70.046
		c-0.134-1.147-1.456-2.121-2.874-2.116H71.681v-5.837C71.683,960.214,62.018,952.362,50.125,952.362L50.125,952.362z
		 M50.125,957.033c8.808,0,15.809,5.686,15.809,12.842v5.837H34.316v-5.837C34.316,962.719,41.317,957.033,50.125,957.033z
		 M16.846,980.38h11.723v5.071c-3.334,0.971-5.749,3.579-5.749,6.603c0,3.84,3.895,7.004,8.623,7.004s8.623-3.164,8.623-7.004
		c0-3.024-2.414-5.633-5.749-6.603v-5.071h31.617v5.071c-3.334,0.971-5.749,3.579-5.749,6.603c0,3.84,3.895,7.004,8.623,7.004
		s8.623-3.164,8.623-7.004c0-3.024-2.414-5.633-5.749-6.603v-5.071h11.723l6.692,65.376H10.154L16.846,980.38z M31.442,989.72
		c1.622,0,2.874,1.017,2.874,2.335s-1.252,2.335-2.874,2.335s-2.874-1.017-2.874-2.335S29.82,989.72,31.442,989.72z M68.809,989.72
		c1.622,0,2.874,1.017,2.874,2.335s-1.252,2.335-2.874,2.335s-2.874-1.017-2.874-2.335S67.187,989.72,68.809,989.72z"/>
</g>
</svg>
