<?xml version="1.0" encoding="utf-8"?>
<!-- Generator: Adobe Illustrator 17.0.0, SVG Export Plug-In . SVG Version: 6.00 Build 0)  -->
<!DOCTYPE svg PUBLIC "-//W3C//DTD SVG 1.1//EN" "http://www.w3.org/Graphics/SVG/1.1/DTD/svg11.dtd">
<svg version="1.1" id="Layer_1" xmlns="http://www.w3.org/2000/svg" xmlns:xlink="http://www.w3.org/1999/xlink" x="0px" y="0px"
	 width="100px" height="100px" viewBox="0 0 100 100" enable-background="new 0 0 100 100" xml:space="preserve">
<path fill="#FFFFFF" d="M100.308-0.307c-0.924-0.924-2.421-0.924-3.345,0l-7.877,7.877c-1.415-0.841-3.057-1.333-4.81-1.333
	L60.457,6.225c-2.317,0.074-4.646,0.993-6.399,2.753L5.605,57.433C1.918,61.117,1.913,67.22,5.6,70.911l23.491,23.487
	c3.693,3.693,9.795,3.685,13.476-0.004l48.454-48.452c1.763-1.761,2.671-4.071,2.748-6.393V15.727
	c-0.001-1.756-0.496-3.398-1.338-4.813l7.877-7.877C101.231,2.114,101.231,0.616,100.308-0.307z M85.073,23.619
	c-0.001,4.805-3.89,8.697-8.697,8.697c-4.801,0-8.697-3.892-8.697-8.697c0-4.803,3.896-8.696,8.697-8.697
	c1.544,0,2.99,0.407,4.247,1.111l-3.717,3.717c-1.211-0.183-2.489,0.181-3.422,1.115c-1.561,1.561-1.561,4.092,0,5.653
	c1.561,1.561,4.092,1.561,5.653,0c0.933-0.933,1.295-2.21,1.115-3.421l3.716-3.716C84.669,20.635,85.073,22.079,85.073,23.619z"/>
</svg>
