<?xml version="1.0" encoding="utf-8"?>
<!-- Generator: Adobe Illustrator 17.0.0, SVG Export Plug-In . SVG Version: 6.00 Build 0)  -->
<!DOCTYPE svg PUBLIC "-//W3C//DTD SVG 1.1//EN" "http://www.w3.org/Graphics/SVG/1.1/DTD/svg11.dtd">
<svg version="1.1" id="Layer_1" xmlns="http://www.w3.org/2000/svg" xmlns:xlink="http://www.w3.org/1999/xlink" x="0px" y="0px"
	 width="80px" height="80px" viewBox="0 0 80 80" enable-background="new 0 0 80 80" xml:space="preserve">
<g>
	<g transform="translate(-5068.000000, -2475.000000)">
		<path d="M5116.653,2515.125l26.624-26.625c0.966-0.967,0.966-2.532,0-3.498l-5.278-5.279c-0.464-0.464-1.094-0.725-1.75-0.725
			c-0.656,0-1.286,0.261-1.75,0.725l-26.624,26.624l-26.623-26.624c-0.928-0.928-2.571-0.928-3.499,0l-5.278,5.279
			c-0.967,0.966-0.967,2.532,0,3.498l26.623,26.625l-26.623,26.622c-0.967,0.967-0.967,2.532,0,3.499l5.278,5.279
			c0.464,0.464,1.094,0.725,1.75,0.725c0.656,0,1.286-0.261,1.75-0.725l26.623-26.625l26.624,26.625
			c0.464,0.464,1.093,0.725,1.75,0.725c0.656,0,1.285-0.261,1.75-0.725l5.278-5.279c0.966-0.967,0.966-2.532,0-3.499
			L5116.653,2515.125z"/>
	</g>
</g>
</svg>
