<?xml version="1.0" encoding="utf-8"?>
<!-- Generator: Adobe Illustrator 17.0.0, SVG Export Plug-In . SVG Version: 6.00 Build 0)  -->
<!DOCTYPE svg PUBLIC "-//W3C//DTD SVG 1.1//EN" "http://www.w3.org/Graphics/SVG/1.1/DTD/svg11.dtd">
<svg version="1.1" id="Layer_1" xmlns="http://www.w3.org/2000/svg" xmlns:xlink="http://www.w3.org/1999/xlink" x="0px" y="0px"
	 width="100px" height="100px" viewBox="0 0 100 100" enable-background="new 0 0 100 100" xml:space="preserve">
<g>
	<path fill="none" stroke="#3196D3" stroke-width="2" stroke-linecap="round" stroke-linejoin="round" stroke-miterlimit="10" d="
		M45.916,15.719l10.431,4.711l13.356-4.996c2.083-0.844,3.277-3.198,2.433-5.281s-3.198-3.277-5.281-2.433L45.916,15.719z"/>
	
		<polygon fill="none" stroke="#3196D3" stroke-width="2" stroke-linecap="round" stroke-linejoin="round" stroke-miterlimit="10" points="
		3,22.994 16.29,35.276 41.074,25.995 34.5,19.86 21.144,24.856 10.571,20.134 	"/>
	<path fill="none" stroke="#3196D3" stroke-width="2" stroke-linecap="round" stroke-linejoin="round" stroke-miterlimit="10" d="
		M44.919,24.714"/>
	
		<polygon fill="none" stroke="#3196D3" stroke-width="2" stroke-linecap="round" stroke-linejoin="round" stroke-miterlimit="10" points="
		21.078,7.424 41.074,25.995 56.347,20.43 24.935,6 	"/>
</g>
<path fill="#3196D3" d="M51.968,31.739l-0.469-1.204l-3.398-0.924l0.705,1.81l1.11,0.302l-0.051,0.189l-0.971-0.264l-1.284-0.349
	l-0.102,0.377l1.284,0.35l-1.716,1.355l3.398,0.924l1.014-0.801c0.154,0.682,0.67,1.259,1.392,1.455l0,0l4.132,1.124l1.025-3.769
	l-4.132-1.124C53.184,30.993,52.447,31.229,51.968,31.739z M58.432,32.42l-0.154-0.042l-1.025,3.769l0.154,0.042
	c2.232,0.607,3.401-1.099,3.401-1.099S60.664,33.027,58.432,32.42z"/>
<path fill="#3196D3" d="M62.637,47.413l-0.38-1.616L58.1,44.011l0.572,2.43l1.358,0.584l-0.099,0.231l-1.188-0.511l-1.57-0.675
	l-0.198,0.461l1.571,0.676l-2.427,1.415l4.157,1.787l1.434-0.836c0.073,0.895,0.626,1.722,1.509,2.101l0,0l5.055,2.173l1.982-4.611
	l-5.055-2.173C64.317,46.683,63.338,46.85,62.637,47.413z M70.738,49.442l-0.188-0.081l-1.982,4.611l0.188,0.081
	c2.73,1.173,4.525-0.786,4.525-0.786S73.468,50.616,70.738,49.442z"/>
<path fill="#3196D3" d="M74.126,70.617l0.07-2.022l-4.316-3.43l-0.105,3.04l1.41,1.121l-0.19,0.24l-1.234-0.98L68.13,67.29
	l-0.38,0.478l1.631,1.298l-3.307,0.887l4.316,3.43l1.954-0.525c-0.2,1.076,0.185,2.225,1.102,2.954l0,0l5.249,4.172l3.805-4.787
	l-5.249-4.172C76.336,70.295,75.13,70.179,74.126,70.617z M83.002,75.594l-0.195-0.155l-3.805,4.787l0.195,0.155
	c2.834,2.253,5.572,0.523,5.572,0.523S85.837,77.847,83.002,75.594z"/>
</svg>
