<?xml version="1.0" encoding="utf-8"?>
<!-- Generator: Adobe Illustrator 17.0.0, SVG Export Plug-In . SVG Version: 6.00 Build 0)  -->
<!DOCTYPE svg PUBLIC "-//W3C//DTD SVG 1.1//EN" "http://www.w3.org/Graphics/SVG/1.1/DTD/svg11.dtd">
<svg version="1.1" id="Layer_1" xmlns="http://www.w3.org/2000/svg" xmlns:xlink="http://www.w3.org/1999/xlink" x="0px" y="0px"
	 width="100px" height="100px" viewBox="0 0 100 100" enable-background="new 0 0 100 100" xml:space="preserve">
<g>
	<path fill="#F05467" d="M25.271,38.759c-0.314,0.028-0.762,0.213-0.99,0.41c-0.185,0.16-0.19,0.281-0.161,0.353
		c0.008,0.02,0.021,0.041,0.04,0.061c0,0.026,0.005,0.049,0.013,0.068c0.029,0.072,0.113,0.156,0.355,0.146
		c0.168-0.007,0.373-0.058,0.577-0.142c0.204-0.084,0.381-0.192,0.496-0.303c0.157-0.15,0.154-0.262,0.123-0.329
		c-0.008-0.018-0.02-0.037-0.037-0.054c0-0.029-0.006-0.054-0.016-0.074C25.638,38.82,25.541,38.735,25.271,38.759z M25.426,39.095
		c-0.198,0.189-0.666,0.383-0.958,0.395c-0.03,0.001-0.053,0-0.075-0.001c0.015-0.017,0.033-0.035,0.057-0.056
		c0.1-0.086,0.247-0.172,0.414-0.241c0.167-0.069,0.336-0.114,0.476-0.126c0.047-0.004,0.085-0.004,0.115-0.002
		C25.446,39.073,25.438,39.083,25.426,39.095z"/>
	<path fill="#F05467" d="M34.163,44.189c0.001-0.018,0.003-0.035,0.003-0.053c-0.008-0.22-0.1-0.416-0.262-0.574l-1.298-3.14
		c0.002-0.029,0.006-0.058,0.005-0.086c-0.008-0.18-0.089-0.336-0.23-0.459l-1.104-2.67c0.076-0.172,0.085-0.328,0.024-0.466
		c-0.22-0.497-1.205-0.437-1.992-0.3c-0.898,0.157-1.995,0.492-3.091,0.945c-1.096,0.453-2.086,0.981-2.788,1.486
		c-0.834,0.6-1.18,1.098-1.027,1.478c0.056,0.14,0.172,0.244,0.348,0.312l1.094,2.647c-0.015,0.188,0.039,0.359,0.163,0.495
		c0.019,0.021,0.043,0.038,0.065,0.057l1.288,3.117c-0.006,0.229,0.07,0.437,0.226,0.602c0.011,0.012,0.025,0.022,0.037,0.033
		l0.897,2.168c0.027,0.808,0.772,1.335,2.004,1.413c1.051,0.066,2.292-0.196,3.431-0.667c1.141-0.472,2.179-1.152,2.822-1.921
		c0.708-0.847,0.816-1.653,0.297-2.216L34.163,44.189z M34.078,43.926c0.015,0.12-0.024,0.265-0.101,0.408
		c-0.026,0.049-0.058,0.099-0.092,0.148c-0.063,0.085-0.143,0.183-0.23,0.281c-0.002,0.002-0.003,0.004-0.005,0.006
		c-0.013,0.013-0.028,0.026-0.041,0.039l0.001,0.003c-0.089,0.097-0.184,0.189-0.274,0.261c-0.229,0.183-0.159,0.112-0.547,0.413
		c-0.063,0.045-0.127,0.089-0.196,0.127c-0.105,0.065-0.212,0.132-0.319,0.2c-0.107,0.069-0.217,0.136-0.333,0.194
		c-0.23,0.119-0.459,0.251-0.696,0.364c-0.241,0.105-0.482,0.211-0.719,0.315c-0.242,0.09-0.481,0.18-0.712,0.266
		c-0.229,0.092-0.463,0.144-0.679,0.211c-0.108,0.031-0.214,0.062-0.316,0.091c-0.104,0.023-0.205,0.045-0.302,0.067
		c-0.193,0.043-0.37,0.079-0.527,0.11c-0.158,0.019-0.296,0.036-0.41,0.049c-0.228,0.025-0.358,0.039-0.358,0.039
		s0.129-0.026,0.353-0.073c0.112-0.022,0.249-0.05,0.406-0.081c0.153-0.044,0.325-0.093,0.514-0.142
		c0.094-0.026,0.192-0.052,0.293-0.079c0.1-0.034,0.203-0.069,0.309-0.105c0.211-0.076,0.438-0.14,0.664-0.232
		c0.227-0.089,0.462-0.181,0.7-0.274c0.233-0.107,0.47-0.214,0.707-0.323c0.236-0.109,0.464-0.234,0.693-0.349
		c0.116-0.056,0.225-0.119,0.331-0.186c0.107-0.065,0.213-0.129,0.317-0.192c0.16-0.089,0.303-0.195,0.443-0.295l-1.428-3.2
		c0.224-0.169,0.434-0.339,0.624-0.509c0.043-0.039,0.082-0.077,0.123-0.115l1.296,3.342c0.003-0.003,0.006-0.005,0.009-0.008
		c0.139-0.134,0.257-0.267,0.341-0.398c0.083-0.131,0.129-0.262,0.124-0.372c-0.008-0.11-0.057-0.189-0.099-0.233
		c-0.042-0.044-0.069-0.064-0.069-0.064s0.028,0.017,0.075,0.057C33.998,43.729,34.062,43.806,34.078,43.926z M32.401,39.961
		c-0.042-0.043-0.069-0.064-0.069-0.064s0.028,0.017,0.075,0.057c0.046,0.039,0.11,0.116,0.127,0.236
		c0.015,0.12-0.024,0.265-0.101,0.408c-0.071,0.134-0.174,0.27-0.299,0.404l0.002,0.005c-0.071,0.068-0.144,0.137-0.221,0.206
		c-0.165,0.146-0.345,0.294-0.537,0.441l0-0.001c-0.103,0.08-0.209,0.158-0.327,0.224c-0.105,0.065-0.212,0.132-0.319,0.2
		c-0.107,0.069-0.217,0.136-0.333,0.194c-0.23,0.119-0.459,0.25-0.696,0.364c-0.241,0.106-0.482,0.211-0.719,0.315
		c-0.242,0.091-0.481,0.18-0.712,0.266c-0.229,0.092-0.463,0.144-0.678,0.211c-0.108,0.031-0.214,0.062-0.316,0.091
		c-0.104,0.023-0.205,0.046-0.301,0.067c-0.193,0.043-0.37,0.079-0.527,0.11c-0.159,0.019-0.296,0.035-0.41,0.049
		c-0.228,0.025-0.358,0.039-0.358,0.039s0.129-0.026,0.353-0.073c0.113-0.022,0.249-0.049,0.406-0.08
		c0.153-0.044,0.325-0.093,0.514-0.143c0.094-0.026,0.192-0.052,0.293-0.079c0.1-0.034,0.203-0.069,0.309-0.105
		c0.211-0.076,0.438-0.14,0.664-0.233c0.227-0.089,0.462-0.181,0.701-0.274c0.233-0.106,0.47-0.214,0.706-0.323
		c0.236-0.109,0.464-0.234,0.693-0.348c0.116-0.056,0.225-0.119,0.331-0.186c0.107-0.065,0.213-0.129,0.317-0.192
		c0.125-0.07,0.239-0.15,0.35-0.229l-1.348-3.023c0.186-0.124,0.364-0.248,0.529-0.373c0.143-0.109,0.272-0.217,0.395-0.324
		l1.203,3.103c0.112-0.113,0.209-0.226,0.28-0.337c0.083-0.13,0.129-0.262,0.124-0.372C32.492,40.084,32.442,40.005,32.401,39.961z
		 M23.014,40.369c0,0-0.09-0.023-0.12-0.035c-0.028-0.011-0.081-0.039-0.106-0.056c-0.023-0.016-0.049-0.043-0.056-0.06
		c-0.047-0.117,0.091-0.471,0.905-1.058c0.68-0.49,1.644-1.003,2.716-1.446c1.072-0.443,2.143-0.771,3.016-0.923
		c1.136-0.198,1.541-0.038,1.604,0.091c0,0,0.013,0.067-0.01,0.143c-0.015,0.048-0.08,0.162-0.08,0.162
		c-0.104,0.156-0.297,0.359-0.617,0.608c-0.681,0.532-1.742,1.113-2.911,1.596c-1.17,0.484-2.364,0.834-3.277,0.961
		C23.557,40.426,23.221,40.414,23.014,40.369z M35.224,46.81c0.041,0.117,0.056,0.272,0.025,0.443
		c-0.029,0.171-0.101,0.355-0.207,0.538c-0.053,0.092-0.115,0.186-0.185,0.279l-0.033,0.057c-0.059,0.08-0.123,0.159-0.197,0.234
		c-0.124,0.125-0.258,0.254-0.397,0.385c-0.045,0.039-0.09,0.077-0.135,0.117c-0.101,0.083-0.209,0.162-0.315,0.245
		c-0.108,0.08-0.223,0.154-0.336,0.233c-0.23,0.15-0.469,0.293-0.715,0.424c-0.248,0.127-0.5,0.248-0.752,0.353
		c-0.125,0.056-0.252,0.105-0.378,0.152c-0.125,0.049-0.249,0.095-0.374,0.135c-0.246,0.088-0.49,0.151-0.721,0.212
		c-0.233,0.053-0.453,0.104-0.659,0.136c-0.204,0.042-0.396,0.054-0.563,0.075c-0.169,0.012-0.317,0.018-0.438,0.025
		c-0.242-0.005-0.38-0.008-0.38-0.008s0.138-0.01,0.379-0.026c0.119-0.015,0.264-0.034,0.43-0.055
		c0.165-0.033,0.352-0.059,0.553-0.107c0.202-0.041,0.417-0.101,0.644-0.163c0.225-0.07,0.462-0.145,0.704-0.232
		c0.122-0.041,0.244-0.088,0.366-0.138c0.123-0.048,0.248-0.098,0.37-0.155c0.248-0.107,0.494-0.229,0.735-0.358
		c0.243-0.126,0.48-0.263,0.708-0.406c0.111-0.075,0.225-0.146,0.332-0.223c0.105-0.08,0.211-0.155,0.311-0.235
		c0.097-0.083,0.193-0.164,0.287-0.243c0.034-0.033,0.069-0.065,0.103-0.097l-1.225-2.746c0.198-0.153,0.384-0.306,0.554-0.458
		c0.012-0.01,0.021-0.02,0.032-0.03l1.071,2.763c0.049-0.064,0.095-0.128,0.137-0.192c0.108-0.172,0.189-0.341,0.228-0.5
		c0.04-0.159,0.037-0.305,0.006-0.419c-0.029-0.116-0.083-0.194-0.119-0.248c-0.042-0.049-0.064-0.075-0.064-0.075
		s0.025,0.024,0.071,0.069C35.12,46.616,35.186,46.691,35.224,46.81z"/>
</g>
<g>
	<path fill="#F05467" d="M61.739,56.071c-0.558-0.618-1.662-1.27-2.438-1.438c-0.632-0.137-0.894,0.045-1.001,0.222
		c-0.03,0.049-0.054,0.11-0.064,0.181c-0.054,0.042-0.094,0.089-0.122,0.135c-0.107,0.176-0.149,0.487,0.258,0.982
		c0.283,0.344,0.715,0.696,1.216,0.992c0.503,0.297,1.01,0.498,1.427,0.567c0.567,0.092,0.797-0.092,0.89-0.263
		c0.025-0.046,0.045-0.101,0.055-0.165c0.06-0.047,0.103-0.099,0.132-0.151C62.196,56.942,62.219,56.603,61.739,56.071z
		 M61.277,56.931c-0.714-0.117-1.867-0.797-2.356-1.394c-0.05-0.061-0.085-0.112-0.116-0.16c0.06,0.004,0.127,0.014,0.21,0.032
		c0.341,0.074,0.755,0.248,1.166,0.49c0.412,0.243,0.775,0.528,1.023,0.803c0.084,0.093,0.143,0.172,0.187,0.24
		C61.355,56.94,61.322,56.938,61.277,56.931z"/>
	<path fill="#F05467" d="M64.411,83.473c0.038-0.027,0.08-0.05,0.116-0.079c0.453-0.366,0.721-0.872,0.795-1.464l4.565-7.732
		c0.065-0.041,0.131-0.079,0.189-0.126c0.367-0.302,0.568-0.722,0.603-1.214l3.882-6.574c0.484-0.112,0.827-0.341,1.022-0.691
		c0.698-1.254-0.992-3.239-2.533-4.682c-1.757-1.646-4.211-3.43-6.908-5.022c-2.7-1.594-5.386-2.845-7.568-3.523
		c-2.593-0.807-4.192-0.745-4.754,0.181c-0.207,0.341-0.241,0.752-0.106,1.231l-3.848,6.517c-0.422,0.267-0.697,0.653-0.784,1.131
		c-0.013,0.073-0.013,0.151-0.018,0.227l-4.533,7.675c-0.492,0.352-0.811,0.841-0.912,1.433c-0.007,0.042-0.006,0.087-0.01,0.129
		l-3.152,5.339c-1.663,1.341-1.59,3.752,0.203,6.475c1.531,2.325,4.056,4.527,6.86,6.183c2.808,1.658,5.896,2.768,8.54,2.904
		c2.915,0.148,4.785-0.905,5.15-2.895L64.411,83.473z M64.832,82.875c-0.228,0.222-0.598,0.37-1.023,0.436
		c-0.146,0.024-0.301,0.035-0.459,0.042c-0.28,0.002-0.614-0.01-0.959-0.039c-0.007-0.001-0.014-0.001-0.021-0.002
		c-0.048-0.006-0.099-0.017-0.147-0.024l-0.005,0.008c-0.346-0.035-0.691-0.087-0.986-0.162c-0.75-0.193-0.489-0.156-1.741-0.497
		c-0.194-0.061-0.389-0.127-0.58-0.211c-0.305-0.117-0.615-0.237-0.929-0.357c-0.316-0.116-0.631-0.243-0.938-0.395
		c-0.617-0.295-1.258-0.571-1.875-0.892c-0.606-0.342-1.211-0.682-1.808-1.017c-0.576-0.368-1.144-0.73-1.694-1.08
		c-0.558-0.336-1.04-0.749-1.523-1.097c-0.239-0.179-0.47-0.353-0.695-0.521c-0.215-0.183-0.421-0.36-0.62-0.53
		c-0.398-0.338-0.755-0.656-1.07-0.937c-0.293-0.304-0.546-0.569-0.756-0.787c-0.415-0.442-0.651-0.694-0.651-0.694
		s0.26,0.229,0.714,0.629c0.226,0.202,0.5,0.446,0.814,0.728c0.335,0.254,0.713,0.539,1.117,0.859
		c0.204,0.158,0.414,0.323,0.634,0.493c0.231,0.156,0.468,0.318,0.713,0.485c0.496,0.324,0.992,0.702,1.546,1.033
		c0.549,0.338,1.116,0.688,1.692,1.043c0.596,0.323,1.2,0.651,1.804,0.979c0.605,0.325,1.231,0.607,1.838,0.908
		c0.301,0.156,0.61,0.285,0.919,0.404c0.307,0.124,0.61,0.245,0.909,0.365c0.444,0.196,0.894,0.331,1.327,0.466l4.485-8.101
		c0.714,0.205,1.406,0.376,2.067,0.509c0.151,0.031,0.293,0.051,0.439,0.078l-4.995,8.046c0.01,0.002,0.021,0.005,0.03,0.007
		c0.505,0.08,0.973,0.119,1.382,0.087c0.408-0.032,0.759-0.143,0.983-0.33c0.22-0.191,0.308-0.422,0.334-0.579
		c0.025-0.158,0.026-0.246,0.026-0.246s0.009,0.086-0.001,0.249C65.119,82.392,65.059,82.649,64.832,82.875z M70.535,73.033
		c0.025-0.158,0.026-0.246,0.026-0.246s0.009,0.086-0.001,0.25c-0.01,0.159-0.07,0.416-0.298,0.643
		c-0.228,0.222-0.597,0.37-1.023,0.436c-0.396,0.063-0.848,0.062-1.328,0.011l-0.007,0.013c-0.257-0.041-0.517-0.086-0.787-0.14
		c-0.572-0.116-1.169-0.262-1.785-0.433l0.001-0.002c-0.331-0.09-0.666-0.191-0.993-0.334c-0.305-0.117-0.615-0.237-0.929-0.357
		c-0.316-0.116-0.631-0.243-0.938-0.395c-0.617-0.296-1.258-0.571-1.874-0.892c-0.606-0.341-1.212-0.681-1.808-1.017
		c-0.577-0.367-1.144-0.729-1.694-1.08c-0.558-0.336-1.04-0.749-1.524-1.097c-0.239-0.179-0.47-0.353-0.694-0.522
		c-0.215-0.183-0.422-0.36-0.621-0.53c-0.398-0.338-0.755-0.657-1.07-0.937c-0.292-0.304-0.546-0.569-0.756-0.788
		c-0.415-0.441-0.652-0.693-0.652-0.693s0.26,0.229,0.714,0.629c0.226,0.203,0.5,0.447,0.814,0.729
		c0.336,0.254,0.714,0.539,1.117,0.858c0.204,0.158,0.414,0.323,0.633,0.493c0.231,0.156,0.468,0.318,0.713,0.485
		c0.496,0.324,0.992,0.701,1.547,1.033c0.549,0.339,1.116,0.689,1.692,1.044c0.595,0.322,1.199,0.651,1.804,0.978
		c0.605,0.325,1.231,0.607,1.837,0.909c0.301,0.156,0.61,0.285,0.919,0.404c0.307,0.123,0.611,0.244,0.909,0.365
		c0.348,0.153,0.696,0.267,1.04,0.375l4.239-7.652c0.557,0.197,1.102,0.375,1.627,0.524c0.456,0.128,0.891,0.23,1.312,0.318
		l-4.639,7.472c0.418,0.057,0.809,0.083,1.157,0.056c0.407-0.031,0.759-0.143,0.983-0.33C70.421,73.42,70.509,73.189,70.535,73.033z
		 M54.754,53.866c0,0-0.094-0.228-0.117-0.308c-0.022-0.076-0.045-0.234-0.05-0.313c-0.004-0.074,0.012-0.171,0.038-0.213
		c0.173-0.285,1.139-0.558,3.671,0.229c2.114,0.657,4.73,1.877,7.369,3.435c2.639,1.558,5.034,3.299,6.742,4.9
		c2.225,2.084,2.53,3.194,2.358,3.53c0,0-0.121,0.135-0.318,0.207c-0.124,0.045-0.469,0.09-0.469,0.09
		c-0.494,0.027-1.231-0.057-2.264-0.335c-2.205-0.593-5.119-1.908-7.996-3.607c-2.88-1.7-5.518-3.665-7.238-5.39
		C55.498,55.104,54.99,54.374,54.754,53.866z M60.565,89.877c-0.182,0.272-0.486,0.55-0.895,0.756
		c-0.407,0.209-0.91,0.352-1.465,0.417c-0.278,0.035-0.576,0.052-0.883,0.054l-0.173,0.022c-0.261,0.002-0.53-0.006-0.806-0.044
		c-0.461-0.063-0.947-0.141-1.444-0.227c-0.153-0.033-0.307-0.067-0.463-0.099c-0.336-0.08-0.673-0.183-1.017-0.276
		c-0.341-0.1-0.679-0.225-1.024-0.339c-0.682-0.248-1.365-0.525-2.032-0.835c-0.663-0.321-1.317-0.661-1.941-1.028
		c-0.316-0.175-0.621-0.366-0.92-0.556c-0.302-0.187-0.597-0.374-0.878-0.574c-0.577-0.379-1.098-0.795-1.594-1.185
		c-0.483-0.407-0.94-0.79-1.335-1.174c-0.413-0.365-0.745-0.749-1.054-1.07c-0.295-0.338-0.543-0.64-0.747-0.885
		c-0.373-0.519-0.587-0.815-0.587-0.815s0.24,0.276,0.659,0.759c0.222,0.227,0.491,0.503,0.8,0.82
		c0.332,0.295,0.684,0.65,1.105,0.996c0.407,0.362,0.876,0.72,1.369,1.1c0.506,0.364,1.041,0.745,1.61,1.117
		c0.28,0.193,0.574,0.374,0.874,0.553c0.298,0.183,0.601,0.366,0.915,0.534c0.62,0.354,1.268,0.678,1.924,0.984
		c0.652,0.314,1.318,0.596,1.983,0.849c0.335,0.116,0.665,0.243,0.998,0.347c0.335,0.095,0.662,0.2,0.99,0.283
		c0.329,0.074,0.653,0.147,0.97,0.219c0.124,0.02,0.246,0.041,0.369,0.062l3.849-6.951c0.636,0.174,1.256,0.324,1.847,0.442
		c0.04,0.008,0.077,0.012,0.116,0.02l-4.13,6.652c0.212,0.002,0.421-0.002,0.623-0.017c0.535-0.044,1.019-0.144,1.419-0.313
		c0.399-0.167,0.703-0.407,0.895-0.652c0.199-0.244,0.278-0.484,0.333-0.645c0.038-0.166,0.058-0.255,0.058-0.255
		s-0.012,0.09-0.033,0.261C60.809,89.35,60.756,89.608,60.565,89.877z"/>
</g>
<g>
	<path fill="#F05467" d="M54.775,10.427c-0.197-0.218-0.586-0.448-0.86-0.507c-0.223-0.048-0.315,0.016-0.353,0.078
		c-0.011,0.017-0.019,0.039-0.023,0.064c-0.019,0.015-0.033,0.031-0.043,0.048c-0.038,0.062-0.053,0.172,0.091,0.346
		c0.1,0.121,0.252,0.246,0.429,0.35c0.178,0.105,0.356,0.176,0.504,0.2c0.2,0.032,0.281-0.032,0.314-0.093
		c0.009-0.016,0.016-0.036,0.019-0.058c0.021-0.016,0.036-0.035,0.047-0.053C54.936,10.734,54.944,10.614,54.775,10.427z
		 M54.612,10.73c-0.252-0.041-0.659-0.281-0.831-0.492c-0.018-0.021-0.03-0.039-0.041-0.057c0.021,0.002,0.045,0.005,0.074,0.011
		c0.12,0.026,0.266,0.087,0.411,0.173c0.145,0.086,0.273,0.186,0.361,0.283c0.03,0.033,0.051,0.061,0.066,0.085
		C54.639,10.733,54.628,10.733,54.612,10.73z"/>
	<path fill="#F05467" d="M55.718,20.094c0.013-0.009,0.028-0.018,0.041-0.028c0.16-0.129,0.254-0.308,0.281-0.517l1.611-2.728
		c0.023-0.014,0.046-0.028,0.067-0.045c0.13-0.107,0.2-0.255,0.213-0.428l1.369-2.319c0.171-0.039,0.292-0.12,0.36-0.244
		c0.246-0.443-0.35-1.143-0.894-1.652c-0.62-0.581-1.485-1.21-2.437-1.772c-0.952-0.562-1.9-1.004-2.67-1.243
		c-0.915-0.285-1.479-0.263-1.677,0.064c-0.073,0.12-0.085,0.265-0.038,0.434l-1.358,2.299c-0.149,0.094-0.246,0.23-0.277,0.399
		c-0.005,0.026-0.005,0.053-0.006,0.08l-1.599,2.708c-0.174,0.124-0.286,0.297-0.322,0.506c-0.002,0.015-0.002,0.031-0.004,0.046
		l-1.112,1.884c-0.587,0.473-0.561,1.324,0.072,2.284c0.54,0.82,1.431,1.597,2.42,2.181c0.991,0.585,2.08,0.977,3.013,1.025
		c1.028,0.052,1.688-0.319,1.817-1.021L55.718,20.094z M55.866,19.883c-0.081,0.078-0.211,0.131-0.361,0.154
		c-0.051,0.008-0.106,0.012-0.162,0.015c-0.099,0.001-0.217-0.004-0.338-0.014c-0.003,0-0.005,0-0.008-0.001
		c-0.017-0.002-0.035-0.006-0.052-0.008l-0.002,0.003c-0.122-0.012-0.244-0.031-0.348-0.057c-0.265-0.068-0.173-0.055-0.614-0.175
		c-0.068-0.022-0.137-0.045-0.204-0.075c-0.108-0.041-0.217-0.084-0.328-0.126c-0.111-0.041-0.223-0.086-0.331-0.139
		c-0.218-0.104-0.444-0.201-0.661-0.315c-0.214-0.121-0.427-0.241-0.638-0.359c-0.203-0.13-0.404-0.258-0.597-0.381
		c-0.197-0.119-0.367-0.264-0.537-0.387c-0.084-0.063-0.166-0.125-0.245-0.184c-0.076-0.065-0.149-0.127-0.219-0.187
		c-0.14-0.119-0.266-0.231-0.377-0.33c-0.103-0.107-0.193-0.201-0.267-0.278c-0.146-0.156-0.23-0.245-0.23-0.245
		s0.092,0.081,0.252,0.222c0.08,0.071,0.176,0.157,0.287,0.257c0.118,0.089,0.252,0.19,0.394,0.303
		c0.072,0.056,0.146,0.114,0.224,0.174c0.081,0.055,0.165,0.112,0.252,0.171c0.175,0.114,0.35,0.248,0.545,0.365
		c0.194,0.119,0.394,0.243,0.597,0.368c0.21,0.114,0.423,0.23,0.637,0.345c0.213,0.115,0.434,0.214,0.648,0.32
		c0.106,0.055,0.215,0.101,0.324,0.142c0.108,0.044,0.215,0.087,0.321,0.129c0.156,0.069,0.315,0.117,0.468,0.164l1.582-2.858
		c0.252,0.072,0.496,0.133,0.729,0.18c0.053,0.011,0.103,0.018,0.155,0.028l-1.762,2.839c0.004,0.001,0.007,0.002,0.011,0.002
		c0.178,0.028,0.343,0.042,0.488,0.031c0.144-0.011,0.268-0.051,0.347-0.116c0.078-0.067,0.109-0.149,0.118-0.204
		c0.009-0.056,0.009-0.087,0.009-0.087s0.003,0.03,0,0.088C55.968,19.713,55.946,19.803,55.866,19.883z M57.878,16.411
		c0.009-0.056,0.009-0.087,0.009-0.087s0.003,0.03,0,0.088c-0.004,0.056-0.025,0.147-0.105,0.227
		c-0.081,0.078-0.211,0.13-0.361,0.154c-0.14,0.022-0.299,0.022-0.468,0.004l-0.003,0.004c-0.091-0.015-0.182-0.03-0.278-0.049
		c-0.202-0.041-0.412-0.092-0.63-0.153l0.001-0.001c-0.117-0.032-0.235-0.067-0.35-0.118c-0.108-0.041-0.217-0.084-0.328-0.126
		c-0.111-0.041-0.223-0.086-0.331-0.139c-0.218-0.104-0.444-0.202-0.661-0.315c-0.214-0.12-0.428-0.24-0.638-0.359
		c-0.204-0.13-0.404-0.257-0.597-0.381c-0.197-0.119-0.367-0.264-0.538-0.387c-0.084-0.063-0.166-0.125-0.245-0.184
		c-0.076-0.065-0.149-0.127-0.219-0.187c-0.14-0.119-0.266-0.232-0.377-0.33c-0.103-0.107-0.193-0.201-0.267-0.278
		c-0.146-0.156-0.23-0.245-0.23-0.245s0.092,0.081,0.252,0.222c0.08,0.071,0.176,0.158,0.287,0.257
		c0.119,0.09,0.252,0.19,0.394,0.303c0.072,0.056,0.146,0.114,0.223,0.174c0.081,0.055,0.165,0.112,0.252,0.171
		c0.175,0.114,0.35,0.247,0.546,0.364c0.194,0.12,0.394,0.243,0.597,0.368c0.21,0.114,0.423,0.23,0.636,0.345
		c0.213,0.115,0.434,0.214,0.648,0.321c0.106,0.055,0.215,0.101,0.324,0.142c0.108,0.043,0.215,0.086,0.321,0.129
		c0.123,0.054,0.246,0.094,0.367,0.132l1.495-2.7c0.196,0.069,0.389,0.132,0.574,0.185c0.161,0.045,0.314,0.081,0.463,0.112
		l-1.637,2.636c0.147,0.02,0.285,0.029,0.408,0.02c0.144-0.011,0.268-0.051,0.347-0.116C57.838,16.547,57.869,16.466,57.878,16.411z
		 M52.311,9.648c0,0-0.033-0.08-0.041-0.109c-0.008-0.027-0.016-0.082-0.018-0.11c-0.002-0.026,0.004-0.06,0.014-0.075
		c0.061-0.101,0.402-0.197,1.295,0.081c0.746,0.232,1.669,0.662,2.6,1.212c0.931,0.55,1.776,1.164,2.379,1.729
		c0.785,0.735,0.892,1.127,0.832,1.245c0,0-0.043,0.048-0.112,0.073c-0.044,0.016-0.165,0.032-0.165,0.032
		c-0.174,0.009-0.434-0.02-0.799-0.118c-0.778-0.209-1.806-0.673-2.821-1.273c-1.016-0.6-1.947-1.293-2.553-1.902
		C52.573,10.085,52.394,9.828,52.311,9.648z M54.361,22.353c-0.064,0.096-0.171,0.194-0.316,0.267
		c-0.144,0.074-0.321,0.124-0.517,0.147c-0.098,0.012-0.203,0.018-0.312,0.019l-0.061,0.008c-0.092,0.001-0.187-0.002-0.284-0.016
		c-0.163-0.022-0.334-0.05-0.509-0.08c-0.054-0.012-0.108-0.024-0.163-0.035c-0.119-0.028-0.237-0.065-0.359-0.097
		c-0.12-0.035-0.239-0.079-0.361-0.119c-0.24-0.088-0.481-0.185-0.717-0.294c-0.234-0.113-0.464-0.233-0.685-0.363
		c-0.112-0.062-0.219-0.129-0.325-0.196c-0.107-0.066-0.211-0.132-0.31-0.203c-0.203-0.134-0.387-0.281-0.562-0.418
		c-0.17-0.144-0.332-0.279-0.471-0.414c-0.146-0.129-0.263-0.264-0.372-0.378c-0.104-0.119-0.192-0.226-0.264-0.312
		c-0.132-0.183-0.207-0.288-0.207-0.288s0.085,0.097,0.232,0.268c0.078,0.08,0.173,0.178,0.282,0.289
		c0.117,0.104,0.241,0.229,0.39,0.351c0.143,0.128,0.309,0.254,0.483,0.388c0.179,0.128,0.367,0.263,0.568,0.394
		c0.099,0.068,0.203,0.132,0.308,0.195c0.105,0.065,0.212,0.129,0.323,0.188c0.219,0.125,0.447,0.239,0.679,0.347
		c0.23,0.111,0.465,0.21,0.7,0.3c0.118,0.041,0.235,0.086,0.352,0.122c0.118,0.033,0.234,0.071,0.349,0.1
		c0.116,0.026,0.231,0.052,0.342,0.077c0.044,0.007,0.087,0.015,0.13,0.022l1.358-2.452c0.224,0.062,0.443,0.114,0.652,0.156
		c0.014,0.003,0.027,0.004,0.041,0.007l-1.457,2.347c0.075,0.001,0.149-0.001,0.22-0.006c0.189-0.016,0.36-0.051,0.501-0.11
		c0.141-0.059,0.248-0.143,0.316-0.23c0.07-0.086,0.098-0.171,0.117-0.228c0.013-0.059,0.02-0.09,0.02-0.09
		s-0.004,0.032-0.012,0.092C54.447,22.167,54.428,22.258,54.361,22.353z"/>
</g>
</svg>
