<?xml version="1.0" encoding="utf-8"?>
<!-- Generator: Adobe Illustrator 17.0.0, SVG Export Plug-In . SVG Version: 6.00 Build 0)  -->
<!DOCTYPE svg PUBLIC "-//W3C//DTD SVG 1.1//EN" "http://www.w3.org/Graphics/SVG/1.1/DTD/svg11.dtd">
<svg version="1.1" xmlns="http://www.w3.org/2000/svg" xmlns:xlink="http://www.w3.org/1999/xlink" x="0px" y="0px" width="100px"
	 height="100px" viewBox="0 0 100 100" enable-background="new 0 0 100 100" xml:space="preserve">
<g id="Layer_2">
</g>
<g id="Layer_1">
	<rect x="3.795" y="9.216" fill="none" width="96.205" height="79.839"/>
	<path fill="#22BF99" d="M74.762,80.43L76,78.637h1.925l-2.349,2.153L74.762,80.43z M90.304,76.86h-6.262v-0.935
		c0-0.326-0.266-0.592-0.596-0.592c-0.326,0-0.592,0.266-0.592,0.592v1.871l-8.587,8.661h-1.426v-3.254l1.232-1.78l1.376,0.609
		c0.077,0.034,0.162,0.05,0.242,0.05c0.145,0,0.289-0.054,0.4-0.155l3.59-3.291h1.884c0.33,0,0.596-0.269,0.596-0.596
		c0-0.33-0.266-0.596-0.596-0.596h-5.874c-0.195,0-0.377,0.098-0.488,0.256l-7.029,10.165h-2.13l-7.783-8.311
		c-0.222-0.239-0.599-0.252-0.838-0.03c-0.239,0.225-0.252,0.602-0.03,0.841l0.454,0.488l1.282,5.602l-46.057,0.007l-4.132,0.7
		H7.726c0.007-0.003,0.01-0.003,0.013-0.007c0.013-0.017,0.02-0.037,0.034-0.054l6.087-5.656l2.056,1.255
		c0.114,0.071,0.242,0.098,0.373,0.084l21.72-2.45l8.012-2.271l6.679,1.265c0.165,0.03,0.34-0.01,0.478-0.114l4.946-3.869
		l3.281-1.898l3.17,1.181c0.155,0.061,0.33,0.05,0.481-0.027c0.148-0.077,0.259-0.215,0.299-0.38l1.289-4.973l2.443-1.369
		l2.631,0.915l0.851,2.325l-0.791,4.209l-0.609,0.283h-5.038c-0.172,0-0.336,0.074-0.451,0.205
		c-0.111,0.128-0.162,0.303-0.138,0.471l0.548,3.873c0.04,0.293,0.293,0.511,0.589,0.511h2.1L67.336,82.4l-3.859-5.299
		c-0.195-0.266-0.565-0.323-0.831-0.131c-0.266,0.195-0.323,0.565-0.128,0.831l4.307,5.915c0.108,0.148,0.276,0.239,0.461,0.242
		h0.02c0.175,0,0.343-0.077,0.458-0.212l4.808-5.764l3.721-0.855c0.32-0.074,0.518-0.39,0.448-0.71
		c-0.074-0.32-0.387-0.525-0.713-0.448l-3.917,0.902c-0.128,0.027-0.239,0.098-0.323,0.199l-2.012,2.409h-2.577l-0.38-2.682h4.485
		c0.087,0,0.172-0.02,0.252-0.057l3.563-1.666h16.73L90.304,76.86z M5.094,83.704l2.278-5.222l2.069,0.771l0.622,4.095l-2.749,2.554
		L5.094,83.704z M7.019,57.25l3.011-3.88l5.744,6.383c0.128,0.141,0.326,0.215,0.505,0.195c0.188-0.02,0.357-0.128,0.451-0.293
		l2.914-5.044l5.051-0.801l-0.205,0.444c0,0,0,0,0,0.003l-0.74,1.605h-1.733c-0.249,0-0.471,0.155-0.559,0.387L18.8,63.355
		l-3.264,1.598l-7.063-6.467c-0.246-0.222-0.619-0.205-0.841,0.037s-0.205,0.619,0.037,0.841l0.801,0.73l-0.222-0.185l8.863,10.713
		v1.386c0,0.04,0.007,0.081,0.013,0.124l1.935,9.145L16.36,81.58l-2.268-1.383c-0.225-0.138-0.518-0.108-0.713,0.074l-0.908,0.845
		l-5.454-7.958L7.019,57.25z M13.247,51.948c0.135-0.061,0.246-0.172,0.303-0.31l2.729-6.363l2.271-0.972l3.301,1.615l0.336,2.954
		l-0.808,1.689c-0.037,0.081-0.054,0.165-0.054,0.249h-1.114c-0.061,0-0.121,0.01-0.178,0.027l-6.346,1.999
		c-0.303,0.094-0.474,0.41-0.397,0.717l0.609,2.345l-2.724-3.028L13.247,51.948z M23.927,73.226l3.139-1.629
		c0.293-0.151,0.407-0.511,0.256-0.801c-0.151-0.293-0.511-0.404-0.801-0.252l-7.675,3.984l-0.545-2.58v-4.192l4.236-1.968H24.6
		c0.172,0,0.336-0.074,0.448-0.205l0.606-0.697c0.108,0.118,0.262,0.195,0.434,0.195h1.709l1.272,3.294l-3.55,12.164
		c0,0.007,0,0.01,0,0.013l-3.096,0.347l1.507-7.638C23.93,73.25,23.927,73.24,23.927,73.226 M20.246,81.144l-1.144-5.407l3.486-1.81
		l-1.403,7.113L20.246,81.144z M18.301,65.787h1.413l-1.413,0.656V65.787z M21.151,60.457c0.017,0.037,0.02,0.077,0.044,0.114
		c0.114,0.182,0.31,0.283,0.508,0.283c0.104,0,0.215-0.03,0.313-0.091l7.991-4.936c0.175-0.108,0.283-0.299,0.283-0.505v-2.248
		c0-0.326-0.269-0.592-0.596-0.592c-0.326,0-0.596,0.266-0.596,0.592v0.818h-3.133l0.273-0.596c0.091-0.195,0.067-0.431-0.067-0.606
		c-0.131-0.175-0.353-0.266-0.565-0.229l-6.427,1.02c-0.175,0.027-0.33,0.135-0.421,0.289l-2.648,4.579l-0.485-0.538l-1.04-4.011
		l5.72-1.804h20.146l-2.281,1.948H33.5v-0.868c0-0.33-0.266-0.596-0.596-0.596c-0.326,0-0.592,0.266-0.592,0.596v2.335l-7.985,9.186
		h-5.37l0.575-0.283c0.135-0.064,0.242-0.182,0.296-0.323L21.151,60.457z M24.671,56.705l0.747-1.625h3.536l-7.53,4.65l1.003-2.678
		h1.703C24.361,57.052,24.573,56.917,24.671,56.705 M43.974,59.643l-0.626,6.013l-1.726,12.426l-3.839,1.094L26.794,80.41
		l3.469-11.894c0.037-0.124,0.03-0.259-0.013-0.38l-1.491-3.859c-0.087-0.229-0.31-0.38-0.555-0.38h-1.689l6.837-7.87
		c0.094-0.108,0.148-0.246,0.148-0.387v-0.505h4.889c0.141,0,0.279-0.05,0.384-0.141l2.665-2.275
		c0.212-0.182,0.256-0.478,0.131-0.72h4.149L43.974,59.643z M48.349,71.147l2.699-9.842l2.81-5.579l1.164,8.674l1.332,10.734
		c0.003,0.027,0.017,0.05,0.024,0.074l-3.718,2.904l-5.139-0.972L48.349,71.147z M45.916,34.794l6.363-6.356l2.914-1.356h2.379
		c0.242,0,0.464-0.151,0.552-0.38l0.552-1.41l2.032,3.846l-3.732,6.585c-0.081,0.141-0.101,0.31-0.05,0.468
		c0.027,0.094,0.087,0.175,0.158,0.242l4.256,6.881l0.259,2.167H47.265l0.4-6.42c0.007-0.091-0.01-0.185-0.047-0.269L45.916,34.794z
		 M41.488,32.153l-1.07-0.73l2.13-6.104l3.856-2.312l0.326,2.015l-2.964,0.895c-0.313,0.098-0.491,0.427-0.397,0.744
		c0.077,0.256,0.316,0.421,0.572,0.421c0.057,0,0.114-0.007,0.172-0.024l11.824-3.58h2.174l-0.942,2.416h-2.103
		c-0.084,0-0.172,0.02-0.249,0.057L41.488,32.153z M74.119,21.305l-1.312,0.983H55.845c-0.057,0-0.114,0.01-0.172,0.024
		l-7.796,2.362l-0.545-3.368L74.119,21.305L74.119,21.305z M49.153,15.383l2.15-2.012h2.406l2.251,2.382v4.361h-6.807V15.383z
		 M59.382,23.475h6.649l-0.064,0.229l-2.719,1.191c-0.118,0.05-0.215,0.138-0.276,0.249l-1.568,2.766l-1.975-3.738
		C59.375,24.071,59.291,24,59.2,23.947L59.382,23.475z M68.887,24.279l-3.328,2.096c-0.121,0.074-0.209,0.188-0.249,0.32
		l-3.472,10.787l-3.516-1.726l5.582-9.852l2.796-1.225c0.162-0.071,0.283-0.212,0.333-0.38l0.232-0.821h1.622
		C68.887,23.478,68.887,24.279,68.887,24.279z M99.402,73.889h-0.505V73.32h-2.005v0.569H74.984c-0.084,0-0.172,0.02-0.252,0.057
		l-1.629,0.76l0.663-3.53c0.02-0.104,0.013-0.212-0.024-0.313l-1.003-2.742c-0.061-0.168-0.195-0.299-0.363-0.357l-3.149-1.097
		c-0.158-0.057-0.336-0.044-0.488,0.044l-2.897,1.625c-0.141,0.081-0.242,0.212-0.283,0.37l-1.184,4.579l-2.079-0.777
		c0.007-0.037,0.024-0.074,0.024-0.114V46.658c0.151-0.013,0.296-0.077,0.397-0.192c0.111-0.128,0.165-0.296,0.145-0.464
		l-0.855-7.137c0.061,0.02,0.125,0.044,0.188,0.044c0.077,0,0.158-0.017,0.232-0.047c0.158-0.067,0.279-0.199,0.333-0.363
		l3.614-11.235l3.422-2.157c0.175-0.108,0.279-0.299,0.279-0.501v-1.131h2.931c0.128,0,0.252-0.04,0.357-0.118l2.739-2.056h10.189
		c0.326,0,0.592-0.266,0.592-0.592c0-0.33-0.266-0.596-0.592-0.596h-0.673V19.04h-2.007v1.073H57.147v-4.6
		c0-0.148-0.061-0.296-0.162-0.407l-2.588-2.742c-0.111-0.118-0.269-0.185-0.431-0.185h-2.9c-0.151,0-0.296,0.057-0.407,0.158
		l-2.507,2.352c-0.121,0.111-0.188,0.269-0.188,0.434v4.99h-1.332c-0.175,0-0.34,0.077-0.454,0.209
		c-0.111,0.135-0.162,0.31-0.131,0.481l0.151,0.939l-4.445,2.665c-0.121,0.071-0.212,0.182-0.256,0.313l-2.352,6.74
		c-0.087,0.252,0.003,0.535,0.225,0.686l1.726,1.174c0.098,0.071,0.215,0.104,0.333,0.104c0.084,0,0.172-0.02,0.249-0.057
		l1.952-0.908l2.836,6.662l-0.431,6.911c-0.01,0.165,0.047,0.326,0.162,0.444c0.114,0.121,0.269,0.188,0.434,0.188h0.451
		l-0.781,2.995c-0.084,0.32,0.108,0.646,0.424,0.727c0.05,0.013,0.101,0.02,0.148,0.02c0.266,0,0.505-0.178,0.575-0.448l0.861-3.294
		h3.422l9.391,2.904v22.685c-0.024,0.01-0.047,0.01-0.074,0.02l-3.59,2.086l-0.007,0.003l-1.255-10.118l-1.396-10.4l0.643-1.275
		c0.145-0.293,0.027-0.649-0.266-0.797c-0.293-0.148-0.649-0.034-0.797,0.262l-4.438,8.843l-2.759,10.027l-0.834,6.009l-0.246-0.047
		c-0.091-0.017-0.185-0.01-0.273,0.013l-2.964,0.845l1.659-11.928l0.616-5.962l1.793-7.84h3.755c0.326,0,0.592-0.266,0.592-0.592
		c0-0.33-0.266-0.596-0.592-0.596h-0.131V49.81h-2.005v0.996H22.581l0.754-1.578c0.047-0.098,0.067-0.212,0.054-0.323l-0.39-3.446
		c-0.024-0.202-0.148-0.377-0.33-0.468L18.83,43.11c-0.158-0.074-0.336-0.077-0.495-0.01l-2.742,1.174
		c-0.141,0.061-0.252,0.172-0.313,0.313l-2.729,6.366l-2.55,1.134c-0.229-0.064-0.485,0.007-0.636,0.205L5.956,56.68
		c-0.081,0.101-0.124,0.232-0.124,0.363v16.296c0,0.121,0.034,0.236,0.104,0.336l2.759,4.028L7.261,77.17
		c-0.299-0.108-0.626,0.03-0.754,0.32l-2.662,6.114c-0.101,0.222-0.047,0.488,0.124,0.659l2.476,2.45l-0.653,0.609
		c-0.178,0.168-0.239,0.427-0.151,0.653c0.091,0.225,0.31,0.377,0.555,0.377l2.84-0.007l4.135-0.7h46.067
		c0.061,0,0.118-0.007,0.172-0.027l3.711-1.131l2.231,2.382c0.111,0.118,0.269,0.185,0.434,0.185h2.699
		c0.195,0,0.377-0.094,0.488-0.256l1.265-1.83l0.801,0.569c0.101,0.071,0.222,0.108,0.343,0.108h3.136
		c0.158,0,0.31-0.064,0.421-0.175l8.933-9.011c0.108-0.108,0.168-0.256,0.168-0.411h6.538c0.172,0,0.336-0.077,0.448-0.205
		l2.275-2.625c0.034-0.044,0.054-0.094,0.077-0.141h6.026c0.33,0,0.596-0.266,0.596-0.596
		C100.001,74.155,99.732,73.889,99.402,73.889"/>
	<rect x="3.795" y="9.216" fill="none" width="96.205" height="79.839"/>
	<path fill="#22BF99" d="M68.552,10.406h2.177c0.33,0,0.596-0.266,0.596-0.596c0-0.326-0.266-0.592-0.596-0.592h-2.177
		c-0.326,0-0.596,0.266-0.596,0.592C67.956,10.14,68.225,10.406,68.552,10.406"/>
	<rect x="3.795" y="9.216" fill="none" width="96.205" height="79.839"/>
	<path fill="#22BF99" d="M65.464,17.871c0.114,0.175,0.303,0.266,0.495,0.266c0.114,0,0.225-0.03,0.326-0.098l1.817-1.201
		c0.276-0.182,0.35-0.548,0.172-0.824c-0.182-0.273-0.552-0.35-0.824-0.168l-1.817,1.201C65.36,17.228,65.283,17.595,65.464,17.871"
		/>
	<rect x="3.795" y="9.216" fill="none" width="96.205" height="79.839"/>
	<path fill="#22BF99" d="M65.731,13.717c0.094,0.232,0.316,0.373,0.552,0.373c0.074,0,0.148-0.013,0.222-0.044
		c0.303-0.121,0.451-0.468,0.33-0.771l-0.808-2.022c-0.125-0.306-0.471-0.458-0.774-0.333c-0.303,0.121-0.451,0.468-0.33,0.774
		L65.731,13.717z"/>
	<rect x="3.795" y="9.216" fill="none" width="96.205" height="79.839"/>
	<path fill="#22BF99" d="M83.657,70.312l2.177,0.03h0.01c0.323,0,0.589-0.259,0.592-0.585c0.007-0.326-0.256-0.599-0.585-0.602
		l-2.177-0.03h-0.01c-0.323,0-0.589,0.259-0.592,0.585C83.065,70.037,83.331,70.309,83.657,70.312"/>
	<rect x="3.795" y="9.216" fill="none" width="96.205" height="79.839"/>
	<path fill="#22BF99" d="M81.1,68.499c0.111,0,0.222-0.03,0.32-0.094l1.837-1.174c0.276-0.175,0.357-0.545,0.178-0.821
		c-0.175-0.276-0.545-0.357-0.821-0.182l-1.834,1.174c-0.276,0.178-0.357,0.545-0.178,0.821
		C80.713,68.402,80.905,68.499,81.1,68.499"/>
	<rect x="3.795" y="9.216" fill="none" width="96.205" height="79.839"/>
	<path fill="#22BF99" d="M81.48,64.46c0.071,0,0.141-0.013,0.212-0.04c0.306-0.118,0.461-0.461,0.343-0.767l-0.777-2.032
		c-0.118-0.31-0.464-0.461-0.771-0.343c-0.306,0.118-0.458,0.461-0.34,0.767l0.777,2.036C81.016,64.315,81.241,64.46,81.48,64.46"/>
	<rect x="3.795" y="9.216" fill="none" width="96.205" height="79.839"/>
	<path fill="#22BF99" d="M34.784,48.728c0,0.326,0.266,0.596,0.596,0.596h2.177c0.326,0,0.596-0.269,0.596-0.596
		c0-0.326-0.269-0.596-0.596-0.596H35.38C35.05,48.133,34.784,48.402,34.784,48.728"/>
	<rect x="3.795" y="9.216" fill="none" width="96.205" height="79.839"/>
	<path fill="#22BF99" d="M32.291,47.28c0.114,0.175,0.303,0.266,0.495,0.266c0.114,0,0.225-0.03,0.326-0.098l1.82-1.201
		c0.273-0.182,0.35-0.548,0.168-0.821c-0.178-0.276-0.552-0.35-0.824-0.168l-1.817,1.201C32.186,46.637,32.109,47.004,32.291,47.28"
		/>
	<path fill="#22BF99" d="M32.557,43.127c0.094,0.232,0.316,0.373,0.552,0.373c0.074,0,0.148-0.013,0.222-0.044
		c0.303-0.121,0.451-0.468,0.33-0.771l-0.808-2.022c-0.124-0.306-0.471-0.454-0.774-0.333c-0.303,0.121-0.451,0.468-0.33,0.774
		L32.557,43.127z"/>
</g>
</svg>
