<?xml version="1.0" encoding="utf-8"?>
<!-- Generator: Adobe Illustrator 17.0.0, SVG Export Plug-In . SVG Version: 6.00 Build 0)  -->
<!DOCTYPE svg PUBLIC "-//W3C//DTD SVG 1.1//EN" "http://www.w3.org/Graphics/SVG/1.1/DTD/svg11.dtd">
<svg version="1.1" id="Layer_1" xmlns="http://www.w3.org/2000/svg" xmlns:xlink="http://www.w3.org/1999/xlink" x="0px" y="0px"
	 width="100px" height="100px" viewBox="0 0 100 100" enable-background="new 0 0 100 100" xml:space="preserve">
<g>
	<g>
		<g>
			<g>
				<g>
					<path fill="#A5D06A" d="M77.175,86.146c-0.258,0-0.516-0.045-0.764-0.137l-14.926-5.516c-0.912-0.337-1.495-1.232-1.437-2.202
						l0.18-2.954l-2.872,2.87c-0.641,1.944-3.085,3.071-6.811,3.071h-1.717c-3.724,0-6.17-1.127-6.811-3.071l-2.872-2.87l0.18,2.954
						c0.058,0.97-0.525,1.865-1.437,2.202l-14.926,5.516c-0.667,0.245-1.412,0.158-2-0.243l-5.516-3.732
						c-0.378-0.255-0.667-0.621-0.828-1.049L7.481,62.047c-0.136-0.361-0.175-0.751-0.114-1.13l0.973-6.001
						c0.128-0.79,0.674-1.447,1.425-1.72l15.088-5.468c0.587-0.212,1.216-0.162,1.746,0.105c-1.19-3.344-2.129-7.492-2.073-12.185
						l-1.086-2.365c-0.244-0.53-0.267-1.137-0.065-1.685l1.622-4.39c0.32-0.866,1.146-1.441,2.069-1.441h0.05
						c1.09-2.21,3.541-6.546,6.992-8.93v-4.602c0-1.07,0.768-1.985,1.821-2.172l5.488-0.974c0.614-0.109,1.244,0.047,1.737,0.43
						C43.645,9.9,43.954,10.471,44,11.094l0.312,4.125h10.746l0.312-4.125c0.046-0.622,0.355-1.194,0.847-1.577
						c0.493-0.383,1.123-0.538,1.737-0.43l5.489,0.974c1.053,0.187,1.821,1.103,1.821,2.172v4.602c3.45,2.384,5.903,6.72,6.992,8.93
						h0.049c0.923,0,1.749,0.575,2.069,1.441l1.622,4.39c0.203,0.548,0.18,1.155-0.065,1.685l-1.086,2.365
						c0.056,4.693-0.884,8.842-2.073,12.185c0.53-0.267,1.159-0.318,1.746-0.105l15.088,5.468c0.752,0.272,1.297,0.931,1.425,1.72
						l0.974,6.001c0.062,0.38,0.023,0.77-0.114,1.13l-7.138,18.939c-0.161,0.428-0.45,0.794-0.828,1.049l-5.516,3.732
						C78.04,86.018,77.609,86.146,77.175,86.146z M64.549,76.923l12.328,4.555l3.997-2.704l6.683-17.732L86.885,56.9l-12.29-4.454
						l-5.355,7.555c-0.346,0.489-0.876,0.815-1.468,0.905c-0.591,0.087-1.194-0.064-1.671-0.428l-0.974-0.743
						c-0.547-0.417-0.868-1.065-0.868-1.753v-2.714c0-0.491,0.163-0.968,0.465-1.355c0.057-0.073,5.997-7.898,5.7-18.667
						c-0.01-0.34,0.06-0.675,0.201-0.983l0.916-1.995l-0.774-2.094c-0.862-0.03-1.631-0.561-1.962-1.362
						c-0.777-1.869-3.508-7.096-6.761-8.779c-0.733-0.379-1.193-1.134-1.193-1.958v-3.992l-1.268-0.225l-0.282,3.734
						c-0.087,1.151-1.045,2.04-2.199,2.04H42.269c-1.153,0-2.113-0.889-2.199-2.04l-0.282-3.734l-1.267,0.225v3.992
						c0,0.825-0.46,1.581-1.193,1.958c-3.254,1.683-5.985,6.91-6.762,8.781c-0.332,0.799-1.101,1.33-1.961,1.36l-0.774,2.094
						l0.916,1.995c0.141,0.307,0.21,0.643,0.201,0.981c-0.297,10.77,5.643,18.594,5.703,18.673c0.298,0.386,0.462,0.863,0.462,1.352
						v2.714c0,0.687-0.321,1.335-0.867,1.753l-0.973,0.743c-0.475,0.363-1.078,0.514-1.671,0.428
						c-0.592-0.09-1.121-0.417-1.468-0.905l-5.355-7.555l-12.29,4.454l-0.672,4.143l6.684,17.731l3.997,2.704l12.328-4.555
						l-0.55-9.073c-0.062-1.027,0.593-1.958,1.579-2.25c0.986-0.288,2.042,0.139,2.545,1.034c0.828,1.472,2.374,1.633,2.439,1.64
						c1.134,0.107,2.04,1.061,2.04,2.199v2.354l2.738,2.737c0.256,0.255,0.442,0.568,0.548,0.906
						c0.547,0.212,1.726,0.394,2.665,0.394h1.717c0.96-0.003,2.122-0.182,2.665-0.393c0.105-0.341,0.292-0.653,0.548-0.908
						l2.738-2.738v-2.353c0-1.168,0.91-2.133,2.074-2.201c0.03-0.004,1.576-0.165,2.404-1.638c0.505-0.895,1.563-1.322,2.545-1.034
						c0.986,0.291,1.641,1.223,1.579,2.25L64.549,76.923z"/>
				</g>
			</g>
			<g>
				<g>
					<path fill="#A5D06A" d="M33.928,47.526L33.928,47.526c-1.517,0-5.186-0.849-6.49-8.705c-1.79-10.783,6.94-13.435,7.942-13.7
						c0.519-0.139,1.201-0.212,1.971-0.212c2.604,0,6.12,0.852,8.183,3.249c1.5,1.741,2.054,4.003,1.646,6.723
						c-1.34,8.948-12.03,12.411-12.484,12.555C34.557,47.472,34.306,47.526,33.928,47.526z M37.351,27.115
						c-0.801,0-1.247,0.096-1.403,0.137c-1.31,0.35-7.774,2.531-6.334,11.208c1.203,7.248,4.28,6.889,4.519,6.846
						c0-0.004,9.733-3.175,10.868-10.752c0.308-2.056-0.075-3.724-1.137-4.957C42.287,27.766,39.466,27.115,37.351,27.115z"/>
				</g>
			</g>
			<g>
				<g>
					<path fill="#A5D06A" d="M65.578,47.526c-0.376,0-0.629-0.054-0.696-0.069c-0.528-0.163-11.217-3.627-12.558-12.575
						c-0.408-2.72,0.147-4.982,1.646-6.723c2.063-2.396,5.581-3.249,8.183-3.249c0.77,0,1.451,0.073,1.972,0.212
						c1.001,0.266,9.732,2.918,7.942,13.7C70.763,46.677,67.095,47.526,65.578,47.526z M62.154,27.115
						c-2.114,0-4.936,0.652-6.513,2.482c-1.062,1.233-1.446,2.901-1.137,4.957c1.115,7.441,10.464,10.613,10.947,10.773
						c-0.032-0.014,0.035-0.006,0.126-0.006c0.744,0,3.258-0.495,4.314-6.861c1.44-8.677-5.024-10.859-6.334-11.207
						C63.401,27.211,62.956,27.115,62.154,27.115z"/>
				</g>
			</g>
			<g>
				<g>
					<path fill="#A5D06A" d="M59.026,74.788c-1.217,0-2.205-0.988-2.205-2.205c0-0.581-2.502-2.337-7.055-2.337
						c-4.552,0-7.054,1.756-7.054,2.337c0,1.217-0.988,2.205-2.205,2.205c-1.217,0-2.205-0.988-2.205-2.205
						c0-3.846,4.929-6.748,11.465-6.748s11.466,2.901,11.466,6.748C61.231,73.801,60.244,74.788,59.026,74.788z"/>
				</g>
			</g>
			<g>
				<g>
					<path fill="#A5D06A" d="M48.716,64.408c-3.428,0-6.218-2.79-6.218-6.219c0-3.43,2.79-6.219,6.218-6.219
						c3.428,0,6.218,2.79,6.218,6.219C54.935,61.618,52.145,64.408,48.716,64.408z M48.716,54.176c-2.213,0-4.013,1.801-4.013,4.014
						c0,2.213,1.8,4.014,4.013,4.014c2.213,0,4.013-1.801,4.013-4.014C52.729,55.977,50.928,54.176,48.716,54.176z"/>
				</g>
			</g>
			<g>
				<g>
					<path fill="#A5D06A" d="M62.249,80.626c0,0-0.001,0-0.002,0c-1.216-0.001-2.201-0.984-2.203-2.199
						c-0.001-0.572,0.114-14.202,11.961-29.953c0.732-0.974,2.115-1.169,3.088-0.437c0.974,0.732,1.169,2.115,0.437,3.089
						c-10.902,14.493-11.075,27.174-11.075,27.3C64.45,79.642,63.464,80.626,62.249,80.626z"/>
				</g>
			</g>
			<g>
				<g>
					<path fill="#A5D06A" d="M37.26,80.63c-0.001,0-0.002,0-0.003,0c-1.216-0.002-2.201-0.988-2.202-2.203
						c0-0.147-0.182-12.818-11.075-27.301c-0.732-0.974-0.537-2.357,0.437-3.089c0.973-0.731,2.355-0.536,3.088,0.437
						c11.848,15.752,11.963,29.383,11.961,29.954C39.463,79.645,38.476,80.63,37.26,80.63z"/>
				</g>
			</g>
			<g>
				<g>
					<path fill="#A5D06A" d="M22.202,86.146c-0.674,0-1.338-0.307-1.771-0.89C10.264,71.587,9.172,56.515,9.13,55.88
						c-0.079-1.216,0.841-2.266,2.057-2.346c1.215-0.069,2.263,0.84,2.344,2.054c0.011,0.163,1.082,14.456,10.437,27.035
						c0.728,0.977,0.525,2.359-0.453,3.085C23.121,86.003,22.66,86.146,22.202,86.146z"/>
				</g>
			</g>
			<g>
				<g>
					<path fill="#A5D06A" d="M77.437,86.146c-0.458,0-0.919-0.142-1.314-0.437c-0.977-0.727-1.18-2.108-0.453-3.085
						c9.399-12.634,10.429-26.889,10.437-27.032c0.079-1.216,1.129-2.14,2.344-2.058c1.215,0.079,2.137,1.129,2.057,2.344
						c-0.042,0.635-1.133,15.709-11.301,29.377C78.776,85.839,78.111,86.146,77.437,86.146z"/>
				</g>
			</g>
			<g>
				<g>
					<path fill="#A5D06A" d="M63.062,20.281c-0.041,0-0.081-0.002-0.121-0.007l-5.955-0.65c-0.605-0.066-1.043-0.611-0.977-1.216
						c0.066-0.605,0.623-1.038,1.216-0.977l5.955,0.65c0.605,0.066,1.043,0.611,0.977,1.216
						C64.095,19.862,63.618,20.281,63.062,20.281z"/>
				</g>
			</g>
			<g>
				<g>
					<path fill="#A5D06A" d="M36.313,20.281c-0.555,0-1.033-0.418-1.095-0.984c-0.066-0.605,0.372-1.15,0.977-1.216l5.955-0.65
						c0.589-0.068,1.149,0.369,1.216,0.977c0.066,0.605-0.372,1.15-0.977,1.216l-5.955,0.65
						C36.393,20.279,36.353,20.281,36.313,20.281z"/>
				</g>
			</g>
		</g>
	</g>
</g>
</svg>
