<?xml version="1.0" encoding="utf-8"?>
<!-- Generator: Adobe Illustrator 17.0.0, SVG Export Plug-In . SVG Version: 6.00 Build 0)  -->
<!DOCTYPE svg PUBLIC "-//W3C//DTD SVG 1.1//EN" "http://www.w3.org/Graphics/SVG/1.1/DTD/svg11.dtd">
<svg version="1.1" id="Layer_1" xmlns="http://www.w3.org/2000/svg" xmlns:xlink="http://www.w3.org/1999/xlink" x="0px" y="0px"
	 width="100px" height="100px" viewBox="0 0 100 100" enable-background="new 0 0 100 100" xml:space="preserve">
<g>
	<path fill="#CDDA2F" d="M66.43,70.546c-0.238-0.188-0.472-0.387-0.695-0.592c-0.113-0.102-0.223-0.205-0.329-0.309
		c-0.106-0.1-0.212-0.201-0.304-0.274c-0.038-0.034-0.085-0.056-0.052-0.042l-0.163-0.021c-0.139-0.018-0.282-0.032-0.425-0.044
		c-0.285-0.021-0.572-0.037-0.856-0.042c-0.143-0.001-0.282-0.001-0.417,0.008c-0.133,0.008-0.262,0.021-0.329,0.05
		c-0.162,0.058-0.296,0.098-0.443,0.139l-0.196,0.058c0.023,0.006,0.05,0.007,0.073,0.014c0.337,0.089,0.675,0.233,0.945,0.492
		c0.134,0.133,0.235,0.277,0.327,0.434c0.094,0.154,0.173,0.318,0.237,0.486c0.064,0.171,0.112,0.344,0.151,0.52
		c0.019,0.089,0.034,0.179,0.046,0.27c0.002,0.012,0.002,0.025,0.004,0.04c0.7-0.177,1.404-0.316,2.128-0.388
		c0.399-0.033,0.804-0.048,1.215-0.021c0.093,0.008,0.19,0.029,0.284,0.044C67.222,71.109,66.813,70.847,66.43,70.546z"/>
	<path fill="#CDDA2F" d="M90.289,59.129c-0.771-0.054-3.964,0.548-5.367,0.826c-1.404,0.276-5.84-0.589-8.024-1.494
		c-2.183-0.906-3.928-2.011-7.082-2.132c-3.152-0.117-3.939,0.438-5.98-0.228c-2.041-0.666-3.927,0.007-3.927,0.007
		s-0.62-1.208-0.87-1.417c-0.252-0.208-1.86,0.887-1.86,0.887s-2.593-2.199-4.138-4.048c-1.546-1.852-3.117-5.535-3.117-5.535
		s-2.559-2.397-4.194-4.079c-9.58-10.394-11.715-15.325-12.889-16.248c-1.173-0.924-8.152-6.578-8.152-6.578
		C14.57,10.507,9.597,4.773,9.597,4.773S8.788,6.407,11.372,15.76c2.586,9.351,9.767,17.185,14.226,21.988
		c4.458,4.802,17.768,19.629,17.768,19.629s1.352,0.021,2.368,0.459c2.689,1.18,3.997,3.939,3.997,3.939s-2.013,2.655-2.437,3.443
		c-0.425,0.788,0.406,1.201,0.406,1.201c1.605-0.552,3.141-0.703,3.141-0.703s-0.879,1.56-1.9,3.517
		c-1.018,1.958,0.355,2.916,0.355,2.916s0,0-0.241,0.378c-0.952,1.16-0.741,1.709,0.5,2.777c1.24,1.069,3.574,0.51,3.574,0.51
		c-0.259,0.552-0.353,2.607,1.114,3.799c1.465,1.189,3.371,1.09,3.371,1.09s-0.135,1.465,0.671,2.728
		c1.63,1.897,3.851,1.348,3.851,1.348s0.14,0.148,0.469,0.58c0.848,1.056,2.557,1.323,4.436,2.284
		c1.88,0.956,4.711-1.056,4.921-0.943c0.212,0.115,1.413,2.233,1.508,2.558c0.098,0.326,4.332,4.298,5.671,5.351
		c1.342,1.048,2.102,0.75,4.361-0.81c2.259-1.56,2.86-2.982,2.822-3.819c-0.04-0.835-5.158-8.085-5.158-8.085
		s2.725-0.673,3.128-0.748c0.402-0.071,1.644-0.891,2.239-1.589c0.594-0.698,3.15-0.988,3.15-0.988S91.06,59.182,90.289,59.129z
		 M53.407,65.493l-0.015,0.064l-0.012,0.05l-0.012,0.045c-0.017,0.06-0.034,0.113-0.054,0.167c-0.038,0.106-0.077,0.204-0.117,0.302
		c-0.163,0.395-0.348,0.766-0.532,1.137c-0.376,0.737-0.788,1.452-1.223,2.154c-0.225,0.35-0.446,0.697-0.689,1.034
		c-0.242,0.334-0.495,0.664-0.784,0.959c0.112-0.173,0.217-0.35,0.315-0.53c0.101-0.178,0.197-0.359,0.291-0.54
		c0.187-0.364,0.373-0.73,0.546-1.099c0.354-0.737,0.687-1.485,1.005-2.231c0.16-0.373,0.313-0.749,0.445-1.122
		c0.036-0.092,0.067-0.186,0.094-0.275c0.012-0.046,0.025-0.089,0.034-0.129l0.006-0.027l0.005-0.025
		c0.006-0.029,0.011-0.061,0.017-0.09c0.054-0.232,0.127-0.442,0.216-0.648c0.179-0.41,0.412-0.786,0.714-1.132
		c0.151-0.174,0.325-0.333,0.533-0.471c0.206-0.136,0.453-0.246,0.736-0.278l0.014-0.004h0.019c0.173-0.005,0.373-0.04,0.571-0.083
		c0.197-0.042,0.4-0.098,0.602-0.157c0.402-0.117,0.807-0.252,1.208-0.401c0.806-0.288,1.605-0.608,2.406-0.927l1.201-0.49
		c0.401-0.16,0.802-0.323,1.201-0.492c0.804-0.323,1.602-0.659,2.416-0.973c-0.735,0.47-1.491,0.897-2.249,1.32
		c-0.383,0.205-0.768,0.409-1.152,0.612c-0.389,0.198-0.777,0.395-1.168,0.581c-0.785,0.379-1.581,0.735-2.397,1.056
		c-0.409,0.159-0.822,0.312-1.249,0.445c-0.214,0.065-0.431,0.125-0.656,0.177c-0.227,0.049-0.451,0.094-0.714,0.102l0.034-0.002
		c-0.129,0.012-0.27,0.068-0.404,0.157c-0.137,0.087-0.27,0.205-0.391,0.337c-0.246,0.266-0.452,0.588-0.614,0.926
		C53.518,65.153,53.45,65.327,53.407,65.493z M77.12,74.912c-0.142-0.034-0.284-0.059-0.431-0.075
		c-0.145-0.021-0.286-0.026-0.446-0.058c-0.021-0.005-0.04-0.008-0.065-0.018c-0.013-0.004-0.025-0.01-0.034-0.012
		c-0.005-0.004-0.004-0.002-0.017-0.01l-0.007-0.002c-0.023-0.007-0.062-0.02-0.094-0.025l-0.212-0.057l-0.431-0.108
		c-0.288-0.074-0.572-0.157-0.859-0.241c-0.569-0.175-1.13-0.368-1.688-0.569c-0.559-0.199-1.111-0.417-1.663-0.637l-0.825-0.333
		c-0.275-0.115-0.548-0.236-0.82-0.361c-0.092-0.043-0.179-0.098-0.27-0.143c0.091,0.115,0.188,0.229,0.261,0.354
		c0.222,0.378,0.362,0.799,0.418,1.232c0.027,0.22,0.036,0.44,0.014,0.664c-0.021,0.217-0.069,0.438-0.174,0.663
		c0.083-0.04,0.161-0.089,0.245-0.127c0.229-0.103,0.46-0.197,0.699-0.282c0.24-0.083,0.488-0.16,0.76-0.203
		c0.133-0.022,0.275-0.038,0.429-0.035c0.152,0.006,0.323,0.023,0.506,0.109c0.021,0.01,0.05,0.025,0.062,0.029l0.04,0.021
		l0.083,0.046c0.057,0.032,0.109,0.064,0.163,0.098c0.11,0.067,0.219,0.137,0.325,0.21c0.418,0.294,0.824,0.655,1.112,1.138
		c0.143,0.241,0.25,0.521,0.288,0.815c0.039,0.294,0.006,0.594-0.079,0.867c-0.042,0.136-0.097,0.266-0.159,0.391
		c-0.058,0.112-0.115,0.22-0.175,0.327c-0.121,0.215-0.245,0.427-0.373,0.636c-0.414,0.674-0.866,1.31-1.336,1.937
		c0.13,0.009,0.261,0.019,0.39,0.042c0.323,0.064,0.655,0.181,0.937,0.385c0.142,0.105,0.269,0.232,0.369,0.371
		c0.054,0.069,0.1,0.147,0.139,0.224c0.019,0.039,0.038,0.078,0.055,0.118l0.045,0.106c0.113,0.277,0.244,0.562,0.325,0.878
		c0.042,0.156,0.066,0.324,0.064,0.493c-0.002,0.171-0.033,0.337-0.089,0.494c-0.114,0.314-0.315,0.572-0.525,0.797
		c-0.435,0.449-0.939,0.8-1.455,1.124c0.235-0.193,0.471-0.387,0.691-0.596c0.219-0.206,0.433-0.423,0.615-0.657
		c0.183-0.233,0.337-0.487,0.412-0.753c0.074-0.269,0.049-0.541-0.047-0.807c-0.091-0.268-0.236-0.53-0.37-0.808l-0.047-0.102
		c-0.018-0.029-0.033-0.06-0.05-0.087c-0.033-0.058-0.069-0.109-0.111-0.159c-0.082-0.1-0.181-0.185-0.291-0.253
		c-0.217-0.14-0.481-0.22-0.753-0.254c-0.138-0.017-0.276-0.026-0.417-0.026c-0.07,0.001-0.139,0.006-0.21,0.012
		c-0.067,0.004-0.142,0.012-0.197,0.021l-0.667,0.115l0.4-0.564c0.55-0.774,1.069-1.583,1.543-2.402
		c0.115-0.205,0.231-0.413,0.339-0.621c0.054-0.104,0.107-0.206,0.154-0.31c0.046-0.096,0.081-0.189,0.107-0.279
		c0.111-0.379,0.05-0.754-0.159-1.098c-0.208-0.344-0.542-0.64-0.909-0.893c-0.092-0.064-0.188-0.124-0.283-0.183l-0.148-0.085
		l-0.075-0.042l-0.035-0.02c-0.019-0.01-0.016-0.007-0.021-0.01c-0.038-0.018-0.111-0.034-0.196-0.036
		c-0.088-0.002-0.187,0.01-0.288,0.025c-0.413,0.071-0.853,0.238-1.275,0.426c-0.422,0.19-0.849,0.406-1.248,0.633l-0.53,0.305
		l-0.034-0.592l-0.002-0.029v-0.014l0.002-0.023l0.002-0.038c0.004-0.022,0.008-0.046,0.01-0.064
		c0.006-0.04,0.018-0.074,0.023-0.108c0.02-0.067,0.044-0.127,0.066-0.186c0.052-0.112,0.108-0.213,0.172-0.311
		c0.062-0.091,0.123-0.181,0.192-0.266c0.079-0.101,0.096-0.11,0.129-0.179c0.062-0.113,0.104-0.272,0.123-0.435
		c0.021-0.165,0.021-0.336,0.002-0.507c-0.032-0.343-0.136-0.682-0.302-0.982c-0.081-0.15-0.183-0.293-0.296-0.42
		c-0.057-0.064-0.115-0.124-0.18-0.184l-0.045-0.04l-0.054-0.042c-0.024-0.021-0.058-0.044-0.089-0.064
		c-0.256-0.167-0.619-0.252-0.983-0.296s-0.746-0.048-1.125-0.03c-0.762,0.028-1.537,0.131-2.287,0.282l-0.251,0.05l0.015-0.24
		c0.006-0.147-0.004-0.318-0.023-0.48c-0.021-0.162-0.056-0.322-0.102-0.48c-0.047-0.157-0.107-0.312-0.181-0.458
		c-0.073-0.145-0.157-0.291-0.259-0.409c-0.207-0.244-0.507-0.415-0.825-0.53c-0.075-0.027-0.155-0.045-0.233-0.067l-0.032,0.007
		c-0.567,0.163-1.132,0.324-1.678,0.508c-0.137,0.048-0.272,0.094-0.393,0.146c-0.064,0.024-0.125,0.055-0.161,0.076
		c-0.01,0.003-0.01,0.003-0.01,0.003c0.002-0.001-0.008,0.007-0.015,0.011c-0.009,0.008,0.005-0.004,0.002-0.001l-0.004,0.003
		l-0.007,0.006l-0.016,0.01c-0.021,0.017-0.042,0.038-0.063,0.058c-0.18,0.173-0.355,0.409-0.517,0.642
		c-0.328,0.471-0.625,0.976-0.918,1.483l-0.216,0.378L57.89,73.06c-0.042,0.073-0.081,0.142-0.129,0.208
		c-0.186,0.264-0.407,0.488-0.647,0.683c-0.485,0.383-1.016,0.669-1.565,0.905c-0.55,0.233-1.115,0.422-1.691,0.553
		c0.275-0.106,0.546-0.221,0.815-0.346c0.268-0.123,0.53-0.255,0.784-0.397c0.508-0.286,1.002-0.606,1.411-0.996
		c0.204-0.194,0.39-0.407,0.525-0.638c0.034-0.059,0.064-0.117,0.091-0.178l0.097-0.2l0.191-0.402
		c0.262-0.534,0.544-1.06,0.865-1.576c0.163-0.26,0.326-0.511,0.558-0.763c0.029-0.033,0.063-0.064,0.099-0.098l0.026-0.022
		l0.015-0.011l0.021-0.017l0.027-0.021l0.04-0.025c0.087-0.054,0.159-0.087,0.235-0.121c0.146-0.066,0.288-0.122,0.43-0.175
		c0.57-0.21,1.131-0.389,1.697-0.571l0.42-0.135c0.136-0.043,0.283-0.087,0.4-0.131c0.027-0.013,0.106-0.039,0.148-0.047
		c0.05-0.014,0.096-0.021,0.139-0.026c0.087-0.015,0.169-0.021,0.25-0.028c0.161-0.012,0.317-0.014,0.471-0.015
		c0.308,0,0.611,0.015,0.912,0.039c0.149,0.012,0.301,0.023,0.457,0.043l0.117,0.017l0.061,0.008
		c0.022,0.004,0.026,0.004,0.097,0.02c0.089,0.025,0.148,0.06,0.199,0.09c0.05,0.03,0.09,0.061,0.127,0.09
		c0.142,0.115,0.243,0.219,0.355,0.32c0.105,0.105,0.208,0.201,0.315,0.3c0.209,0.195,0.429,0.381,0.65,0.56
		c0.445,0.36,0.92,0.686,1.41,0.992c0.488,0.309,0.997,0.587,1.515,0.852c0.259,0.134,0.521,0.259,0.785,0.385l0.798,0.371
		c0.536,0.248,1.075,0.483,1.612,0.719c0.538,0.237,1.08,0.466,1.628,0.679c0.274,0.109,0.546,0.214,0.824,0.317l0.415,0.146
		c0.07,0.024,0.141,0.048,0.212,0.075c0.036,0.014,0.07,0.026,0.114,0.05l0.024,0.014c0.01,0.005,0.014,0.009,0.018,0.009
		c0.01,0.005,0.023,0.012,0.042,0.015c0.124,0.04,0.277,0.064,0.421,0.102c0.147,0.036,0.292,0.077,0.434,0.127
		c0.281,0.104,0.549,0.24,0.79,0.411C77.677,75.081,77.402,74.973,77.12,74.912z"/>
</g>
</svg>
