<?xml version="1.0" encoding="utf-8"?>
<!-- Generator: Adobe Illustrator 17.0.0, SVG Export Plug-In . SVG Version: 6.00 Build 0)  -->
<!DOCTYPE svg PUBLIC "-//W3C//DTD SVG 1.1//EN" "http://www.w3.org/Graphics/SVG/1.1/DTD/svg11.dtd">
<svg version="1.1" id="Layer_1" xmlns="http://www.w3.org/2000/svg" xmlns:xlink="http://www.w3.org/1999/xlink" x="0px" y="0px"
	 width="100px" height="100px" viewBox="0 0 100 100" enable-background="new 0 0 100 100" xml:space="preserve">
<path fill="#FFFFFF" d="M50,100C22.43,100,0,77.57,0,50S22.43,0,50,0s50,22.43,50,50S77.57,100,50,100z M50,8.531
	C27.133,8.531,8.531,27.133,8.531,50S27.133,91.469,50,91.469S91.469,72.867,91.469,50S72.867,8.531,50,8.531z"/>
<path fill="#FFFFFF" d="M33.639,21.912c-1.408-0.813-2.56-0.148-2.56,1.478v53.22c0,1.626,1.152,2.291,2.56,1.478l46.087-26.612
	c1.409-0.813,1.409-2.144,0-2.957L33.639,21.912z"/>
</svg>
