<?xml version="1.0" encoding="utf-8"?>
<!-- Generator: Adobe Illustrator 17.0.0, SVG Export Plug-In . SVG Version: 6.00 Build 0)  -->
<!DOCTYPE svg PUBLIC "-//W3C//DTD SVG 1.1//EN" "http://www.w3.org/Graphics/SVG/1.1/DTD/svg11.dtd">
<svg version="1.1" id="Layer_1" xmlns="http://www.w3.org/2000/svg" xmlns:xlink="http://www.w3.org/1999/xlink" x="0px" y="0px"
	 width="100px" height="100px" viewBox="0 0 100 100" enable-background="new 0 0 100 100" xml:space="preserve">
<path fill="none" stroke="#EEEEEE" stroke-width="3" stroke-linecap="round" stroke-linejoin="round" stroke-miterlimit="10" d="
	M50,2C23.747,2,2.5,23.247,2.5,49.5S23.747,97,50,97s47.5-21.247,47.5-47.5S76.253,2,50,2z M77.785,39.183L52.349,64.618
	c-1.328,1.328-3.473,1.328-4.801,0L22.215,39.183c-0.613-0.613-1.022-1.532-1.022-2.349c0-3.065,3.677-4.495,5.823-2.349L50,57.366
	l22.984-22.984c2.145-2.145,5.823-0.613,5.823,2.349C78.704,37.753,78.398,38.57,77.785,39.183z"/>
</svg>
