<?xml version="1.0" encoding="utf-8"?>
<!-- Generator: Adobe Illustrator 17.0.0, SVG Export Plug-In . SVG Version: 6.00 Build 0)  -->
<!DOCTYPE svg PUBLIC "-//W3C//DTD SVG 1.1//EN" "http://www.w3.org/Graphics/SVG/1.1/DTD/svg11.dtd">
<svg version="1.1" id="Layer_1" xmlns="http://www.w3.org/2000/svg" xmlns:xlink="http://www.w3.org/1999/xlink" x="0px" y="0px"
	 width="540px" height="450px" viewBox="0 0 540 450" enable-background="new 0 0 540 450" xml:space="preserve">
<g transform="translate(-426 -1280)">
	<g>
		<path fill="#33383A" d="M915.247,1288.948v15.036l-60.145,15.036h-45.109l-75.181,30.073H659.63l-15.036-15.036h-15.036
			l-60.145,30.073h-15.036v-15.036l-30.073-15.036l-15.036,30.073l15.036,30.073h-30.073v15.036h-30.073l-15.036,30.073
			l15.036,30.073v60.145h30.073l15.036,15.036v15.036l-15.036,30.073h-30.073v30.073l-15.036,15.036v45.109L524.304,1725
			l285.689-180.435h30.073l15.036-30.073v-60.145l15.036-15.036v-15.036l-15.036-15.036v-30.073l15.036-15.036h30.073l45.109-45.109
			v-30.073L915.247,1288.948L915.247,1288.948z"/>
	</g>
</g>
<polygon fill="#23AA78" points="479.867,4.177 479.867,18.967 420.708,33.756 376.339,33.756 302.39,63.336 228.441,63.336 
	213.651,48.546 198.862,48.546 139.703,78.126 124.913,78.126 124.913,63.336 95.333,48.546 80.544,78.126 95.333,107.705 
	65.754,107.705 65.754,122.495 36.174,122.495 23.703,147.439 435.498,147.439 435.498,137.285 420.708,122.495 420.708,92.915 
	435.498,78.126 465.077,78.126 509.446,33.756 509.446,4.177 "/>
<polygon fill="#121619" points="65.754,299.844 36.174,299.844 36.174,329.423 21.385,344.213 21.385,388.582 95.333,432.951 
	320.969,290.444 70.454,290.444 "/>
<polygon fill="#F1F0F0" points="21.385,151.946 36.174,181.526 36.174,240.685 65.754,240.685 80.544,255.474 80.544,270.264 
	70.454,290.444 320.969,290.444 376.339,255.474 405.918,255.474 420.708,225.895 420.708,166.736 435.498,151.946 435.498,147.311 
	23.703,147.311 "/>
<path fill="#C04455" d="M112.637,183.166l5.484,16.532l17.417,0.107l-14.027,10.324l5.28,16.598l-14.155-10.15l-14.154,10.15
	l5.28-16.598l-14.027-10.324l17.417-0.107L112.637,183.166z"/>
<path fill="#C04455" d="M228.731,183.166l5.484,16.532l17.417,0.107l-14.027,10.324l5.28,16.598l-14.155-10.15l-14.154,10.15
	l5.28-16.598l-14.027-10.324l17.417-0.107L228.731,183.166z"/>
<path fill="#C04455" d="M344.825,183.166l5.484,16.532l17.417,0.107l-14.027,10.324l5.28,16.598l-14.155-10.15l-14.154,10.15
	l5.28-16.598l-14.027-10.324l17.417-0.107L344.825,183.166z"/>
</svg>
