<?xml version="1.0" encoding="utf-8"?>
<!-- Generator: Adobe Illustrator 17.0.0, SVG Export Plug-In . SVG Version: 6.00 Build 0)  -->
<!DOCTYPE svg PUBLIC "-//W3C//DTD SVG 1.1//EN" "http://www.w3.org/Graphics/SVG/1.1/DTD/svg11.dtd">
<svg version="1.1" id="Layer_1" xmlns="http://www.w3.org/2000/svg" xmlns:xlink="http://www.w3.org/1999/xlink" x="0px" y="0px"
	 width="100px" height="100px" viewBox="0 0 100 100" enable-background="new 0 0 100 100" xml:space="preserve">
<g transform="translate(-426 -1280)">
	<g>
		<g>
			<path fill="#5FC19C" d="M518.359,1286.724v2.958l-11.833,2.958h-8.875l-14.791,5.916h-14.79l-2.958-2.958h-2.958l-11.833,5.917
				h-2.958v-2.958l-5.916-2.958l-2.958,5.916l2.958,5.917h-5.916v2.958h-5.916l-2.958,5.916l2.958,5.917v11.833h5.916l2.958,2.958
				v2.958l-2.958,5.916h-5.916v5.917l-2.958,2.958v8.875l14.791,8.874l56.205-35.498h5.916l2.958-5.916v-11.833l2.958-2.958v-2.958
				l-2.958-2.958v-5.916l2.958-2.958h5.916l8.875-8.875v-5.916h-5.917V1286.724z"/>
		</g>
	</g>
</g>
</svg>
