<?xml version="1.0" encoding="utf-8"?>
<!-- Generator: Adobe Illustrator 17.0.0, SVG Export Plug-In . SVG Version: 6.00 Build 0)  -->
<!DOCTYPE svg PUBLIC "-//W3C//DTD SVG 1.1//EN" "http://www.w3.org/Graphics/SVG/1.1/DTD/svg11.dtd">
<svg version="1.1" xmlns="http://www.w3.org/2000/svg" xmlns:xlink="http://www.w3.org/1999/xlink" x="0px" y="0px" width="100px"
	 height="100px" viewBox="0 0 100 100" enable-background="new 0 0 100 100" xml:space="preserve">
<g id="Layer_2">
	<circle fill="#11181A" cx="50" cy="50" r="44.928"/>
</g>
<g id="Layer_1">
	<path fill="#EEEEEE" d="M50,100C22.386,100,0,77.614,0,50S22.386,0,50,0s50,22.386,50,50S77.614,100,50,100z M50,7.143
		C26.331,7.143,7.143,26.331,7.143,50S26.331,92.857,50,92.857S92.857,73.669,92.857,50S73.669,7.143,50,7.143z M73.75,48.214
		l-34.286-25c-1.786-1.25-3.75-0.536-3.75,1.607v9.286c0.164,0.737,0.614,1.379,1.25,1.786l19.464,13.571L56.786,50h17.679
		C74.403,49.348,74.155,48.728,73.75,48.214z M74.643,50H56.964l-0.357,0.536L37.143,64.107c-0.636,0.407-1.086,1.049-1.25,1.786V75
		c0,2.321,1.964,3.036,3.75,1.607l34.286-25C74.304,51.144,74.55,50.589,74.643,50z"/>
</g>
</svg>
