<?xml version="1.0" encoding="utf-8"?>
<!-- Generator: Adobe Illustrator 17.0.0, SVG Export Plug-In . SVG Version: 6.00 Build 0)  -->
<!DOCTYPE svg PUBLIC "-//W3C//DTD SVG 1.1//EN" "http://www.w3.org/Graphics/SVG/1.1/DTD/svg11.dtd">
<svg version="1.1" id="Layer_1" xmlns="http://www.w3.org/2000/svg" xmlns:xlink="http://www.w3.org/1999/xlink" x="0px" y="0px"
	 width="100px" height="100px" viewBox="0 0 100 100" enable-background="new 0 0 100 100" xml:space="preserve">
<path fill="#EEEEEE" d="M0,50C0,22.386,22.386,0,50,0s50,22.386,50,50s-22.386,50-50,50S0,77.614,0,50z M7.143,50
	c0,23.669,19.188,42.857,42.857,42.857S92.857,73.669,92.857,50S73.669,7.143,50,7.143S7.143,26.331,7.143,50z M25.536,50h17.679
	l0.357-0.536l19.464-13.571c0.636-0.407,1.086-1.049,1.25-1.786v-9.286c0-2.143-1.964-2.857-3.75-1.607l-34.286,25
	C25.845,48.728,25.597,49.348,25.536,50z M26.071,51.607l34.286,25c1.786,1.429,3.75,0.714,3.75-1.607v-9.107
	c-0.164-0.737-0.614-1.379-1.25-1.786L43.393,50.536L43.036,50H25.357C25.45,50.589,25.696,51.144,26.071,51.607z"/>
</svg>
