<?xml version="1.0" encoding="utf-8"?>
<!-- Generator: Adobe Illustrator 17.0.0, SVG Export Plug-In . SVG Version: 6.00 Build 0)  -->
<!DOCTYPE svg PUBLIC "-//W3C//DTD SVG 1.1//EN" "http://www.w3.org/Graphics/SVG/1.1/DTD/svg11.dtd">
<svg version="1.1" id="Layer_1" xmlns="http://www.w3.org/2000/svg" xmlns:xlink="http://www.w3.org/1999/xlink" x="0px" y="0px"
	 width="100px" height="100px" viewBox="0 0 100 100" enable-background="new 0 0 100 100" xml:space="preserve">
<path fill="#D52270" d="M23.215,83.969c3.341,10.226,14.378,15.827,24.604,12.487c10.226-3.341,15.829-14.379,12.487-24.605
	C56.965,61.625,45.927,56.025,35.7,59.366C25.475,62.707,19.874,73.743,23.215,83.969z M38.894,74.564l-10.675-5.416
	c1.652-2.555,4.026-4.664,6.954-5.971C35.174,63.177,38.894,74.564,38.894,74.564z M38.376,62.131
	c3.133-0.673,6.295-0.374,9.137,0.714l-5.417,10.674L38.376,62.131z M50.518,64.371c2.561,1.651,4.67,4.025,5.975,6.954
	l-11.39,3.721L50.518,64.371z M57.539,74.528c0.675,3.133,0.375,6.296-0.715,9.138l-10.675-5.416L57.539,74.528z M55.299,86.673
	c-1.651,2.555-4.027,4.665-6.954,5.97l-3.721-11.389L55.299,86.673z M45.143,93.689c-3.135,0.676-6.296,0.375-9.139-0.717
	l5.419-10.672C41.422,82.301,45.143,93.689,45.143,93.689z M32.998,91.45c-2.555-1.651-4.665-4.027-5.97-6.954l11.387-3.721
	L32.998,91.45z M25.982,81.294c-0.676-3.135-0.375-6.296,0.713-9.14l10.675,5.419L25.982,81.294z"/>
<path fill="#D52270" d="M3.558,83.763l4.101,4.443l1.557-1.44c3.746,2.275,8.6,2.114,12.209-0.578l0.039,0.044l0.4-0.41
	c0.148-0.124,0.304-0.239,0.446-0.372c0.158-0.143,0.278-0.31,0.422-0.463c-3.561-9.576,0.567-20.538,9.896-25.255
	c4.674-2.363,9.831-2.723,14.523-1.442l23.266-25.434l-6.68-7.235L8.83,68.319c-0.472,0.315-0.929,0.657-1.359,1.052
	c-0.145,0.134-0.274,0.278-0.41,0.417l-0.436,0.365L6.666,70.2c-2.97,3.383-3.521,8.204-1.552,12.119L3.558,83.763z"/>
<path fill="#D52270" d="M81.448,12.804l1.889,2.133l1.889,2.131l4.567-4.046l4.165-3.689l0.305-0.271
	c1.158-1.682,1.016-2.507,0.243-4.02c-1.408-0.949-2.211-1.19-4.021-0.243l-0.304,0.27l-4.165,3.688L81.448,12.804z"/>
</svg>
