<?xml version="1.0" encoding="utf-8"?>
<!-- Generator: Adobe Illustrator 17.0.0, SVG Export Plug-In . SVG Version: 6.00 Build 0)  -->
<!DOCTYPE svg PUBLIC "-//W3C//DTD SVG 1.1//EN" "http://www.w3.org/Graphics/SVG/1.1/DTD/svg11.dtd">
<svg version="1.1" id="Layer_1" xmlns="http://www.w3.org/2000/svg" xmlns:xlink="http://www.w3.org/1999/xlink" x="0px" y="0px"
	 width="100px" height="100px" viewBox="0 0 100 100" enable-background="new 0 0 100 100" xml:space="preserve">
<g>
	<g>
		<path fill="#EEEEEE" d="M47.82,44.235c-2.187,2.547-5.097,3.406-8.241,3.622c-3.408,0.233-6.825,0.354-10.154-0.687
			c-4.231-1.323-6.634-4.403-6.24-9.592c0.541-7.136,4.302-12.565,9.6-17.097c1.989-1.701,5.172-1.745,7.091-0.015
			c0.85,0.766,1.729,1.499,2.617,2.266c0.007-0.001,0.075,0.008,0.099-0.021c1.873-2.222,4.385-3.139,7.167-3.341
			c3.378-0.246,6.792-0.468,10.124,0.25c1.593,0.343,3.024,0.289,4.615,0.03c3.866-0.631,7.798-0.764,11.662,0.029
			c5.027,1.032,7.518,4.571,7.147,9.706c-0.35,4.836-2.374,8.96-5.24,12.743c-1.486,1.962-3.175,3.728-5.208,5.143
			c-1.546,1.076-4.039,1.171-5.481-0.036c-1.65-1.381-3.142-2.95-4.697-4.443c-0.183-0.176-0.331-0.388-0.538-0.633
			c-0.183,0.205-0.339,0.367-0.48,0.54c-1.406,1.724-2.945,3.307-4.78,4.585c-1.557,1.084-4.024,1.096-5.568-0.023
			c-0.632-0.458-1.245-0.945-1.835-1.456C48.912,45.314,48.387,44.775,47.82,44.235z"/>
		<path fill="#EEEEEE" d="M49.321,12.781c0.003-2.642,2.123-4.778,4.76-4.794c2.659-0.016,4.821,2.152,4.809,4.824
			c-0.011,2.654-2.123,4.777-4.761,4.786C51.453,17.606,49.318,15.468,49.321,12.781z"/>
		<path fill="#EEEEEE" d="M65.354,12.769c0.015-2.643,2.142-4.768,4.767-4.764c2.652,0.005,4.799,2.193,4.763,4.855
			c-0.035,2.635-2.186,4.742-4.816,4.716C67.43,17.552,65.339,15.419,65.354,12.769z"/>
		<path fill="#EEEEEE" d="M41.159,12.79c0.002,2.654-2.107,4.781-4.739,4.781c-2.639-0.001-4.757-2.123-4.758-4.769
			c-0.001-2.644,2.122-4.786,4.746-4.789C39.034,8.01,41.157,10.144,41.159,12.79z"/>
	</g>
	<rect x="0.447" y="62.256" fill="none" width="98.369" height="23.984"/>
	<text transform="matrix(1 0 0 1 9.4023 69.6182)"><tspan x="0" y="0" fill="#EAEAEA" font-family="'SourceSansPro-Semibold'" font-size="10.4276">SYRIAN NETWORK</tspan><tspan x="-2.247" y="12.513" fill="#EAEAEA" font-family="'SourceSansPro-Semibold'" font-size="10.4276">FOR HUMAN RIGHT</tspan></text>
</g>
</svg>
