<?xml version="1.0" encoding="utf-8"?>
<!-- Generator: Adobe Illustrator 17.0.0, SVG Export Plug-In . SVG Version: 6.00 Build 0)  -->
<!DOCTYPE svg PUBLIC "-//W3C//DTD SVG 1.1//EN" "http://www.w3.org/Graphics/SVG/1.1/DTD/svg11.dtd">
<svg version="1.1" id="Layer_1" xmlns="http://www.w3.org/2000/svg" xmlns:xlink="http://www.w3.org/1999/xlink" x="0px" y="0px"
	 width="100px" height="100px" viewBox="0 0 100 100" enable-background="new 0 0 100 100" xml:space="preserve">
<g>
	<g>
		<g transform="translate(-426 -1280)">
			<g>
				<path fill="#E9E9E9" d="M508.021,1287.55v2.201l-8.805,2.201h-6.604l-11.006,4.402H470.6l-2.201-2.201h-2.201l-8.805,4.402
					h-2.201v-2.201l-4.402-2.201l-2.201,4.402l2.201,4.402h-4.402v2.201h-4.402l-2.201,4.402l2.201,4.402v8.805h4.402l2.201,2.201
					v2.201l-2.201,4.402h-4.402v4.402l-2.201,2.201v6.604l11.006,6.604l41.823-26.415h4.402l2.201-4.402v-8.805l2.201-2.201v-2.201
					l-2.201-2.201v-4.402l2.201-2.201h4.402l6.604-6.604v-4.402L508.021,1287.55L508.021,1287.55z"/>
			</g>
		</g>
		<circle fill="#12191B" cx="23.45" cy="26.211" r="9.191"/>
		<circle fill="#12191B" cx="67.373" cy="33.969" r="9.191"/>
		<circle fill="#12191B" cx="41.272" cy="24.578" r="3.965"/>
		<circle fill="#12191B" cx="44.304" cy="41.994" r="7.464"/>
		<circle fill="#12191B" cx="20.98" cy="49.457" r="6.297"/>
		<circle fill="#12191B" cx="36.607" cy="56.956" r="1.866"/>
		<circle fill="#12191B" cx="51.767" cy="54.355" r="3.265"/>
	</g>
	<rect x="0.471" y="76.006" fill="none" width="99.266" height="15.607"/>
	<text transform="matrix(1 0 0 1 11.5962 83.4346)" fill="#EAEAEA" font-family="'SourceSansPro-Semibold'" font-size="10.5227">SYRIAN TRACKER</text>
</g>
</svg>
