<?xml version="1.0" encoding="utf-8"?>
<!-- Generator: Adobe Illustrator 17.0.0, SVG Export Plug-In . SVG Version: 6.00 Build 0)  -->
<!DOCTYPE svg PUBLIC "-//W3C//DTD SVG 1.1//EN" "http://www.w3.org/Graphics/SVG/1.1/DTD/svg11.dtd">
<svg version="1.1" id="Layer_1" xmlns="http://www.w3.org/2000/svg" xmlns:xlink="http://www.w3.org/1999/xlink" x="0px" y="0px"
	 width="400px" height="300px" viewBox="0 0 400 300" enable-background="new 0 0 400 300" xml:space="preserve">
<g transform="translate(-426 -1280)">
	<g>
		<path fill="#EEEEEE" d="M780.118,1290.579v9.438l-37.751,9.438h-28.313l-47.188,18.875h-47.188l-9.438-9.438h-9.438
			l-37.751,18.875h-9.438v-9.438l-18.875-9.438l-9.438,18.875l9.438,18.875h-18.875v9.438h-18.875l-9.438,18.875l9.438,18.875
			v37.751h18.875l9.438,9.438v9.438l-9.438,18.875h-18.875v18.875l-9.438,9.438v28.313l47.188,28.313l179.316-113.252h18.875
			l9.438-18.875v-37.751l9.438-9.438v-9.438l-9.438-9.438v-18.875l9.438-9.438h18.875l28.313-28.313v-18.875H780.118z"/>
	</g>
</g>
<circle opacity="0.65" fill="#DD344A" cx="102.998" cy="90.585" r="39.406"/>
<circle opacity="0.65" fill="#DD344A" cx="291.313" cy="123.848" r="39.406"/>
<circle opacity="0.65" fill="#DD344A" cx="179.406" cy="83.585" r="17"/>
<circle opacity="0.65" fill="#DD344A" cx="192.406" cy="158.254" r="32"/>
<circle opacity="0.65" fill="#DD344A" cx="92.405" cy="190.254" r="27"/>
<circle opacity="0.65" fill="#DD344A" cx="159.406" cy="222.406" r="8"/>
<circle opacity="0.65" fill="#DD344A" cx="224.406" cy="211.254" r="14"/>
</svg>
