<?xml version="1.0" encoding="utf-8"?>
<!-- Generator: Adobe Illustrator 17.0.0, SVG Export Plug-In . SVG Version: 6.00 Build 0)  -->
<!DOCTYPE svg PUBLIC "-//W3C//DTD SVG 1.1//EN" "http://www.w3.org/Graphics/SVG/1.1/DTD/svg11.dtd">
<svg version="1.1" id="Layer_1" xmlns="http://www.w3.org/2000/svg" xmlns:xlink="http://www.w3.org/1999/xlink" x="0px" y="0px"
	 width="100px" height="100px" viewBox="0 0 100 100" enable-background="new 0 0 100 100" xml:space="preserve">
<g>
	<path fill="#EEEEEE" d="M38.238,47.521c-0.301-0.017-0.428-0.024-0.555-0.031c-2.237-0.122-2.188-0.125-2.351-2.334
		c-0.245-3.329-0.652-6.648-0.828-9.979c-0.155-2.95-0.133-5.912-0.083-8.866c0.01-0.604,0.374-1.298,0.778-1.781
		c1.02-1.217,2.097-2.399,3.256-3.483c2.743-2.565,5.539-5.074,8.334-7.582c0.517-0.463,1.106-0.862,1.709-1.207
		c0.511-0.292,0.978-0.049,0.863,0.531c-0.174,0.88-0.341,1.882-0.87,2.546c-0.96,1.207-2.14,2.255-3.31,3.274
		c-1.03,0.897-2.196,1.635-3.261,2.494c-1.596,1.286-2.618,2.94-2.909,4.986c-0.074,0.521-0.023,1.08,0.084,1.597
		c0.062,0.3,0.348,0.776,0.539,0.778c0.352,0.004,0.846-0.187,1.034-0.465c0.404-0.595,0.695-1.28,0.954-1.958
		c0.363-0.949,0.635-1.932,0.987-2.885c0.175-0.474,0.359-0.988,0.686-1.35c0.359-0.396,0.888-0.639,1.343-0.948
		c0.187,0.502,0.531,1.005,0.526,1.504c-0.008,0.812-0.175,1.641-0.395,2.43c-0.862,3.087-1.744,6.169-2.678,9.234
		c-0.332,1.088-0.887,2.107-1.24,3.189c-0.292,0.894-0.576,1.83-0.619,2.759c-0.091,1.938-0.015,3.883-0.019,5.826
		c-0.003,1.506-0.186,1.686-1.672,1.72C38.383,47.524,38.223,47.521,38.238,47.521z"/>
	<path fill="#EEEEEE" d="M66.062,30.168c-0.384,4.658-0.771,9.316-1.151,13.974c-0.057,0.698-0.105,1.397-0.118,2.097
		c-0.013,0.671-0.229,1.077-0.988,1.089c-0.918,0.015-1.835,0.126-2.753,0.145c-0.733,0.015-1.086-0.371-1.071-1.135
		c0.033-1.751,0.032-3.504,0.037-5.256c0.005-1.608-0.212-3.145-1.034-4.592c-0.447-0.788-0.675-1.711-0.936-2.593
		c-0.911-3.074-1.832-6.146-2.664-9.242c-0.259-0.963-0.346-2.002-0.323-3.002c0.019-0.852,0.584-1.072,1.21-0.496
		c0.474,0.436,0.875,1.023,1.122,1.619c0.511,1.231,0.871,2.523,1.346,3.769c0.212,0.557,0.479,1.125,0.85,1.583
		c0.556,0.685,1.295,0.525,1.444-0.332c0.133-0.764,0.175-1.604,0-2.35c-0.418-1.78-1.371-3.273-2.848-4.398
		c-1.267-0.965-2.563-1.893-3.789-2.908c-0.855-0.708-1.695-1.467-2.386-2.329c-0.52-0.648-0.872-1.468-1.139-2.266
		c-0.128-0.382,0.115-0.887,0.19-1.337c0.403,0.128,0.839,0.196,1.2,0.399c0.44,0.247,0.84,0.58,1.216,0.921
		c2.925,2.652,5.841,5.314,8.756,7.977c0.329,0.301,0.615,0.65,0.954,0.937c2.063,1.751,3.076,3.917,2.695,6.658
		c-0.048,0.344-0.007,0.7-0.007,1.05C65.938,30.157,66,30.163,66.062,30.168z"/>
	<path fill="#EEEEEE" d="M47.978,45.098c0-0.35-0.024-0.703,0.004-1.051c0.075-0.931-0.03-1.633-1.261-1.626
		c-0.277,0.002-0.796-0.617-0.8-0.955c-0.053-4.11-0.052-8.22-0.013-12.33c0.011-1.17,0.614-2.006,1.717-2.535
		c1.505-0.721,1.633-1.354,0.837-2.799c-0.314-0.57-0.586-1.206-0.685-1.842c-0.156-1.007,0.278-1.8,1.239-2.246
		c0.923-0.428,2.037-0.273,2.758,0.419c0.752,0.722,0.854,1.62,0.522,2.55c-0.19,0.533-0.532,1.009-0.792,1.519
		c-0.5,0.982-0.382,1.742,0.607,2.152c1.832,0.76,2.184,2.138,2.147,3.918c-0.074,3.567-0.04,7.137-0.01,10.706
		c0.008,0.937-0.185,1.564-1.288,1.537c-0.588-0.015-0.721,0.4-0.717,0.908c0.009,1.115-0.018,2.231,0.009,3.345
		c0.013,0.542-0.199,0.739-0.728,0.726c-0.923-0.023-1.849-0.027-2.772,0.002c-0.569,0.018-0.82-0.181-0.78-0.772
		C48.007,46.184,47.978,45.64,47.978,45.098z"/>
	<path fill="#EEEEEE" d="M32.951,71.359c0,2.475-0.044,4.763,0.021,7.048c0.027,0.942-0.205,1.36-1.207,1.24
		c-0.933-0.112-2.181,0.206-2.727-0.288c-0.477-0.432-0.199-1.73-0.203-2.646c-0.013-3.408,0.015-6.816-0.021-10.223
		c-0.008-0.794,0.189-1.018,1.038-1.139c2.366-0.337,3.831,0.482,4.829,2.696c0.863,1.913,2.117,3.65,3.293,5.622
		c0.022-0.443,0.05-0.739,0.05-1.035c0.004-2.134,0.017-4.268-0.008-6.401c-0.007-0.605,0.171-0.877,0.813-0.848
		c0.858,0.038,1.72,0.031,2.579,0.002c0.591-0.02,0.775,0.247,0.774,0.802c-0.011,4.204-0.013,8.408,0.001,12.612
		c0.002,0.614-0.229,0.819-0.841,0.845c-3.338,0.143-3.341,0.159-5.059-2.696C35.206,75.161,34.144,73.363,32.951,71.359z"/>
	<path fill="#EEEEEE" d="M57.599,72.492c0,2.101-0.017,4.201,0.011,6.302c0.008,0.608-0.176,0.871-0.81,0.849
		c-0.954-0.033-1.91-0.034-2.864,0c-0.642,0.023-0.817-0.257-0.802-0.857c0.032-1.304-0.014-2.61,0.018-3.914
		c0.015-0.628-0.233-0.848-0.841-0.829c-0.954,0.029-1.91,0.029-2.864,0c-0.609-0.019-0.855,0.205-0.84,0.831
		c0.032,1.272-0.023,2.547,0.021,3.819c0.024,0.686-0.17,0.994-0.903,0.954c-0.889-0.048-1.783-0.035-2.673-0.003
		c-0.626,0.022-0.911-0.147-0.906-0.851c0.028-4.201,0.021-8.402,0.005-12.604c-0.002-0.559,0.158-0.82,0.756-0.802
		c0.986,0.03,1.974,0.03,2.959,0c0.598-0.018,0.771,0.243,0.757,0.802c-0.028,1.113,0.018,2.228-0.016,3.341
		c-0.019,0.631,0.234,0.842,0.842,0.821c0.954-0.032,1.91-0.033,2.864,0c0.61,0.021,0.859-0.194,0.839-0.823
		c-0.035-1.081,0.02-2.165-0.019-3.246c-0.024-0.646,0.167-0.933,0.857-0.899c0.921,0.045,1.847,0.046,2.768,0
		c0.695-0.035,0.863,0.262,0.853,0.903C57.58,68.354,57.599,70.423,57.599,72.492z"/>
	<path fill="#EEEEEE" d="M85.817,73.139c1.941,0.492,2.222,1.892,2.226,3.504c0.002,0.936,0.141,1.873,0.232,2.966
		c-1.176,0-2.52,0.03-3.859-0.035c-0.183-0.009-0.454-0.481-0.491-0.763c-0.105-0.818-0.112-1.648-0.156-2.473
		c-0.053-0.985-0.611-1.489-1.551-1.629c-0.094-0.014-0.188-0.031-0.283-0.041c-2.266-0.227-2.313-0.186-2.313,2.055
		c0,0.701-0.02,1.402,0.005,2.102c0.02,0.547-0.15,0.833-0.752,0.816c-0.955-0.027-1.911-0.021-2.866-0.002
		c-0.547,0.011-0.708-0.245-0.707-0.758c0.011-4.235-0.004-8.471,0.031-12.706c0.002-0.26,0.361-0.743,0.551-0.742
		c2.895,0.016,5.797-0.006,8.681,0.198c1.626,0.115,3.027,0.895,3.354,2.74c0.315,1.774,0.035,3.49-1.783,4.42
		C86.057,72.829,86.009,72.925,85.817,73.139z M81.345,68.65c-0.001,0.014-0.003,0.027-0.004,0.041
		c-0.255,0-0.532-0.065-0.758,0.015c-0.333,0.118-0.894,0.335-0.896,0.516c-0.011,0.787,0.144,1.577,0.249,2.365
		c0.003,0.025,0.115,0.051,0.175,0.049c0.918-0.028,1.843-0.006,2.753-0.11c0.736-0.084,1.062-0.615,1.064-1.354
		c0.002-0.746-0.346-1.22-1.071-1.36C82.36,68.717,81.849,68.702,81.345,68.65z"/>
	<path fill="#EEEEEE" d="M12.98,70.67c0-1.498,0.017-2.996-0.009-4.493c-0.01-0.57,0.183-0.811,0.771-0.791
		c0.891,0.03,1.786,0.042,2.676-0.003c0.712-0.036,0.955,0.242,0.947,0.941c-0.027,2.262-0.011,4.525-0.008,6.787
		c0.001,0.414,0.001,0.829,0.034,1.241c0.158,1.96,1.822,2.91,3.604,2.049c0.794-0.383,0.998-1.096,0.997-1.912
		c-0.003-2.677,0.031-5.354-0.017-8.03c-0.015-0.841,0.235-1.146,1.082-1.081c0.855,0.066,1.72,0.033,2.58,0.008
		c0.542-0.015,0.82,0.13,0.815,0.746c-0.023,3.027,0.026,6.055-0.031,9.081c-0.039,2.102-1.299,3.708-3.397,4.366
		c-2.145,0.673-4.338,0.68-6.489,0.033c-2.359-0.71-3.539-2.374-3.554-4.833C12.973,73.411,12.98,72.041,12.98,70.67z"/>
	<path fill="#EEEEEE" d="M73.487,70.63c-1.227,0-2.461,0.03-3.691-0.03c-0.205-0.01-0.468-0.381-0.571-0.639
		c-0.41-1.018-1.167-1.443-2.224-1.484c-1.127-0.044-2.039,0.335-2.494,1.389c-0.752,1.741-0.77,3.534-0.013,5.279
		c0.483,1.112,1.428,1.57,2.631,1.511c1.155-0.057,1.869-0.658,2.271-1.726c0.09-0.24,0.385-0.56,0.598-0.571
		c1.169-0.056,2.342-0.027,3.631-0.027c-0.015,1.519-0.475,2.794-1.479,3.75c-0.691,0.658-1.576,1.34-2.47,1.51
		c-1.561,0.296-3.247,0.495-4.789,0.22c-4.094-0.73-5.452-4.101-5.364-7.651c0.015-0.599,0.112-1.205,0.241-1.792
		c0.849-3.859,3.833-5.426,7.32-5.289c1.12,0.044,2.283,0.3,3.326,0.713C72.366,66.567,73.52,68.483,73.487,70.63z"/>
	<path fill="#EEEEEE" d="M67.889,58.836c-0.49,0.151-1.014,0.358-1.557,0.471c-2.803,0.58-5.557,0.382-8.283-0.498
		c-1.54-0.497-3.109-0.915-4.68-1.302c-0.564-0.139-1.176-0.087-1.811-0.001c2.033,1.198,4.056,2.348,5.606,4.125
		c-0.051,0.097-0.101,0.195-0.152,0.292c-0.255-0.127-0.541-0.214-0.759-0.387c-1.266-1.009-2.479-2.088-3.781-3.046
		c-1.495-1.101-3.1-1.099-4.598-0.011c-1.308,0.95-2.525,2.026-3.792,3.033c-0.229,0.182-0.508,0.303-0.847,0.306
		c1.446-1.929,3.42-3.11,5.512-4.134c-0.013-0.092-0.026-0.185-0.039-0.277c-0.59,0.027-1.202-0.039-1.764,0.098
		c-1.511,0.368-3.018,0.772-4.496,1.254c-2.783,0.908-5.596,1.145-8.467,0.552c-0.454-0.094-0.894-0.256-1.33-0.58
		c0.19-0.041,0.381-0.076,0.569-0.122c2.093-0.513,4.171-1.097,6.282-1.525c3.389-0.688,6.797-1.003,10.203-0.029
		c0.289,0.082,0.639,0.075,0.932-0.001c4.341-1.129,8.571-0.532,12.78,0.724C64.857,58.206,66.347,58.476,67.889,58.836z"/>
	<path fill="#EEEEEE" d="M27.392,52.802c3.342,0.853,6.769,1.728,10.198,2.596c0.064,0.016,0.154-0.069,0.19-0.086
		c-1.161-1.101-2.551-2.041-3.404-3.335c-0.844-1.282-1.147-2.92-1.734-4.531c3.05,2.026,4.637,5.085,6.503,7.914
		C34.513,57.333,29.693,56.193,27.392,52.802z"/>
	<path fill="#EEEEEE" d="M61.017,55.372c1.867-2.806,3.43-5.866,6.517-7.925c-0.611,1.657-0.929,3.306-1.781,4.603
		c-0.833,1.268-2.212,2.178-3.516,3.399c3.666-0.914,7.161-1.785,10.509-2.619C70.706,56.041,65.82,57.399,61.017,55.372z"/>
	<path fill="#EEEEEE" d="M30.988,50.82c-1.171-2.585-2.083-5.159-1.893-8.151c2.529,2.766,2.901,6.078,3.149,9.444
		c-5.792-0.614-8.874-3.458-9.617-7.412c1.322,1.019,2.663,2.172,4.123,3.145C28.167,48.791,29.035,50.494,30.988,50.82z"/>
	<path fill="#EEEEEE" d="M77.581,44.572c-0.977,4.756-4.609,7.03-9.647,7.512c0.236-3.315,0.61-6.576,3.231-9.184
		c-0.179,1.342-0.235,2.715-0.571,4.016c-0.336,1.301-0.954,2.529-1.314,4.042c0.441-0.196,0.951-0.308,1.312-0.602
		C72.926,48.462,75.228,46.527,77.581,44.572z"/>
	<path fill="#EEEEEE" d="M28.084,24.302c-0.329,2.071-1.212,3.745-2.554,5.218c-0.802,0.88-1.382,1.961-2.046,2.929
		c-1.91-2.379-2.148-8.75-0.008-11.337c0.155,1.42,0.428,2.86,0.438,4.302c0.01,1.444-0.242,2.891-0.402,4.567
		c0.746-1.2,1.275-2.266,2.008-3.167C26.271,25.891,27.221,25.132,28.084,24.302z"/>
	<path fill="#EEEEEE" d="M76.639,32.609c-1.226-3.001-4.361-4.826-4.706-8.397c0.884,0.825,1.845,1.562,2.6,2.471
		c0.769,0.926,1.336,2.02,1.967,3.003c0-2.794,0-5.632,0-8.725C78.706,23.299,78.674,29.67,76.639,32.609z"/>
	<path fill="#EEEEEE" d="M79.361,37.535c-0.166,3.061-3.41,7.117-6.392,7.951c-0.895-3.312-0.945-6.594,0.334-9.882
		c0.247,1.386,0.642,2.766,0.7,4.161c0.056,1.346-0.236,2.706-0.375,4.065C75.545,41.724,77.449,39.634,79.361,37.535z"/>
	<path fill="#EEEEEE" d="M26.511,43.806c-0.72-2.753-0.463-5.486,0.48-8.176c1.052,1.834,1.146,7.106,0.194,9.769
		c-2.056-0.114-5.905-3.916-6.464-7.979C22.621,39.516,24.566,41.661,26.511,43.806z"/>
	<path fill="#EEEEEE" d="M24.23,38.325c-2.343-1.299-4.648-6.313-4.284-9.462c1.821,2.5,2.804,5.376,3.929,8.239
		c0.258-2.611,1.165-4.884,2.7-7.072c0.438,1.108,0.282,2.101,0.011,3.061c-0.197,0.698-0.532,1.359-0.836,2.023
		C25.267,36.17,24.758,37.214,24.23,38.325z"/>
	<path fill="#EEEEEE" d="M79.972,28.732c0.798,2.89-1.667,8.287-4.017,9.583c-0.599-1.24-1.185-2.49-1.803-3.724
		c-0.703-1.405-0.958-2.861-0.621-4.634c1.6,2.241,2.539,4.508,2.759,7.117C77.517,34.293,78.744,31.512,79.972,28.732z"/>
	<path fill="#EEEEEE" d="M72.677,16.481c2.007,0.971,3.499,5.638,2.298,8.998c-2.131-1.973-4.754-3.424-5.954-6.396
		c0.942,0.555,1.97,1.007,2.803,1.694c0.836,0.689,1.478,1.612,2.385,2.636C73.664,20.95,73.177,18.745,72.677,16.481z"/>
	<path fill="#EEEEEE" d="M26.013,23.141c1.483-1.649,2.901-3.392,5.292-3.944c-1.29,2.81-3.903,4.27-6.041,6.201
		c-1.162-2.448-0.161-7.669,2.258-8.98C27.013,18.684,26.513,20.913,26.013,23.141z"/>
	<path fill="#EEEEEE" d="M67.611,14.995c2.048,1.079,4.026,2.227,4.789,4.903C70.468,18.382,68.248,17.474,67.611,14.995z"/>
	<path fill="#EEEEEE" d="M32.624,15.02c-0.689,2.485-2.926,3.327-4.602,4.713C27.898,18.233,30.395,15.624,32.624,15.02z"/>
</g>
</svg>
