<?xml version="1.0" encoding="utf-8"?>
<!-- Generator: Adobe Illustrator 17.0.0, SVG Export Plug-In . SVG Version: 6.00 Build 0)  -->
<!DOCTYPE svg PUBLIC "-//W3C//DTD SVG 1.1//EN" "http://www.w3.org/Graphics/SVG/1.1/DTD/svg11.dtd">
<svg version="1.1" id="Layer_1" xmlns="http://www.w3.org/2000/svg" xmlns:xlink="http://www.w3.org/1999/xlink" x="0px" y="0px"
	 width="100px" height="100px" viewBox="0 0 100 100" enable-background="new 0 0 100 100" xml:space="preserve">
<g>
	<g>
		<path fill="#EEEEEE" d="M10.15,11.885c0.49-0.128,0.977-0.344,1.472-0.367c1.152-0.055,2.31,0.022,3.462-0.031
			c0.752-0.035,1.122,0.283,1.407,0.948c1.882,4.389,3.784,8.77,5.721,13.135c0.185,0.416,0.66,0.703,1.001,1.05
			c0.317-0.34,0.754-0.627,0.931-1.029c1.904-4.308,3.789-8.625,5.62-12.964c0.367-0.868,0.838-1.209,1.778-1.145
			c1.182,0.08,2.374,0.008,3.561,0.023c1.047,0.013,1.338,0.425,0.927,1.355c-3.991,9.039-7.987,18.076-12.007,27.102
			c-0.148,0.333-0.652,0.82-0.833,0.761c-0.361-0.119-0.727-0.518-0.892-0.89c-3.916-8.821-7.805-17.653-11.702-26.482
			c-0.132-0.298-0.297-0.581-0.447-0.871C10.15,12.281,10.15,12.083,10.15,11.885z"/>
		<path fill="#EEEEEE" d="M38.876,26.45c0-4.319-0.003-8.639,0.002-12.958c0.001-1.5,0.439-1.964,1.949-1.925
			c2.861,0.073,5.774-0.114,8.571,0.362c6.832,1.163,11.969,6.582,11.722,14.964c-0.223,7.589-4.547,12.866-11.676,14.104
			c-3.05,0.53-6.237,0.32-9.362,0.335c-0.971,0.005-1.212-0.844-1.21-1.726c0.01-3.297,0.004-6.595,0.004-9.892
			C38.876,28.626,38.876,27.538,38.876,26.45z M44.814,26.465c0,2.342-0.006,4.684,0.002,7.026c0.005,1.501,0.554,1.991,2.068,1.936
			c4.332-0.156,8.266-3.348,8.333-8.521c0.07-5.38-3.019-9.038-8.365-9.432c-1.409-0.104-2.03,0.453-2.036,1.866
			C44.807,21.715,44.814,24.09,44.814,26.465z"/>
		<path fill="#EEEEEE" d="M77.749,41.563c-7.946,0.003-14.315-5.93-15.052-14.023c-0.679-7.457,4.807-14.611,12.319-15.955
			c4.514-0.808,8.561,0.396,12.165,3.166c1.043,0.801,1.058,1.429,0.144,2.363c-0.646,0.66-1.302,1.312-1.96,1.96
			c-0.923,0.909-1.31,0.934-2.395,0.176c-3.679-2.57-8.527-2.109-11.648,1.108c-3.154,3.251-3.307,8.402-0.354,11.907
			c2.925,3.471,8.096,4.181,11.812,1.624c1.425-0.98,1.65-0.962,2.854,0.237c0.561,0.559,1.124,1.116,1.679,1.681
			c0.938,0.954,0.899,1.62-0.133,2.453C84.527,40.399,81.209,41.561,77.749,41.563z"/>
		<path fill="#EEEEEE" d="M88.551,40.512c-0.121-0.225-0.242-0.451-0.375-0.698c0.521-0.456,1.01-0.885,1.582-1.386
			c1.315,1.962,2.67,3.828,3.833,5.807c0.386,0.656,0.293,1.601,0.392,2.417c0.205,1.695,0.391,3.392,0.611,5.316
			c-2.315-1.345-4.499-2.499-6.543-3.862c-0.715-0.476-1.094-1.462-1.612-2.225c-0.795-1.172-1.577-2.354-2.412-3.603
			c0.609-0.314,1.179-0.607,1.796-0.925c0.337,0.357,0.661,0.699,0.984,1.041l-0.037-0.035c0.952,1.556,1.905,3.113,2.855,4.665
			c-0.219,0.078-0.431,0.153-0.817,0.29c0.9,0.526,1.62,0.975,2.367,1.372c0.444,0.236,1.769-0.49,1.759-1.005
			c-0.017-0.898-0.166-1.794-0.289-2.971c-0.34,0.446-0.484,0.634-0.699,0.916c-0.145-0.187-0.284-0.367-0.422-0.546
			C90.533,43.557,89.542,42.035,88.551,40.512z"/>
		<path fill="#EEEEEE" d="M88.551,40.512c0.991,1.522,1.982,3.044,2.974,4.567c0.036,0.209,0.072,0.417,0.08,0.463
			c-0.664,0.373-1.253,0.704-1.844,1.036c-0.967-1.364-1.978-2.792-2.99-4.22l0.037,0.035c-0.195-0.37-0.391-0.741-0.637-1.208
			c0.529-0.361,1.079-0.738,1.632-1.116C88.069,40.228,88.31,40.37,88.551,40.512z"/>
	</g>
	<rect y="48.356" fill="none" width="100" height="37.816"/>
	<text transform="matrix(1 0 0 1 25.1797 55.8398)"><tspan x="0" y="0" fill="#EAEAEA" font-family="'SourceSansPro-Semibold'" font-size="10.6005">VIOLATION</tspan><tspan x="-15.949" y="12.72" fill="#EAEAEA" font-family="'SourceSansPro-Semibold'" font-size="10.6005">DOCUMENTATION</tspan><tspan x="6.625" y="25.44" fill="#EAEAEA" font-family="'SourceSansPro-Semibold'" font-size="10.6005">CENTER</tspan></text>
</g>
</svg>
